<?xml version="1.0" encoding="utf-8"?>
<!-- Generator: Adobe Illustrator 27.6.1, SVG Export Plug-In . SVG Version: 6.00 Build 0)  -->
<svg version="1.1" id="Layer_1" xmlns="http://www.w3.org/2000/svg" xmlns:xlink="http://www.w3.org/1999/xlink" x="0px" y="0px"
	 viewBox="0 0 201.8 201.8" style="enable-background:new 0 0 201.8 201.8;" xml:space="preserve">
<style type="text/css">
	.st0{fill:#4A5565;}
</style>
<g>
	<g>
		<path class="st0" d="M32.8,161c2.4-2.9,4.9-5.7,7.4-8.6c2.7-3.1,5.5-6.1,8.1-9.2c2.2-2.6,4.4-5.1,6.7-7.6c2.2-2.4,4.3-4.9,6.4-7.4
			c1.5-1.7,3.1-3.4,4.6-5.2c2.1-2.4,4-4.8,6.2-7.2c1.4-1.5,2.9-3.1,4.2-4.7c0.6-0.7,1.2-1.4,1.8-2.1c0.3-0.3,0.2-0.5,0-0.8
			c-2.1-2.6-4.1-5.3-6.1-7.9c0-0.1-0.1-0.1-0.1-0.1c-2.3-3-4.6-6-6.9-9c-2.7-3.6-5.4-7.1-8.1-10.7c-3.3-4.4-6.7-8.7-10.1-13.1
			c-2.1-2.8-4.1-5.6-6.3-8.3c-1.8-2.3-3.5-4.6-5.3-6.9c-1.8-2.3-3.5-4.6-5.3-6.9c-1.9-2.4-3.7-4.8-5.5-7.2c-2.5-3.1-4.8-6.3-7.1-9.5
			c-2.5-3.4-5.1-6.7-7.6-10c-0.3-0.4-0.7-0.6-0.9-1.1c-0.1-0.2-0.4-0.3-0.3-0.6c0.2-0.2,0.4-0.1,0.7-0.1c18.1,0,36.1,0,54.2,0
			c3.4,0,3.3,0,5.4,2.8c2.5,3.3,4.9,6.6,7.5,9.8c1.2,1.5,2.3,3.1,3.5,4.6c1.1,1.4,1.9,3,3.3,4.2c0,0.1,0,0.1,0,0.2
			c0.8,1,1.5,2,2.3,3c0,0.1,0.1,0.1,0.1,0.2c1,1.7,2.4,3.2,3.6,4.9c1.3,1.9,2.8,3.7,4.2,5.5c3.3,4.4,6.7,8.8,10,13.2
			c1.2,1.6,2.4,3.2,3.6,4.8c0.2,0.2,0.4,0.6,0.8,0.5c0.1-0.1,0.1-0.1,0.2-0.2c1.6-1.9,3.1-3.8,4.8-5.5c1.6-1.7,2.9-3.5,4.5-5.2
			c1.5-1.6,3-3.3,4.4-5c1.9-2.4,4.1-4.4,5.9-6.8c1.2-1.6,2.6-3,3.9-4.4c1.9-2.2,3.7-4.4,5.7-6.5c1.8-1.8,3.3-3.8,5-5.7
			c1.7-1.8,3.3-3.8,4.9-5.7c1.6-1.9,3.3-3.7,4.9-5.6c0.6-0.6,1.2-1.2,1.7-1.9c0.6-0.9,1.5-1.2,2.6-1.2c8.2,0,16.4,0,24.6,0
			c0.3,0,0.5,0.1,0.8,0.1c0.1,0.2,0.2,0.5,0.4,0.6c-2.1,2.4-4.2,4.8-6.2,7.1c-2.2,2.5-4.3,5.1-6.6,7.6c-2.3,2.5-4.4,5.1-6.7,7.6
			c-2.5,2.7-4.9,5.7-7.3,8.5c-2.7,3.1-5.4,6.1-8.1,9.1c-3,3.5-6.1,6.9-9.1,10.4c-3.4,3.9-6.8,7.8-10.2,11.7c-2,2.3-4,4.6-5.9,7
			c-0.4,0.5-1.4,0.9-1.3,1.6c0.1,0.6,0.8,1,1.2,1.6c3.1,4.1,6.1,8.2,9.2,12.3c2.9,3.9,5.9,7.7,8.9,11.6c2.6,3.5,5.2,7,7.8,10.5
			c3.9,5.2,7.9,10.4,11.8,15.6c2.7,3.5,5.3,7.1,8,10.6c3.6,4.7,7.1,9.3,10.7,14c2.9,3.8,5.7,7.6,8.5,11.4c2.1,2.7,4.2,5.4,6.2,8.1
			c0.2,0.2,0.4,0.4,0.3,0.7c-0.1,0.3-0.4,0.1-0.6,0.1c-17.3,0.2-34.7,0.1-52,0.1c-1.1,0-2.2,0-3.3,0c-0.6,0-0.9-0.1-1.3-0.8
			c-0.7-1.3-1.8-2.5-2.8-3.7c-0.4-0.5-0.8-1.1-1.2-1.6c0-0.1-0.1-0.1-0.1-0.2c-1.2-1.6-2.4-3.2-3.6-4.8c-0.7-0.9-1.4-1.8-2-2.6
			c-0.1-0.1-0.1-0.2-0.2-0.2c-2.1-2.8-4.3-5.6-6.4-8.4c-1.6-2.1-3.2-4.1-4.8-6.2c-2.3-3-4.6-6-7-9c-2.2-2.8-4.3-5.8-6.5-8.6
			c-2.7-3.5-5.4-6.9-8-10.4c-0.5-0.7-1.2-1.3-1.5-2.1c0-0.2,0.1-0.5-0.2-0.5c-0.2,0-0.2,0.3-0.2,0.5c-2.5,2.9-5,5.8-7.5,8.6
			c-1.7,2-3.6,3.9-5.2,5.9c-2,2.4-4.1,4.6-6,7c-1.2,1.6-2.7,3-4,4.5c-2.1,2.4-4.2,4.9-6.4,7.4c-1.7,1.9-3.3,3.8-5,5.7
			c-2.2,2.5-4.4,5.1-6.6,7.6c-1.4,1.5-2.7,3.1-4.1,4.6c-1.5,1.5-2.8,3.2-4.2,4.9c-0.7,0.8-1.5,1.5-2.1,2.4c-0.2,0.3-0.6,0.3-1,0.3
			c-8.7,0-17.3,0-26-0.1c-0.3,0-0.5,0-0.7-0.3c0-0.2,0-0.4,0-0.6c1.8-2.1,3.7-4.2,5.5-6.3c2.2-2.4,4.3-4.9,6.4-7.4
			c1.7-2,3.5-3.9,5.2-5.9c0.9-1,1.7-2,2.6-2.9C32.7,161.4,32.8,161.3,32.8,161z M130.1,149.2c1.7,2.2,3.3,4.5,5,6.7
			c2.6,3.4,5.2,6.9,7.9,10.3c0.7,0.8,1.1,2,2.6,1.9c1.8-0.2,3.6-0.1,5.4-0.2c2.8,0,5.6,0,8.5-0.1c0.2,0,0.6,0.2,0.7-0.2
			c0.1-0.3-0.2-0.4-0.3-0.6c-0.4-0.4-0.8-0.9-1.1-1.3c-2.6-3.5-5.2-7-7.8-10.5c-2.2-2.9-4.4-5.8-6.6-8.7c-1.3-1.7-2.7-3.3-4-4.9
			c-0.1-0.4,0.2-1-0.6-1c0-0.1-0.1-0.1-0.1-0.2c0-0.3-0.1-0.4-0.4-0.4c-1-1.2-1.9-2.5-2.9-3.7c-0.1-0.1-0.1-0.1-0.2-0.2
			c-0.1-0.2-0.3-0.5-0.4-0.7c-1.4-1.9-2.9-3.8-4.3-5.7c-2.1-2.8-4.3-5.7-6.4-8.5c-2.5-3.2-4.9-6.5-7.4-9.7
			c-2.6-3.5-5.2-7.1-7.9-10.6c-2.3-3-4.6-5.9-6.8-8.9c-1.6-2.1-3.1-4.3-4.7-6.4c-3-4-6-7.9-9-11.8c-1.4-1.9-2.9-3.8-4.3-5.7
			c-2-2.6-4-5.3-6-7.9c-2.1-2.7-4.1-5.4-6.2-8.2c0-0.1-0.1-0.1-0.1-0.2c-2.2-2.9-4.3-5.8-6.5-8.6c-2.3-3.1-4.6-6.1-6.9-9.2
			c-0.4-0.6-0.8-1.1-1.8-1.1c-5.1,0-10.2,0-15.2,0c-0.3,0-0.7-0.2-0.8,0.4c-0.3,0.4,0,0.4,0.3,0.4c2.3,3,4.5,6,6.8,9
			c3.2,4.1,6.3,8.3,9.5,12.4c2.9,3.8,5.8,7.6,8.7,11.4c3.4,4.4,6.7,8.7,10.1,13.1c2.9,3.8,5.8,7.7,8.7,11.5
			c2.9,3.8,5.8,7.5,8.7,11.3c1.2,1.6,2.3,3.3,3.7,4.7c0,0.1,0.1,0.1,0.1,0.2c0.1,0.2,0.1,0.3,0.2,0.5c2.9,3.7,5.7,7.4,8.6,11.1
			c2.9,3.7,5.7,7.5,8.5,11.2c3,4,6,7.9,9,11.9c1.9,2.5,3.8,4.9,5.7,7.3C130,149.1,130,149.2,130.1,149.2z"/>
		<path class="st0" d="M182,17.7c-0.3-0.1-0.3-0.4-0.4-0.6c0.3,0,0.6-0.2,1,0C182.5,17.4,182.2,17.5,182,17.7z"/>
		<path class="st0" d="M91.5,126c0-0.2,0-0.5,0.2-0.5c0.3,0,0.2,0.3,0.2,0.5C91.8,126.1,91.6,126.1,91.5,126z"/>
		<path class="st0" d="M32.8,161c0,0.3-0.1,0.4-0.4,0.4C32.5,161.2,32.3,160.7,32.8,161z"/>
		<path class="st0" d="M12.6,183.9c0,0.2,0,0.4,0,0.6c-0.2,0.1-0.3,0.1-0.4-0.1C12.2,184.2,12.4,184,12.6,183.9z"/>
		<path class="st0" d="M83,38.5c0-0.1,0-0.1,0-0.2c0.1,0,0.1,0,0.2,0.1C83.1,38.4,83.1,38.5,83,38.5z"/>
		<path class="st0" d="M85.5,41.6c0-0.1-0.1-0.1-0.1-0.2C85.4,41.4,85.5,41.5,85.5,41.6z"/>
		<path class="st0" d="M107.8,70.4c-0.1,0.1-0.1,0.1-0.2,0.2C107.6,70.4,107.7,70.3,107.8,70.4z"/>
		<path class="st0" d="M72,100.3c0.1,0,0.1,0.1,0.1,0.1C72,100.5,71.9,100.4,72,100.3z"/>
		<path class="st0" d="M126,170.9c0.1,0.1,0.1,0.2,0.2,0.2C126.1,171.1,126.1,171,126,170.9z"/>
		<path class="st0" d="M131.8,178.6c0,0.1,0.1,0.1,0.1,0.2C131.9,178.7,131.8,178.7,131.8,178.6z"/>
		<path class="st0" d="M140.2,141.5c-0.2,0-0.5,0-0.4-0.1c0.3-0.4-0.1-0.6-0.2-0.8C140.5,140.5,140.2,141.1,140.2,141.5z"/>
		<path class="st0" d="M139.6,140.4c-0.3,0-0.5-0.1-0.4-0.4C139.5,139.9,139.6,140.1,139.6,140.4z"/>
		<path class="st0" d="M41.3,33.2c0.1,0.1,0.2,0.3,0.3,0.4C41.3,33.5,41,33.5,41.3,33.2z"/>
		<path class="st0" d="M72.7,51.9c-0.1,0-0.2,0-0.1-0.2C72.6,51.8,72.7,51.8,72.7,51.9z"/>
		<path class="st0" d="M97.7,106.9c0.1,0,0.2,0.1,0.1,0.2C97.8,107,97.7,106.9,97.7,106.9z"/>
		<path class="st0" d="M136.3,136.2c-0.1,0-0.2-0.1-0.2-0.2C136.2,136.1,136.3,136.2,136.3,136.2z"/>
		<path class="st0" d="M129.9,149.1c0.1,0,0.2,0,0.1,0.2C130,149.2,130,149.1,129.9,149.1z"/>
	</g>
</g>
</svg>
