<?xml version="1.0" encoding="utf-8"?>
<!-- Generator: Adobe Illustrator 27.6.1, SVG Export Plug-In . SVG Version: 6.00 Build 0)  -->
<svg version="1.1" id="Layer_1" xmlns="http://www.w3.org/2000/svg" xmlns:xlink="http://www.w3.org/1999/xlink" x="0px" y="0px"
	 viewBox="0 0 201.8 201.8" style="enable-background:new 0 0 201.8 201.8;" xml:space="preserve">
<style type="text/css">
	.st0{fill:#4A5565;}
</style>
<path class="st0" d="M178.3,29.4c2.2-0.1,4.2,0.4,5.8,1.9c1.4,1.4,2,3.1,2.3,5.1c0.2,1.7-0.3,3.2-0.6,4.8c-0.4,1.9-0.8,3.8-1.2,5.8
	c-0.4,1.8-0.8,3.6-1.2,5.4c-0.4,2-0.8,4.1-1.3,6.1c-0.5,2.2-0.9,4.4-1.4,6.5c-0.3,1.6-0.6,3.2-1,4.8c-0.5,2.1-0.8,4.3-1.4,6.4
	c-0.3,1.1-0.4,2.2-0.7,3.3c-0.5,2.4-1,4.9-1.5,7.3c-0.8,3.3-1.4,6.6-2.1,9.9c-0.7,3.3-1.4,6.6-2,9.9c-0.5,2.6-1.2,5.2-1.7,7.8
	c-0.4,2-0.9,4-1.2,6c-0.1,0.5-0.3,0.9-0.3,1.3c0,0.5-0.2,1-0.3,1.5c-0.3,1.4-0.6,2.8-0.9,4.2c-0.5,2.4-1,4.9-1.5,7.3
	c-0.8,3.3-1.4,6.7-2.2,10.1c-0.6,2.7-1.1,5.4-1.7,8.2c-0.6,2.9-1.2,5.7-1.8,8.6c-0.5,2.1-0.9,4.2-1.9,6.2c-1.6,3.3-4.5,4.9-8.3,4.2
	c-2.5-0.5-4.5-1.8-6.6-3.3c-6.7-4.9-13.3-9.7-20-14.6c-3.5-2.5-7-5.1-10.5-7.6c-1.8-1.3-3.6-2.7-5.5-4c-0.8-0.6-2.1-0.5-2.8,0.3
	c-1,1.1-2.1,2-3.2,2.9c-1.5,1.3-2.8,2.6-4.3,3.9c-4.6,4.1-9.2,8.2-13.8,12.3c-1.1,0.9-2,1.1-2.9,0.6c-1-0.6-1.4-1.8-1.2-3
	c0.2-1.5,0.4-2.9,0.5-4.4c0.1-1.7,0.1-3.5,0.5-5.2c0.1-0.4,0-0.9,0.1-1.3c0.1-2.1,0.2-4.2,0.5-6.3c0.2-2.4,0.4-4.9,0.7-7.3
	c0.2-1.7,0.2-3.4,0.4-5.1c0.2-1.9,0.3-3.7,0.5-5.6c0.1-1,0.9-1.7,1.7-2.3c0.9-0.6,1.6-1.5,2.4-2.2c3.3-2.7,6.3-5.6,9.5-8.4
	c2.8-2.5,5.5-5,8.3-7.5c5-4.5,10.1-9.1,15.1-13.6c4.3-3.9,8.6-7.8,12.9-11.7c3-2.7,6-5.5,8.9-8.2c1.8-1.7,3.6-3.3,5.4-5
	c2.7-2.5,5.5-5,8.1-7.6c0.4-0.4,0.8-0.9,1-1.4c0.3-0.7,0.1-1.2-0.7-1.4c-1.4-0.3-2.7-0.1-4,0.7c-4.4,2.7-8.8,5.5-13.2,8.2
	c-2.9,1.8-5.7,3.6-8.5,5.4c-3.5,2.2-7,4.3-10.5,6.5c-2.9,1.8-5.7,3.6-8.6,5.4c-3.5,2.2-7,4.3-10.5,6.5c-2.8,1.8-5.6,3.6-8.4,5.3
	c-3.4,2.1-6.8,4.2-10.1,6.3c-4,2.5-7.9,5.1-12,7.5c-2.9,1.8-5.8,3.6-8.8,5.4c-0.7,0.5-1.5,0.5-2.4,0.2c-4.4-1.5-8.8-2.9-13.2-4.3
	c-7.8-2.5-15.5-5-23.3-7.5c-2-0.7-3.9-1.6-5.4-3.1c-1.6-1.6-1.8-3.3-0.4-5.1c1.1-1.4,2.5-2.5,4.2-3.1c9.1-3.5,18.2-7.1,27.3-10.6
	c7-2.7,14-5.4,20.9-8.1c7.9-3.1,15.7-6.1,23.6-9.2c5.4-2.1,10.8-4.2,16.2-6.3c6.8-2.7,13.7-5.3,20.5-8c5.9-2.3,11.8-4.5,17.7-6.8
	c6.4-2.5,12.7-5,19.1-7.4c3-1.2,6-2.4,9.1-3.5C176.1,29.4,177.2,29.4,178.3,29.4z"/>
</svg>
