<?xml version="1.0" encoding="utf-8"?>
<!-- Generator: Adobe Illustrator 27.6.1, SVG Export Plug-In . SVG Version: 6.00 Build 0)  -->
<svg version="1.1" id="Layer_1" xmlns="http://www.w3.org/2000/svg" xmlns:xlink="http://www.w3.org/1999/xlink" x="0px" y="0px"
	 viewBox="0 0 201.8 201.8" style="enable-background:new 0 0 201.8 201.8;" xml:space="preserve">
<style type="text/css">
	.st0{fill:#4A5565;}
</style>
<path class="st0" d="M26.8,166.8c35.1,0.2,64.2,0.3,91.6,0.2c17,0,33.9-0.1,50.9-0.2c0.9,0,1.8,0,2.7-0.1c1.7,0,3.4-0.1,5.2,0
	c1.5,0.1,3.4,0.1,5.2-0.3c3.7-0.8,6.7-2.6,8.8-5.4c1.7-2.1,2.5-4.1,2.7-6.3c0.3-4.6,0.4-8.1,0.4-11.5c0-9,0-17.9,0.1-26.9
	c0.1-22.3,0.2-45.4-0.3-68.1c-0.1-2.6-0.7-4.8-1.9-6.6c-3-4.5-7.2-6.7-12.6-6.8c-27.1-0.3-53.7-0.3-80.9-0.3l-12.4,0
	c-21.8,0-44.4,0-66.7,0.4c-0.9,0-1.8,0.3-2.8,0.6c-2.5,0.9-4.8,2.6-6.8,5c-1.9,2.3-2.8,4.5-2.7,6.9c0.1,13.3,0.1,26.6,0.1,39.9
	l0,67.9c0,0.7,0.1,1.2,0.3,1.7c1.5,3.4,3.5,5.9,6.2,7.5c2.5,1.5,4.7,2.3,6.8,2.3c0.1,0,0.1,0,0.2,0c1.1,0,2.2,0,3.3,0
	C25.1,166.8,25.9,166.8,26.8,166.8z M176.3,152.4c-0.2,0.5-0.7,1.1-1.8,1c-3.6,0-7.2,0-10.7,0L90,153.4c-3.6,0-7.1,0-10.7,0
	c-4,0-8.1,0-12.1,0c-11.5,0-22.9-0.1-34.4-0.1l-5.7,0c-1.1,0.1-1.7-0.2-2-0.9c-0.2-0.6-0.3-1.4,0.8-2.2c4-3.2,7.9-6.3,11.8-9.4
	c1.1-0.9,2.3-1.8,3.5-2.7c2.1-1.6,4.1-3.2,6.1-4.9c3.3-2.8,6.7-5.5,10-8.1l5.7-4.6c3.7-2.9,7.4-6,11.3-8.8c0.7-0.5,1.6-1.2,2.4-2
	c1-1,2.3-1,3.4-0.2c1.7,1.3,3.4,2.5,5.1,3.8l4.3,3.2c0.7,0.5,1.5,1.1,2.2,1.7c2,1.5,4,3,6.1,4.3c1.5,0.9,3.2,1,5.1,0.2
	c1.6-0.7,3-1.7,4.5-2.9c0.6-0.4,1.2-0.9,1.7-1.3c1.7-1.2,3.3-2.5,5-3.7c2.2-1.7,4.6-3.5,7-5.1c0.9-0.6,2.2-1.2,3.8,0.1
	c2.9,2.3,5.7,4.6,8.6,6.9l7.3,5.7c3.3,2.6,6.6,5.2,9.9,7.9c0.7,0.6,1.4,1.2,2.1,1.7c1.1,1,2.3,1.9,3.4,2.8c1.7,1.3,3.3,2.6,4.9,3.9
	c1.6,1.2,3.1,2.5,4.7,3.7c2.5,1.9,4.9,3.9,7.3,5.8l2.6,2.1C176.7,151.2,176.5,152,176.3,152.4z M178.2,66.2c0.8-0.4,1.3-0.2,1.6,0
	c0.3,0.2,0.7,0.6,0.7,1.4c0,0.7,0,1.3,0.1,2c0.1,1.3,0.2,2.6-0.1,4c-0.1,0.6,0,1.3,0.1,2c0.1,0.5,0.1,1.1,0.1,1.6c0,6,0,12.1,0,18.1
	l0,12.1c0,5.5,0,10.9-0.1,16.4l-0.1,3.2c0,2.1-0.1,4.2-0.1,6.4c0,1-0.3,1.6-1,1.9c-0.2,0.1-0.3,0.1-0.4,0.1c-0.6,0-1.1-0.4-1.3-0.6
	l-39.8-32c-0.3-0.3-0.6-0.5-0.9-0.8c-0.3-0.3-0.7-0.6-1-0.9c-0.5-0.4-0.8-0.9-0.8-1.4c0-0.8,0.6-1.3,0.8-1.4c1-0.8,2-1.5,2.9-2.3
	l3.7-2.8c2.7-2.1,5.4-4.2,8.1-6.2c1.7-1.3,3.3-2.5,5-3.8c2.9-2.2,5.8-4.4,8.7-6.6c3.5-2.7,7-5.4,10.5-8l2.3-1.7
	C177.6,66.6,177.9,66.3,178.2,66.2z M30.5,48.4c3,0,6,0,9,0c36.8-0.2,73.7-0.1,111.4,0c5.2,0,10.5,0.1,15.7,0.1l6.9,0.1
	c0.4,0,0.6,0,0.8,0c1.1,0,1.5,0.7,1.6,1.1c0.1,0.5,0.1,1.1-0.7,1.7l-12.8,9.8c-2.6,2-5.2,4-7.8,6c-2.5,1.9-5,3.8-7.5,5.7l-17.4,13.3
	c-3.9,3-7.9,6-11.8,9c-2.4,1.8-4.9,3.7-7.3,5.5c-2.5,1.9-5,3.7-7.5,5.6c-1,0.8-1.7,1.1-2.3,1.1c-0.6,0-1.3-0.4-2.2-1.1
	c-1.8-1.3-3.5-2.6-5.3-3.9c-2.4-1.8-4.9-3.6-7.3-5.4c-4.8-3.6-9.7-7.3-14.5-10.9L58.3,76c-2.4-1.8-4.8-3.6-7.1-5.4
	c-3.7-2.8-7.3-5.6-11-8.4L26.1,51.4c-0.4-0.3-1-0.7-1.1-1.9l-0.1-1.2H30.5z M22.8,134.6c-0.5,0-1-0.1-1.5-0.5
	c-0.6-0.5-0.6-1.2-0.6-1.7c0-4.4,0-8.9,0-13.3l0-9.2c0-9.8,0-19.7,0.1-29.5l0-15.9l6.1,4.6c4.7,3.5,9.2,7,13.8,10.4
	c5.6,4.2,11.1,8.4,16.7,12.7c2.1,1.6,4.1,3.2,6.2,4.8l1.6,1.2c0.3,0.2,1,0.8,1,1.7c0,0.9-0.7,1.4-0.9,1.6c-1.6,1.3-3.1,2.6-4.7,3.9
	c-1.3,1.1-2.6,2.1-3.9,3.2c-2.7,2.2-5.4,4.4-8.1,6.5l-15.7,12.6c-2.6,2.1-5.2,4.2-7.8,6.3c-0.4,0.3-0.9,0.7-1.8,0.7
	C23,134.6,22.9,134.6,22.8,134.6z"/>
</svg>
