<?xml version="1.0" encoding="utf-8"?>
<!-- Generator: Adobe Illustrator 27.6.1, SVG Export Plug-In . SVG Version: 6.00 Build 0)  -->
<svg version="1.1" id="Layer_1" xmlns="http://www.w3.org/2000/svg" xmlns:xlink="http://www.w3.org/1999/xlink" x="0px" y="0px"
	 viewBox="85 19.499996185302734 1430 861" style="enable-background:new 85 19.499996185302734 1430 861;" xml:space="preserve">
<style type="text/css">
	.st0{fill:#FDFEFE;}
</style>
<g>
	<path class="st0" d="M1364.4,88.2c5.5,8.7,12.5,16.4,20.8,22.5c1.2,0.9,2.7,1,4,0.5c7.2-2.9,14.1-6.7,20.3-11.2
		c1.8-1.3,2.2-3.9,0.9-5.7c-5-7-9.3-14.5-12.8-22.4c-1.1-2.4-4.2-3.2-6.3-1.5c-7.1,5.5-15.4,9.6-24.4,11.7
		C1364.2,82.7,1362.9,85.8,1364.4,88.2z"/>
	<path class="st0" d="M1352,48.2c0,0.2,0,0.4,0,0.5c0,0.4,0,0.8,0.1,1.2c0,0,0,0,0,0.1v0c0.2,2.4,2.4,4.1,4.7,3.8
		c15.3-2.2,27.3-14.3,29.4-29.6c0.3-2.5-1.6-4.7-4.1-4.7h-23.1c-1.8,0-3.4,1.2-3.9,2.9c-0.1,0.1-0.1,0.3-0.1,0.4
		c-2,7-3.1,14.5-3.1,22.1v0.1c0,0.7,0,1.4,0,2.1C1352,47.5,1352,47.8,1352,48.2z"/>
	<path class="st0" d="M1500.2,82c-10.9-2.6-20.7-7.9-28.6-15.3c-11.9-10.9-19.6-26.3-20.6-43.4c-0.1-2.2-1.9-3.8-4.1-3.8h-26.4
		c-2.3,0-4.2,1.9-4.1,4.2c0.8,19.1,7,36.8,17.2,51.6c5.7,8.3,12.7,15.8,20.7,22c7.2,5.6,15.1,10.2,23.6,13.7
		c1.3,0.5,2.9,0.4,4.1-0.5c8.3-6.1,15.4-13.7,20.8-22.5C1504.2,85.8,1502.9,82.7,1500.2,82z"/>
	<path class="st0" d="M1511.8,22.3c-0.5-1.6-2.1-2.8-3.9-2.8h-23c-2.5,0-4.4,2.2-4.1,4.7c2.1,15.3,14.1,27.4,29.4,29.6
		c2.1,0.3,4-1,4.6-3c0.1-1.9,0.2-3.9,0.2-5.8c0-7.7-1.1-15.2-3.1-22.2C1511.9,22.6,1511.9,22.5,1511.8,22.3z"/>
	<path class="st0" d="M1288.3,71.8c-3.5,7.9-7.8,15.4-12.8,22.4c-1.3,1.8-0.9,4.4,0.9,5.7c6.3,4.5,13.1,8.3,20.3,11.2
		c1.3,0.5,2.9,0.4,4-0.5c8.3-6.1,15.4-13.7,20.8-22.5c1.5-2.4,0.2-5.5-2.6-6.1c-9-2.2-17.3-6.2-24.4-11.7
		C1292.5,68.7,1289.4,69.4,1288.3,71.8z"/>
	<path class="st0" d="M1333.8,50L1333.8,50C1333.8,50,1333.9,50,1333.8,50c0-0.5,0.1-0.9,0.1-1.3c0-0.2,0-0.4,0-0.5
		c0-0.3,0-0.7,0-1.1c0-0.7,0-1.4,0-2.1v-0.1c0-7.7-1.1-15.1-3.1-22.1c0-0.1-0.1-0.3-0.1-0.4c-0.5-1.7-2.1-2.9-3.9-2.9h-23.1
		c-2.5,0-4.4,2.2-4.1,4.7c2.1,15.3,14.1,27.4,29.4,29.6C1331.5,54.1,1333.7,52.4,1333.8,50z"/>
	<path class="st0" d="M1183.3,88.2c5.5,8.7,12.5,16.4,20.8,22.5c1.2,0.9,2.7,1,4.1,0.5c8.5-3.5,16.5-8.1,23.6-13.7
		c8-6.2,14.9-13.7,20.7-22c10.2-14.8,16.4-32.5,17.2-51.6c0.1-2.3-1.8-4.2-4.1-4.2h-26.4c-2.2,0-4,1.7-4.1,3.8
		c-1,17.1-8.7,32.5-20.6,43.4c-7.9,7.3-17.7,12.7-28.6,15.3C1183.1,82.7,1181.8,85.8,1183.3,88.2z"/>
	<path class="st0" d="M1175.8,53.8c15.3-2.2,27.3-14.3,29.4-29.6c0.3-2.5-1.6-4.7-4.1-4.7h-23c-1.8,0-3.4,1.2-3.9,2.8
		c-0.1,0.1-0.1,0.3-0.1,0.5c-2,7.1-3.1,14.5-3.1,22.2c0,2,0.1,3.9,0.2,5.8C1171.7,52.8,1173.7,54.1,1175.8,53.8z"/>
	<path class="st0" d="M1210.4,290c-7.1,5.5-15.4,9.6-24.4,11.7c-2.7,0.6-4,3.8-2.6,6.1c5.5,8.7,12.5,16.4,20.8,22.5
		c1.2,0.9,2.7,1,4,0.5c7.2-2.9,14.1-6.7,20.3-11.2c1.8-1.3,2.2-3.9,0.9-5.7c-5-7-9.3-14.5-12.8-22.4
		C1215.6,289.1,1212.5,288.4,1210.4,290z"/>
	<path class="st0" d="M1175.9,273.5c15.3-2.2,27.3-14.3,29.4-29.6c0.3-2.5-1.6-4.7-4.1-4.7h-23.1c-1.8,0-3.4,1.2-3.9,2.9
		c-0.1,0.1-0.1,0.3-0.1,0.4c-2,7-3.1,14.5-3.1,22.1v0.1c0,0.7,0,1.4,0,2.1c0,0.3,0,0.7,0,1.1c0,0.2,0,0.4,0,0.5c0,0.4,0,0.8,0.1,1.2
		c0,0,0,0,0,0.1v0C1171.3,272.1,1173.5,273.8,1175.9,273.5z"/>
	<path class="st0" d="M1319.2,301.8c-10.9-2.6-20.7-7.9-28.6-15.3c-11.9-10.9-19.6-26.3-20.6-43.4c-0.1-2.2-1.9-3.8-4.1-3.8h-26.4
		c-2.3,0-4.2,1.9-4.1,4.2c0.8,19.1,7,36.8,17.2,51.6c5.7,8.3,12.7,15.8,20.7,22c7.2,5.6,15.1,10.2,23.6,13.7
		c1.3,0.5,2.9,0.4,4.1-0.5c8.3-6.1,15.4-13.7,20.8-22.5C1323.2,305.5,1321.9,302.4,1319.2,301.8z"/>
	<path class="st0" d="M1330.8,242.1c-0.5-1.6-2.1-2.8-3.9-2.8h-23c-2.5,0-4.4,2.2-4.1,4.7c2.1,15.3,14.1,27.4,29.4,29.6
		c2.1,0.3,4-1,4.6-3c0.1-1.9,0.2-3.9,0.2-5.8c0-7.7-1.1-15.2-3.1-22.2C1330.9,242.4,1330.9,242.2,1330.8,242.1z"/>
	<path class="st0" d="M1321.6,152.6c-5.5-8.7-12.5-16.4-20.8-22.5c-1.2-0.9-2.7-1-4-0.5c-7.2,2.9-14.1,6.7-20.3,11.2
		c-1.8,1.3-2.2,3.9-0.9,5.7c5,7,9.3,14.5,12.8,22.4c1.1,2.4,4.2,3.2,6.3,1.5c7.1-5.5,15.4-9.6,24.4-11.7
		C1321.8,158.1,1323.1,155,1321.6,152.6z"/>
	<path class="st0" d="M1333.9,192.6c0-0.2,0-0.4,0-0.5c0-0.4,0-0.8-0.1-1.2c0,0,0,0,0-0.1v0c-0.2-2.4-2.4-4.1-4.7-3.8
		c-15.3,2.2-27.3,14.3-29.4,29.6c-0.3,2.5,1.6,4.7,4.1,4.7h23.1c1.8,0,3.4-1.2,3.9-2.9c0.1-0.1,0.1-0.3,0.1-0.4
		c2-7,3.1-14.5,3.1-22.1v-0.1c0-0.7,0-1.4,0-2.1C1334,193.4,1334,193,1333.9,192.6z"/>
	<path class="st0" d="M1239.1,221.3h26.4c2.3,0,4.2-1.9,4.1-4.2c-0.8-19.1-7-36.8-17.2-51.6c-5.7-8.3-12.7-15.8-20.7-22
		c-7.2-5.6-15.1-10.2-23.6-13.7c-1.3-0.5-2.9-0.4-4.1,0.5c-8.3,6.1-15.4,13.7-20.8,22.5c-1.5,2.4-0.2,5.5,2.6,6.1
		c10.9,2.6,20.7,7.9,28.6,15.3c11.9,10.9,19.6,26.3,20.6,43.4C1235.2,219.6,1237,221.3,1239.1,221.3z"/>
	<path class="st0" d="M1171.2,190c-0.1,1.9-0.2,3.9-0.2,5.8c0,7.7,1.1,15.2,3.1,22.2c0,0.2,0.1,0.3,0.1,0.5c0.5,1.6,2.1,2.8,3.9,2.8
		h23c2.5,0,4.4-2.2,4.1-4.7c-2.1-15.3-14.1-27.4-29.4-29.6C1173.7,186.7,1171.7,188,1171.2,190z"/>
	<path class="st0" d="M1500.1,301.8c-9-2.2-17.3-6.2-24.4-11.7c-2.1-1.6-5.2-0.9-6.3,1.5c-3.5,7.9-7.8,15.4-12.8,22.4
		c-1.3,1.8-0.9,4.4,0.9,5.7c6.3,4.5,13.1,8.3,20.3,11.2c1.3,0.5,2.9,0.4,4-0.5c8.3-6.1,15.4-13.7,20.8-22.5
		C1504.1,305.5,1502.8,302.4,1500.1,301.8z"/>
	<path class="st0" d="M1511.8,242.1c-0.5-1.7-2.1-2.9-3.9-2.9h-23.1c-2.5,0-4.4,2.2-4.1,4.7c2.1,15.3,14.1,27.4,29.4,29.6
		c2.4,0.3,4.6-1.4,4.7-3.8v0c0,0,0,0,0-0.1c0-0.4,0.1-0.8,0.1-1.2c0-0.2,0-0.4,0-0.5c0-0.3,0-0.7,0-1.1c0-0.7,0-1.4,0-2.1v-0.1
		c0-7.7-1.1-15.1-3.1-22.1C1511.9,242.4,1511.9,242.2,1511.8,242.1z"/>
	<path class="st0" d="M1364.3,307.9c5.5,8.7,12.5,16.4,20.8,22.5c1.2,0.9,2.7,1,4.1,0.5c8.5-3.5,16.5-8.1,23.6-13.7
		c8-6.2,14.9-13.7,20.7-22c10.2-14.8,16.4-32.5,17.2-51.6c0.1-2.3-1.8-4.2-4.1-4.2h-26.4c-2.2,0-4,1.7-4.1,3.8
		c-1,17.1-8.7,32.5-20.6,43.4c-7.9,7.3-17.7,12.7-28.6,15.3C1364.1,302.4,1362.8,305.5,1364.3,307.9z"/>
	<path class="st0" d="M1356.8,273.5c15.3-2.2,27.3-14.3,29.4-29.6c0.3-2.5-1.6-4.7-4.1-4.7h-23c-1.8,0-3.4,1.2-3.9,2.8
		c-0.1,0.1-0.1,0.3-0.1,0.5c-2,7.1-3.1,14.5-3.1,22.2c0,2,0.1,3.9,0.2,5.8C1352.7,272.5,1354.7,273.8,1356.8,273.5z"/>
	<path class="st0" d="M1366.9,158.8c9,2.2,17.3,6.2,24.4,11.7c2.1,1.6,5.2,0.9,6.3-1.5c3.5-7.9,7.8-15.4,12.8-22.4
		c1.3-1.8,0.9-4.4-0.9-5.7c-6.3-4.5-13.1-8.3-20.3-11.2c-1.3-0.5-2.9-0.4-4,0.5c-8.3,6.1-15.4,13.7-20.8,22.5
		C1362.9,155,1364.2,158.1,1366.9,158.8z"/>
	<path class="st0" d="M1355.2,218.4c0.5,1.7,2.1,2.9,3.9,2.9h23.1c2.5,0,4.4-2.2,4.1-4.7c-2.1-15.3-14.1-27.4-29.4-29.6
		c-2.4-0.3-4.6,1.4-4.7,3.8v0c0,0,0,0,0,0.1c0,0.4-0.1,0.8-0.1,1.2c0,0.2,0,0.4,0,0.5c0,0.3,0,0.7,0,1.1c0,0.7,0,1.4,0,2.1v0.1
		c0,7.7,1.1,15.1,3.1,22.1C1355.1,218.2,1355.1,218.3,1355.2,218.4z"/>
	<path class="st0" d="M1502.7,152.6c-5.5-8.7-12.5-16.4-20.8-22.5c-1.2-0.9-2.7-1-4.1-0.5c-8.5,3.5-16.5,8.1-23.6,13.7
		c-8,6.2-14.9,13.7-20.7,22c-10.2,14.8-16.4,32.5-17.2,51.6c-0.1,2.3,1.8,4.2,4.1,4.2h26.4c2.2,0,4-1.7,4.1-3.8
		c1-17.1,8.7-32.5,20.6-43.4c7.9-7.3,17.7-12.7,28.6-15.3C1502.9,158.1,1504.2,155,1502.7,152.6z"/>
	<path class="st0" d="M1510.2,187c-15.3,2.2-27.3,14.3-29.4,29.6c-0.3,2.5,1.6,4.7,4.1,4.7h23c1.8,0,3.4-1.2,3.9-2.8
		c0.1-0.1,0.1-0.3,0.1-0.5c2-7.1,3.1-14.5,3.1-22.2c0-2-0.1-3.9-0.2-5.8C1514.3,188,1512.3,186.7,1510.2,187z"/>
	<path class="st0" d="M1364.4,527.6c5.5,8.7,12.5,16.4,20.8,22.5c1.2,0.9,2.7,1,4,0.5c7.2-2.9,14.1-6.7,20.3-11.2
		c1.8-1.3,2.2-3.9,0.9-5.7c-5-7-9.3-14.5-12.8-22.4c-1.1-2.4-4.2-3.2-6.3-1.5c-7.1,5.5-15.4,9.6-24.4,11.7
		C1364.2,522.1,1362.9,525.3,1364.4,527.6z"/>
	<path class="st0" d="M1352,487.6c0,0.2,0,0.4,0,0.5c0,0.4,0,0.8,0.1,1.2c0,0,0,0,0,0.1v0c0.2,2.4,2.4,4.1,4.7,3.8
		c15.3-2.2,27.3-14.3,29.4-29.6c0.3-2.5-1.6-4.7-4.1-4.7h-23.1c-1.8,0-3.4,1.2-3.9,2.9c-0.1,0.1-0.1,0.3-0.1,0.4
		c-2,7-3.1,14.5-3.1,22.1v0.1c0,0.7,0,1.4,0,2.1C1352,486.9,1352,487.3,1352,487.6z"/>
	<path class="st0" d="M1500.2,521.5c-10.9-2.6-20.7-7.9-28.6-15.3c-11.9-10.9-19.6-26.3-20.6-43.4c-0.1-2.2-1.9-3.8-4.1-3.8h-26.4
		c-2.3,0-4.2,1.9-4.1,4.2c0.8,19.1,7,36.8,17.2,51.6c5.7,8.3,12.7,15.8,20.7,22c7.2,5.6,15.1,10.2,23.6,13.7
		c1.3,0.5,2.9,0.4,4.1-0.5c8.3-6.1,15.4-13.7,20.8-22.5C1504.2,525.3,1502.9,522.1,1500.2,521.5z"/>
	<path class="st0" d="M1511.8,461.8c-0.5-1.6-2.1-2.8-3.9-2.8h-23c-2.5,0-4.4,2.2-4.1,4.7c2.1,15.3,14.1,27.4,29.4,29.6
		c2.1,0.3,4-1,4.6-3c0.1-1.9,0.2-3.9,0.2-5.8c0-7.7-1.1-15.2-3.1-22.2C1511.9,462.1,1511.9,462,1511.8,461.8z"/>
	<path class="st0" d="M1502.6,372.4c-5.5-8.7-12.5-16.4-20.8-22.5c-1.2-0.9-2.7-1-4-0.5c-7.2,2.9-14.1,6.7-20.3,11.2
		c-1.8,1.3-2.2,3.9-0.9,5.7c5,7,9.3,14.5,12.8,22.4c1.1,2.4,4.2,3.2,6.3,1.5c7.1-5.5,15.4-9.6,24.4-11.7
		C1502.8,377.9,1504.1,374.7,1502.6,372.4z"/>
	<path class="st0" d="M1514.9,412.4c0-0.2,0-0.4,0-0.5c0-0.4,0-0.8-0.1-1.2c0,0,0,0,0-0.1v0c-0.2-2.4-2.4-4.1-4.7-3.8
		c-15.3,2.2-27.3,14.3-29.4,29.6c-0.3,2.5,1.6,4.7,4.1,4.7h23.1c1.8,0,3.4-1.2,3.9-2.9c0.1-0.1,0.1-0.3,0.1-0.4
		c2-7,3.1-14.5,3.1-22.1v-0.1c0-0.7,0-1.4,0-2.1C1515,413.1,1515,412.7,1514.9,412.4z"/>
	<path class="st0" d="M1366.8,378.5c10.9,2.6,20.7,7.9,28.6,15.3c11.9,10.9,19.6,26.3,20.6,43.4c0.1,2.2,1.9,3.8,4.1,3.8h26.4
		c2.3,0,4.2-1.9,4.1-4.2c-0.8-19.1-7-36.8-17.2-51.6c-5.7-8.3-12.7-15.8-20.7-22c-7.2-5.6-15.1-10.2-23.6-13.7
		c-1.3-0.5-2.9-0.4-4.1,0.5c-8.3,6.1-15.4,13.7-20.8,22.5C1362.8,374.7,1364.1,377.9,1366.8,378.5z"/>
	<path class="st0" d="M1355.2,438.2c0.5,1.6,2.1,2.8,3.9,2.8h23c2.5,0,4.4-2.2,4.1-4.7c-2.1-15.3-14.1-27.4-29.4-29.6
		c-2.1-0.3-4,1-4.6,3c-0.1,1.9-0.2,3.9-0.2,5.8c0,7.7,1.1,15.2,3.1,22.2C1355.1,437.9,1355.1,438,1355.2,438.2z"/>
	<path class="st0" d="M1288.3,511.3c-3.5,7.9-7.8,15.4-12.8,22.4c-1.3,1.8-0.9,4.4,0.9,5.7c6.3,4.5,13.1,8.3,20.3,11.2
		c1.3,0.5,2.9,0.4,4-0.5c8.3-6.1,15.4-13.7,20.8-22.5c1.5-2.4,0.2-5.5-2.6-6.1c-9-2.2-17.3-6.2-24.4-11.7
		C1292.5,508.1,1289.4,508.8,1288.3,511.3z"/>
	<path class="st0" d="M1333.8,489.5L1333.8,489.5C1333.8,489.4,1333.9,489.4,1333.8,489.5c0-0.5,0.1-0.9,0.1-1.3c0-0.2,0-0.4,0-0.5
		c0-0.3,0-0.7,0-1.1c0-0.7,0-1.4,0-2.1v-0.1c0-7.7-1.1-15.1-3.1-22.1c0-0.1-0.1-0.3-0.1-0.4c-0.5-1.7-2.1-2.9-3.9-2.9h-23.1
		c-2.5,0-4.4,2.2-4.1,4.7c2.1,15.3,14.1,27.4,29.4,29.6C1331.5,493.6,1333.7,491.9,1333.8,489.5z"/>
	<path class="st0" d="M1183.3,527.6c5.5,8.7,12.5,16.4,20.8,22.5c1.2,0.9,2.7,1,4.1,0.5c8.5-3.5,16.5-8.1,23.6-13.7
		c8-6.2,14.9-13.7,20.7-22c10.2-14.8,16.4-32.5,17.2-51.6c0.1-2.3-1.8-4.2-4.1-4.2h-26.4c-2.2,0-4,1.7-4.1,3.8
		c-1,17.1-8.7,32.5-20.6,43.4c-7.9,7.3-17.7,12.7-28.6,15.3C1183.1,522.1,1181.8,525.3,1183.3,527.6z"/>
	<path class="st0" d="M1175.8,493.2c15.3-2.2,27.3-14.3,29.4-29.6c0.3-2.5-1.6-4.7-4.1-4.7h-23c-1.8,0-3.4,1.2-3.9,2.8
		c-0.1,0.1-0.1,0.3-0.1,0.5c-2,7.1-3.1,14.5-3.1,22.2c0,2,0.1,3.9,0.2,5.8C1171.7,492.2,1173.7,493.5,1175.8,493.2z"/>
	<path class="st0" d="M1185.9,378.5c9,2.2,17.3,6.2,24.4,11.7c2.1,1.6,5.2,0.9,6.3-1.5c3.5-7.9,7.8-15.4,12.8-22.4
		c1.3-1.8,0.9-4.4-0.9-5.7c-6.3-4.5-13.1-8.3-20.3-11.2c-1.3-0.5-2.9-0.4-4,0.5c-8.3,6.1-15.4,13.7-20.8,22.5
		C1181.9,374.7,1183.2,377.9,1185.9,378.5z"/>
	<path class="st0" d="M1174.2,438.2c0.5,1.7,2.1,2.9,3.9,2.9h23.1c2.5,0,4.4-2.2,4.1-4.7c-2.1-15.3-14.1-27.4-29.4-29.6
		c-2.4-0.3-4.6,1.4-4.7,3.8v0c0,0,0,0,0,0.1c0,0.4-0.1,0.8-0.1,1.2c0,0.2,0,0.4,0,0.5c0,0.3,0,0.7,0,1.1c0,0.7,0,1.4,0,2.1v0.1
		c0,7.7,1.1,15.1,3.1,22.1C1174.1,437.9,1174.1,438,1174.2,438.2z"/>
	<path class="st0" d="M1321.7,372.4c-5.5-8.7-12.5-16.4-20.8-22.5c-1.2-0.9-2.7-1-4.1-0.5c-8.5,3.5-16.5,8.1-23.6,13.7
		c-8,6.2-14.9,13.7-20.7,22c-10.2,14.8-16.4,32.5-17.2,51.6c-0.1,2.3,1.8,4.2,4.1,4.2h26.4c2.2,0,4-1.7,4.1-3.8
		c1-17.1,8.7-32.5,20.6-43.4c7.9-7.3,17.7-12.7,28.6-15.3C1321.9,377.9,1323.2,374.7,1321.7,372.4z"/>
	<path class="st0" d="M1333.8,409.7c-0.5-2-2.5-3.3-4.6-3c-15.3,2.2-27.3,14.3-29.4,29.6c-0.3,2.5,1.6,4.7,4.1,4.7h23
		c1.8,0,3.4-1.2,3.9-2.8c0.1-0.1,0.1-0.3,0.1-0.5c2-7.1,3.1-14.5,3.1-22.2C1334,413.6,1333.9,411.6,1333.8,409.7z"/>
	<path class="st0" d="M1210.4,729.5c-7.1,5.5-15.4,9.6-24.4,11.7c-2.7,0.6-4,3.8-2.6,6.1c5.5,8.7,12.5,16.4,20.8,22.5
		c1.2,0.9,2.7,1,4,0.5c7.2-2.9,14.1-6.7,20.3-11.2c1.8-1.3,2.2-3.9,0.9-5.7c-5-7-9.3-14.5-12.8-22.4
		C1215.6,728.6,1212.5,727.9,1210.4,729.5z"/>
	<path class="st0" d="M1175.9,713c15.3-2.2,27.3-14.3,29.4-29.6c0.3-2.5-1.6-4.7-4.1-4.7h-23.1c-1.8,0-3.4,1.2-3.9,2.9
		c-0.1,0.1-0.1,0.3-0.1,0.4c-2,7-3.1,14.5-3.1,22.1v0.1c0,0.7,0,1.4,0,2.1c0,0.3,0,0.7,0,1.1c0,0.2,0,0.4,0,0.5c0,0.4,0,0.8,0.1,1.2
		c0,0,0,0,0,0.1v0C1171.3,711.6,1173.5,713.3,1175.9,713z"/>
	<path class="st0" d="M1319.2,741.2c-10.9-2.6-20.7-7.9-28.6-15.3c-11.9-10.9-19.6-26.3-20.6-43.4c-0.1-2.2-1.9-3.8-4.1-3.8h-26.4
		c-2.3,0-4.2,1.9-4.1,4.2c0.8,19.1,7,36.8,17.2,51.6c5.7,8.3,12.7,15.8,20.7,22c7.2,5.6,15.1,10.2,23.6,13.7
		c1.3,0.5,2.9,0.4,4.1-0.5c8.3-6.1,15.4-13.7,20.8-22.5C1323.2,745,1321.9,741.9,1319.2,741.2z"/>
	<path class="st0" d="M1330.8,681.5c-0.5-1.6-2.1-2.8-3.9-2.8h-23c-2.5,0-4.4,2.2-4.1,4.7c2.1,15.3,14.1,27.4,29.4,29.6
		c2.1,0.3,4-1,4.6-3c0.1-1.9,0.2-3.9,0.2-5.8c0-7.7-1.1-15.2-3.1-22.2C1330.9,681.8,1330.9,681.7,1330.8,681.5z"/>
	<path class="st0" d="M1321.6,592.1c-5.5-8.7-12.5-16.4-20.8-22.5c-1.2-0.9-2.7-1-4-0.5c-7.2,2.9-14.1,6.7-20.3,11.2
		c-1.8,1.3-2.2,3.9-0.9,5.7c5,7,9.3,14.5,12.8,22.4c1.1,2.4,4.2,3.2,6.3,1.5c7.1-5.5,15.4-9.6,24.4-11.7
		C1321.8,597.6,1323.1,594.5,1321.6,592.1z"/>
	<path class="st0" d="M1333.9,632.1c0-0.2,0-0.4,0-0.5c0-0.4,0-0.8-0.1-1.2c0,0,0,0,0-0.1v0c-0.2-2.4-2.4-4.1-4.7-3.8
		c-15.3,2.2-27.3,14.3-29.4,29.6c-0.3,2.5,1.6,4.7,4.1,4.7h23.1c1.8,0,3.4-1.2,3.9-2.9c0.1-0.1,0.1-0.3,0.1-0.4
		c2-7,3.1-14.5,3.1-22.1v-0.1c0-0.7,0-1.4,0-2.1C1334,632.8,1334,632.5,1333.9,632.1z"/>
	<path class="st0" d="M1239.1,660.8h26.4c2.3,0,4.2-1.9,4.1-4.2c-0.8-19.1-7-36.8-17.2-51.6c-5.7-8.3-12.7-15.8-20.7-22
		c-7.2-5.6-15.1-10.2-23.6-13.7c-1.3-0.5-2.9-0.4-4.1,0.5c-8.3,6.1-15.4,13.7-20.8,22.5c-1.5,2.4-0.2,5.5,2.6,6.1
		c10.9,2.6,20.7,7.9,28.6,15.3c11.9,10.9,19.6,26.3,20.6,43.4C1235.2,659.1,1237,660.8,1239.1,660.8z"/>
	<path class="st0" d="M1171.2,629.5c-0.1,1.9-0.2,3.9-0.2,5.8c0,7.7,1.1,15.2,3.1,22.2c0,0.2,0.1,0.3,0.1,0.5
		c0.5,1.6,2.1,2.8,3.9,2.8h23c2.5,0,4.4-2.2,4.1-4.7c-2.1-15.3-14.1-27.4-29.4-29.6C1173.7,626.2,1171.7,627.5,1171.2,629.5z"/>
	<path class="st0" d="M1500.1,741.2c-9-2.2-17.3-6.2-24.4-11.7c-2.1-1.6-5.2-0.9-6.3,1.5c-3.5,7.9-7.8,15.4-12.8,22.4
		c-1.3,1.8-0.9,4.4,0.9,5.7c6.3,4.5,13.1,8.3,20.3,11.2c1.3,0.5,2.9,0.4,4-0.5c8.3-6.1,15.4-13.7,20.8-22.5
		C1504.1,745,1502.8,741.9,1500.1,741.2z"/>
	<path class="st0" d="M1511.8,681.6c-0.5-1.7-2.1-2.9-3.9-2.9h-23.1c-2.5,0-4.4,2.2-4.1,4.7c2.1,15.3,14.1,27.4,29.4,29.6
		c2.4,0.3,4.6-1.4,4.7-3.8v0c0,0,0,0,0-0.1c0-0.4,0.1-0.8,0.1-1.2c0-0.2,0-0.4,0-0.5c0-0.3,0-0.7,0-1.1c0-0.7,0-1.4,0-2.1v-0.1
		c0-7.7-1.1-15.1-3.1-22.1C1511.9,681.8,1511.9,681.7,1511.8,681.6z"/>
	<path class="st0" d="M1364.3,747.4c5.5,8.7,12.5,16.4,20.8,22.5c1.2,0.9,2.7,1,4.1,0.5c8.5-3.5,16.5-8.1,23.6-13.7
		c8-6.2,14.9-13.7,20.7-22c10.2-14.8,16.4-32.5,17.2-51.6c0.1-2.3-1.8-4.2-4.1-4.2h-26.4c-2.2,0-4,1.7-4.1,3.8
		c-1,17.1-8.7,32.5-20.6,43.4c-7.9,7.3-17.7,12.7-28.6,15.3C1364.1,741.9,1362.8,745,1364.3,747.4z"/>
	<path class="st0" d="M1356.8,713c15.3-2.2,27.3-14.3,29.4-29.6c0.3-2.5-1.6-4.7-4.1-4.7h-23c-1.8,0-3.4,1.2-3.9,2.8
		c-0.1,0.1-0.1,0.3-0.1,0.5c-2,7.1-3.1,14.5-3.1,22.2c0,2,0.1,3.9,0.2,5.8C1352.7,712,1354.7,713.3,1356.8,713z"/>
	<path class="st0" d="M1366.9,598.2c9,2.2,17.3,6.2,24.4,11.7c2.1,1.6,5.2,0.9,6.3-1.5c3.5-7.9,7.8-15.4,12.8-22.4
		c1.3-1.8,0.9-4.4-0.9-5.7c-6.3-4.5-13.1-8.3-20.3-11.2c-1.3-0.5-2.9-0.4-4,0.5c-8.3,6.1-15.4,13.7-20.8,22.5
		C1362.9,594.5,1364.2,597.6,1366.9,598.2z"/>
	<path class="st0" d="M1355.2,657.9c0.5,1.7,2.1,2.9,3.9,2.9h23.1c2.5,0,4.4-2.2,4.1-4.7c-2.1-15.3-14.1-27.4-29.4-29.6
		c-2.4-0.3-4.6,1.4-4.7,3.8v0c0,0,0,0,0,0.1c0,0.4-0.1,0.8-0.1,1.2c0,0.2,0,0.4,0,0.5c0,0.3,0,0.7,0,1.1c0,0.7,0,1.4,0,2.1v0.1
		c0,7.7,1.1,15.1,3.1,22.1C1355.1,657.6,1355.1,657.8,1355.2,657.9z"/>
	<path class="st0" d="M1502.7,592.1c-5.5-8.7-12.5-16.4-20.8-22.5c-1.2-0.9-2.7-1-4.1-0.5c-8.5,3.5-16.5,8.1-23.6,13.7
		c-8,6.2-14.9,13.7-20.7,22c-10.2,14.8-16.4,32.5-17.2,51.6c-0.1,2.3,1.8,4.2,4.1,4.2h26.4c2.2,0,4-1.7,4.1-3.8
		c1-17.1,8.7-32.5,20.6-43.4c7.9-7.3,17.7-12.7,28.6-15.3C1502.9,597.6,1504.2,594.5,1502.7,592.1z"/>
	<path class="st0" d="M1510.2,626.5c-15.3,2.2-27.3,14.3-29.4,29.6c-0.3,2.5,1.6,4.7,4.1,4.7h23c1.8,0,3.4-1.2,3.9-2.8
		c0.1-0.1,0.1-0.3,0.1-0.5c2-7.1,3.1-14.5,3.1-22.2c0-2-0.1-3.9-0.2-5.8C1514.3,627.5,1512.3,626.2,1510.2,626.5z"/>
	<path class="st0" d="M1502.6,811.8c-5.5-8.7-12.5-16.4-20.8-22.5c-1.2-0.9-2.7-1-4-0.5c-7.2,2.9-14.1,6.7-20.3,11.2
		c-1.8,1.3-2.2,3.9-0.9,5.7c5,7,9.3,14.5,12.8,22.4c1.1,2.4,4.2,3.2,6.3,1.5c7.1-5.5,15.4-9.6,24.4-11.7
		C1502.8,817.3,1504.1,814.2,1502.6,811.8z"/>
	<path class="st0" d="M1514.9,851.8c0-0.2,0-0.4,0-0.5c0-0.4,0-0.8-0.1-1.2c0,0,0,0,0-0.1v0c-0.2-2.4-2.4-4.1-4.7-3.8
		c-15.3,2.2-27.3,14.3-29.4,29.6c-0.3,2.5,1.6,4.7,4.1,4.7h23.1c1.8,0,3.4-1.2,3.9-2.9c0.1-0.1,0.1-0.3,0.1-0.4
		c2-7,3.1-14.5,3.1-22.1v-0.1c0-0.7,0-1.4,0-2.1C1515,852.5,1515,852.2,1514.9,851.8z"/>
	<path class="st0" d="M1420.1,880.5h26.4c2.3,0,4.2-1.9,4.1-4.2c-0.8-19.1-7-36.8-17.2-51.6c-5.7-8.3-12.7-15.8-20.7-22
		c-7.2-5.6-15.1-10.2-23.6-13.7c-1.3-0.5-2.9-0.4-4.1,0.5c-8.3,6.1-15.4,13.7-20.8,22.5c-1.5,2.4-0.2,5.5,2.6,6.1
		c10.9,2.6,20.7,7.9,28.6,15.3c11.9,10.9,19.6,26.3,20.6,43.4C1416.1,878.8,1418,880.5,1420.1,880.5z"/>
	<path class="st0" d="M1355.2,877.7c0.5,1.6,2.1,2.8,3.9,2.8h23c2.5,0,4.4-2.2,4.1-4.7c-2.1-15.3-14.1-27.4-29.4-29.6
		c-2.1-0.3-4,1-4.6,3c-0.1,1.9-0.2,3.9-0.2,5.8c0,7.7,1.1,15.2,3.1,22.2C1355.1,877.4,1355.1,877.5,1355.2,877.7z"/>
	<path class="st0" d="M1185.9,818c9,2.2,17.3,6.2,24.4,11.7c2.1,1.6,5.2,0.9,6.3-1.5c3.5-7.9,7.8-15.4,12.8-22.4
		c1.3-1.8,0.9-4.4-0.9-5.7c-6.3-4.5-13.1-8.3-20.3-11.2c-1.3-0.5-2.9-0.4-4,0.5c-8.3,6.1-15.4,13.7-20.8,22.5
		C1181.9,814.2,1183.2,817.3,1185.9,818z"/>
	<path class="st0" d="M1174.2,877.6c0.5,1.7,2.1,2.9,3.9,2.9h23.1c2.5,0,4.4-2.2,4.1-4.7c-2.1-15.3-14.1-27.4-29.4-29.6
		c-2.4-0.3-4.6,1.4-4.7,3.8v0c0,0,0,0,0,0.1c0,0.4-0.1,0.8-0.1,1.2c0,0.2,0,0.4,0,0.5c0,0.3,0,0.7,0,1.1c0,0.7,0,1.4,0,2.1v0.1
		c0,7.7,1.1,15.1,3.1,22.1C1174.1,877.4,1174.1,877.5,1174.2,877.6z"/>
	<path class="st0" d="M1290.5,833.2c7.9-7.3,17.7-12.7,28.6-15.3c2.7-0.6,4-3.8,2.6-6.1c-5.5-8.7-12.5-16.4-20.8-22.5
		c-1.2-0.9-2.7-1-4.1-0.5c-8.5,3.5-16.5,8.1-23.6,13.7c-8,6.2-14.9,13.7-20.7,22c-10.2,14.8-16.4,32.5-17.2,51.6
		c-0.1,2.3,1.8,4.2,4.1,4.2h26.4c2.2,0,4-1.7,4.1-3.8C1271,859.5,1278.7,844.2,1290.5,833.2z"/>
	<path class="st0" d="M1333.8,849.2c-0.5-2-2.5-3.3-4.6-3c-15.3,2.2-27.3,14.3-29.4,29.6c-0.3,2.5,1.6,4.7,4.1,4.7h23
		c1.8,0,3.4-1.2,3.9-2.8c0.1-0.1,0.1-0.3,0.1-0.5c2-7.1,3.1-14.5,3.1-22.2C1334,853,1333.9,851.1,1333.8,849.2z"/>
	<path class="st0" d="M1002.4,88.2c5.5,8.7,12.5,16.4,20.8,22.5c1.2,0.9,2.7,1,4,0.5c7.2-2.9,14.1-6.7,20.3-11.2
		c1.8-1.3,2.2-3.9,0.9-5.7c-5-7-9.3-14.5-12.8-22.4c-1.1-2.4-4.2-3.2-6.3-1.5c-7.1,5.5-15.4,9.6-24.4,11.7
		C1002.2,82.7,1000.9,85.8,1002.4,88.2z"/>
	<path class="st0" d="M990,48.2c0,0.2,0,0.4,0,0.5c0,0.4,0,0.8,0.1,1.2c0,0,0,0,0,0.1v0c0.2,2.4,2.4,4.1,4.7,3.8
		c15.3-2.2,27.3-14.3,29.4-29.6c0.3-2.5-1.6-4.7-4.1-4.7h-23.1c-1.8,0-3.4,1.2-3.9,2.9c-0.1,0.1-0.1,0.3-0.1,0.4
		c-2,7-3.1,14.5-3.1,22.1v0.1c0,0.7,0,1.4,0,2.1C990,47.5,990,47.8,990,48.2z"/>
	<path class="st0" d="M1138.2,82c-10.9-2.6-20.7-7.9-28.6-15.3c-11.9-10.9-19.6-26.3-20.6-43.4c-0.1-2.2-1.9-3.8-4.1-3.8h-26.4
		c-2.3,0-4.2,1.9-4.1,4.2c0.8,19.1,7,36.8,17.2,51.6c5.7,8.3,12.7,15.8,20.7,22c7.2,5.6,15.1,10.2,23.6,13.7
		c1.3,0.5,2.9,0.4,4.1-0.5c8.3-6.1,15.4-13.7,20.8-22.5C1142.2,85.8,1140.9,82.7,1138.2,82z"/>
	<path class="st0" d="M1149.8,22.3c-0.5-1.6-2.1-2.8-3.9-2.8h-23c-2.5,0-4.4,2.2-4.1,4.7c2.1,15.3,14.1,27.4,29.4,29.6
		c2.1,0.3,4-1,4.6-3c0.1-1.9,0.2-3.9,0.2-5.8c0-7.7-1.1-15.2-3.1-22.2C1149.9,22.6,1149.9,22.5,1149.8,22.3z"/>
	<path class="st0" d="M926.3,71.8c-3.5,7.9-7.8,15.4-12.8,22.4c-1.3,1.8-0.9,4.4,0.9,5.7c6.3,4.5,13.1,8.3,20.3,11.2
		c1.3,0.5,2.9,0.4,4-0.5c8.3-6.1,15.4-13.7,20.8-22.5c1.5-2.4,0.2-5.5-2.6-6.1c-9-2.2-17.3-6.2-24.4-11.7
		C930.5,68.7,927.4,69.4,926.3,71.8z"/>
	<path class="st0" d="M971.9,50L971.9,50C971.9,50,971.9,50,971.9,50c0-0.5,0.1-0.9,0.1-1.3c0-0.2,0-0.4,0-0.5c0-0.3,0-0.7,0-1.1
		c0-0.7,0-1.4,0-2.1v-0.1c0-7.7-1.1-15.1-3.1-22.1c0-0.1-0.1-0.3-0.1-0.4c-0.5-1.7-2.1-2.9-3.9-2.9h-23.1c-2.5,0-4.4,2.2-4.1,4.7
		c2.1,15.3,14.1,27.4,29.4,29.6C969.5,54.1,971.7,52.4,971.9,50z"/>
	<path class="st0" d="M821.3,88.2c5.5,8.7,12.5,16.4,20.8,22.5c1.2,0.9,2.7,1,4.1,0.5c8.5-3.5,16.5-8.1,23.6-13.7
		c8-6.2,14.9-13.7,20.7-22c10.2-14.8,16.4-32.5,17.2-51.6c0.1-2.3-1.8-4.2-4.1-4.2h-26.4c-2.2,0-4,1.7-4.1,3.8
		c-1,17.1-8.7,32.5-20.6,43.4c-7.9,7.3-17.7,12.7-28.6,15.3C821.1,82.7,819.8,85.8,821.3,88.2z"/>
	<path class="st0" d="M813.8,53.8c15.3-2.2,27.3-14.3,29.4-29.6c0.3-2.5-1.6-4.7-4.1-4.7h-23c-1.8,0-3.4,1.2-3.9,2.8
		c-0.1,0.1-0.1,0.3-0.1,0.5c-2,7.1-3.1,14.5-3.1,22.2c0,2,0.1,3.9,0.2,5.8C809.7,52.8,811.7,54.1,813.8,53.8z"/>
	<path class="st0" d="M640.4,88.2c5.5,8.7,12.5,16.4,20.8,22.5c1.2,0.9,2.7,1,4,0.5c7.2-2.9,14.1-6.7,20.3-11.2
		c1.8-1.3,2.2-3.9,0.9-5.7c-5-7-9.3-14.5-12.8-22.4c-1.1-2.4-4.2-3.2-6.3-1.5c-7.1,5.5-15.4,9.6-24.4,11.7
		C640.2,82.7,638.9,85.8,640.4,88.2z"/>
	<path class="st0" d="M628,48.2c0,0.2,0,0.4,0,0.5c0,0.4,0,0.8,0.1,1.2c0,0,0,0,0,0.1v0c0.2,2.4,2.4,4.1,4.7,3.8
		c15.3-2.2,27.3-14.3,29.4-29.6c0.3-2.5-1.6-4.7-4.1-4.7h-23.1c-1.8,0-3.4,1.2-3.9,2.9c-0.1,0.1-0.1,0.3-0.1,0.4
		c-2,7-3.1,14.5-3.1,22.1v0.1c0,0.7,0,1.4,0,2.1C628,47.5,628,47.8,628,48.2z"/>
	<path class="st0" d="M776.2,82c-10.9-2.6-20.7-7.9-28.6-15.3C735.7,55.8,728,40.5,727,23.3c-0.1-2.2-1.9-3.8-4.1-3.8h-26.4
		c-2.3,0-4.2,1.9-4.1,4.2c0.8,19.1,7,36.8,17.2,51.6c5.7,8.3,12.7,15.8,20.7,22c7.2,5.6,15.1,10.2,23.6,13.7
		c1.3,0.5,2.9,0.4,4.1-0.5c8.3-6.1,15.4-13.7,20.8-22.5C780.2,85.8,778.9,82.7,776.2,82z"/>
	<path class="st0" d="M787.8,22.3c-0.5-1.6-2.1-2.8-3.9-2.8h-23c-2.5,0-4.4,2.2-4.1,4.7c2.1,15.3,14.1,27.4,29.4,29.6
		c2.1,0.3,4-1,4.6-3C791,48.9,791,47,791,45c0-7.7-1.1-15.2-3.1-22.2C787.9,22.6,787.9,22.5,787.8,22.3z"/>
	<path class="st0" d="M564.3,71.8c-3.5,7.9-7.8,15.4-12.8,22.4c-1.3,1.8-0.9,4.4,0.9,5.7c6.3,4.5,13.1,8.3,20.3,11.2
		c1.3,0.5,2.9,0.4,4-0.5c8.3-6.1,15.4-13.7,20.8-22.5c1.5-2.4,0.2-5.5-2.6-6.1c-9-2.2-17.3-6.2-24.4-11.7
		C568.5,68.7,565.4,69.4,564.3,71.8z"/>
	<path class="st0" d="M609.9,50L609.9,50C609.9,50,609.9,50,609.9,50c0-0.5,0.1-0.9,0.1-1.3c0-0.2,0-0.4,0-0.5c0-0.3,0-0.7,0-1.1
		c0-0.7,0-1.4,0-2.1v-0.1c0-7.7-1.1-15.1-3.1-22.1c0-0.1-0.1-0.3-0.1-0.4c-0.5-1.7-2.1-2.9-3.9-2.9h-23.1c-2.5,0-4.4,2.2-4.1,4.7
		c2.1,15.3,14.1,27.4,29.4,29.6C607.5,54.1,609.7,52.4,609.9,50z"/>
	<path class="st0" d="M459.3,88.2c5.5,8.7,12.5,16.4,20.8,22.5c1.2,0.9,2.7,1,4.1,0.5c8.5-3.5,16.5-8.1,23.6-13.7
		c8-6.2,14.9-13.7,20.7-22c10.2-14.8,16.4-32.5,17.2-51.6c0.1-2.3-1.8-4.2-4.1-4.2h-26.4c-2.2,0-4,1.7-4.1,3.8
		c-1,17.1-8.7,32.5-20.6,43.4c-7.9,7.3-17.7,12.7-28.6,15.3C459.1,82.7,457.8,85.8,459.3,88.2z"/>
	<path class="st0" d="M451.8,53.8c15.3-2.2,27.3-14.3,29.4-29.6c0.3-2.5-1.6-4.7-4.1-4.7h-23c-1.8,0-3.4,1.2-3.9,2.8
		c-0.1,0.1-0.1,0.3-0.1,0.5c-2,7.1-3.1,14.5-3.1,22.2c0,2,0.1,3.9,0.2,5.8C447.7,52.8,449.7,54.1,451.8,53.8z"/>
	<path class="st0" d="M278.4,88.2c5.5,8.7,12.5,16.4,20.8,22.5c1.2,0.9,2.7,1,4,0.5c7.2-2.9,14.1-6.7,20.3-11.2
		c1.8-1.3,2.2-3.9,0.9-5.7c-5-7-9.3-14.5-12.8-22.4c-1.1-2.4-4.2-3.2-6.3-1.5c-7.1,5.5-15.4,9.6-24.4,11.7
		C278.2,82.7,276.9,85.8,278.4,88.2z"/>
	<path class="st0" d="M266.1,48.2c0,0.2,0,0.4,0,0.5c0,0.4,0,0.8,0.1,1.2c0,0,0,0,0,0.1v0c0.2,2.4,2.4,4.1,4.7,3.8
		c15.3-2.2,27.3-14.3,29.4-29.6c0.3-2.5-1.6-4.7-4.1-4.7h-23.1c-1.8,0-3.4,1.2-3.9,2.9c-0.1,0.1-0.1,0.3-0.1,0.4
		c-2,7-3.1,14.5-3.1,22.1v0.1c0,0.7,0,1.4,0,2.1C266,47.5,266,47.8,266.1,48.2z"/>
	<path class="st0" d="M414.2,82c-10.9-2.6-20.7-7.9-28.6-15.3C373.7,55.8,366,40.5,365,23.3c-0.1-2.2-1.9-3.8-4.1-3.8h-26.4
		c-2.3,0-4.2,1.9-4.1,4.2c0.8,19.1,7,36.8,17.2,51.6c5.7,8.3,12.7,15.8,20.7,22c7.2,5.6,15.1,10.2,23.6,13.7
		c1.3,0.5,2.9,0.4,4.1-0.5c8.3-6.1,15.4-13.7,20.8-22.5C418.2,85.8,416.9,82.7,414.2,82z"/>
	<path class="st0" d="M425.8,22.3c-0.5-1.6-2.1-2.8-3.9-2.8h-23c-2.5,0-4.4,2.2-4.1,4.7c2.1,15.3,14.1,27.4,29.4,29.6
		c2.1,0.3,4-1,4.6-3C429,48.9,429,47,429,45c0-7.7-1.1-15.2-3.1-22.2C425.9,22.6,425.9,22.5,425.8,22.3z"/>
	<path class="st0" d="M202.4,71.8c-3.5,7.9-7.8,15.4-12.8,22.4c-1.3,1.8-0.9,4.4,0.9,5.7c6.3,4.5,13.1,8.3,20.3,11.2
		c1.3,0.5,2.9,0.4,4-0.5c8.3-6.1,15.4-13.7,20.8-22.5c1.5-2.4,0.2-5.5-2.6-6.1c-9-2.2-17.3-6.2-24.4-11.7
		C206.5,68.7,203.4,69.4,202.4,71.8z"/>
	<path class="st0" d="M247.9,50L247.9,50C247.9,50,247.9,50,247.9,50c0-0.5,0.1-0.9,0.1-1.3c0-0.2,0-0.4,0-0.5c0-0.3,0-0.7,0-1.1
		c0-0.7,0-1.4,0-2.1v-0.1c0-7.7-1.1-15.1-3.1-22.1c0-0.1-0.1-0.3-0.1-0.4c-0.5-1.7-2.1-2.9-3.9-2.9h-23.1c-2.5,0-4.4,2.2-4.1,4.7
		c2.1,15.3,14.1,27.4,29.4,29.6C245.5,54.1,247.7,52.4,247.9,50z"/>
	<path class="st0" d="M97.3,88.2c5.5,8.7,12.5,16.4,20.8,22.5c1.2,0.9,2.7,1,4.1,0.5c8.5-3.5,16.5-8.1,23.6-13.7
		c8-6.2,14.9-13.7,20.7-22c10.2-14.8,16.4-32.5,17.2-51.6c0.1-2.3-1.8-4.2-4.1-4.2h-26.4c-2.2,0-4,1.7-4.1,3.8
		c-1,17.1-8.7,32.5-20.6,43.4c-7.9,7.3-17.7,12.7-28.6,15.3C97.1,82.7,95.8,85.8,97.3,88.2z"/>
	<path class="st0" d="M89.8,53.8c15.3-2.2,27.3-14.3,29.4-29.6c0.3-2.5-1.6-4.7-4.1-4.7h-23c-1.8,0-3.4,1.2-3.9,2.8
		c-0.1,0.1-0.1,0.3-0.1,0.5C86.1,29.8,85,37.3,85,45c0,2,0.1,3.9,0.2,5.8C85.7,52.8,87.7,54.1,89.8,53.8z"/>
	<path class="st0" d="M124.4,290c-7.1,5.5-15.4,9.6-24.4,11.7c-2.7,0.6-4,3.8-2.6,6.1c5.5,8.7,12.5,16.4,20.8,22.5
		c1.2,0.9,2.7,1,4,0.5c7.2-2.9,14.1-6.7,20.3-11.2c1.8-1.3,2.2-3.9,0.9-5.7c-5-7-9.3-14.5-12.8-22.4
		C129.6,289.1,126.5,288.4,124.4,290z"/>
	<path class="st0" d="M89.9,273.5c15.3-2.2,27.3-14.3,29.4-29.6c0.3-2.5-1.6-4.7-4.1-4.7H92.1c-1.8,0-3.4,1.2-3.9,2.9
		c-0.1,0.1-0.1,0.3-0.1,0.4c-2,7-3.1,14.5-3.1,22.1v0.1c0,0.7,0,1.4,0,2.1c0,0.3,0,0.7,0,1.1c0,0.2,0,0.4,0,0.5c0,0.4,0,0.8,0.1,1.2
		c0,0,0,0,0,0.1v0C85.3,272.1,87.5,273.8,89.9,273.5z"/>
	<path class="st0" d="M233.2,301.8c-10.9-2.6-20.7-7.9-28.6-15.3c-11.9-10.9-19.6-26.3-20.6-43.4c-0.1-2.2-1.9-3.8-4.1-3.8h-26.4
		c-2.3,0-4.2,1.9-4.1,4.2c0.8,19.1,7,36.8,17.2,51.6c5.7,8.3,12.7,15.8,20.7,22c7.2,5.6,15.1,10.2,23.6,13.7
		c1.3,0.5,2.9,0.4,4.1-0.5c8.3-6.1,15.4-13.7,20.8-22.5C237.2,305.5,235.9,302.4,233.2,301.8z"/>
	<path class="st0" d="M244.8,242.1c-0.5-1.6-2.1-2.8-3.9-2.8h-23c-2.5,0-4.4,2.2-4.1,4.7c2.1,15.3,14.1,27.4,29.4,29.6
		c2.1,0.3,4-1,4.6-3c0.1-1.9,0.2-3.9,0.2-5.8c0-7.7-1.1-15.2-3.1-22.2C244.9,242.4,244.9,242.2,244.8,242.1z"/>
	<path class="st0" d="M235.6,152.6c-5.5-8.7-12.5-16.4-20.8-22.5c-1.2-0.9-2.7-1-4-0.5c-7.2,2.9-14.1,6.7-20.3,11.2
		c-1.8,1.3-2.2,3.9-0.9,5.7c5,7,9.3,14.5,12.8,22.4c1.1,2.4,4.2,3.2,6.3,1.5c7.1-5.5,15.4-9.6,24.4-11.7
		C235.8,158.1,237.1,155,235.6,152.6z"/>
	<path class="st0" d="M248,192.6c0-0.2,0-0.4,0-0.5c0-0.4,0-0.8-0.1-1.2c0,0,0,0,0-0.1v0c-0.2-2.4-2.4-4.1-4.7-3.8
		c-15.3,2.2-27.3,14.3-29.4,29.6c-0.3,2.5,1.6,4.7,4.1,4.7h23.1c1.8,0,3.4-1.2,3.9-2.9c0.1-0.1,0.1-0.3,0.1-0.4
		c2-7,3.1-14.5,3.1-22.1v-0.1c0-0.7,0-1.4,0-2.1C248,193.4,248,193,248,192.6z"/>
	<path class="st0" d="M153.2,221.3h26.4c2.3,0,4.2-1.9,4.1-4.2c-0.8-19.1-7-36.8-17.2-51.6c-5.7-8.3-12.7-15.8-20.7-22
		c-7.2-5.6-15.1-10.2-23.6-13.7c-1.3-0.5-2.9-0.4-4.1,0.5c-8.3,6.1-15.4,13.7-20.8,22.5c-1.5,2.4-0.2,5.5,2.6,6.1
		c10.9,2.6,20.7,7.9,28.6,15.3c11.9,10.9,19.6,26.3,20.6,43.4C149.2,219.6,151,221.3,153.2,221.3z"/>
	<path class="st0" d="M85.2,190c-0.1,1.9-0.2,3.9-0.2,5.8c0,7.7,1.1,15.2,3.1,22.2c0,0.2,0.1,0.3,0.1,0.5c0.5,1.6,2.1,2.8,3.9,2.8
		h23c2.5,0,4.4-2.2,4.1-4.7c-2.1-15.3-14.1-27.4-29.4-29.6C87.7,186.7,85.7,188,85.2,190z"/>
	<path class="st0" d="M414.1,301.8c-9-2.2-17.3-6.2-24.4-11.7c-2.1-1.6-5.2-0.9-6.3,1.5c-3.5,7.9-7.8,15.4-12.8,22.4
		c-1.3,1.8-0.9,4.4,0.9,5.7c6.3,4.5,13.1,8.3,20.3,11.2c1.3,0.5,2.9,0.4,4-0.5c8.3-6.1,15.4-13.7,20.8-22.5
		C418.1,305.5,416.8,302.4,414.1,301.8z"/>
	<path class="st0" d="M425.8,242.1c-0.5-1.7-2.1-2.9-3.9-2.9h-23.1c-2.5,0-4.4,2.2-4.1,4.7c2.1,15.3,14.1,27.4,29.4,29.6
		c2.4,0.3,4.6-1.4,4.7-3.8v0c0,0,0,0,0-0.1c0-0.4,0.1-0.8,0.1-1.2c0-0.2,0-0.4,0-0.5c0-0.3,0-0.7,0-1.1c0-0.7,0-1.4,0-2.1v-0.1
		c0-7.7-1.1-15.1-3.1-22.1C425.9,242.4,425.9,242.2,425.8,242.1z"/>
	<path class="st0" d="M278.3,307.9c5.5,8.7,12.5,16.4,20.8,22.5c1.2,0.9,2.7,1,4.1,0.5c8.5-3.5,16.5-8.1,23.6-13.7
		c8-6.2,14.9-13.7,20.7-22c10.2-14.8,16.4-32.5,17.2-51.6c0.1-2.3-1.8-4.2-4.1-4.2h-26.4c-2.2,0-4,1.7-4.1,3.8
		c-1,17.1-8.7,32.5-20.6,43.4c-7.9,7.3-17.7,12.7-28.6,15.3C278.1,302.4,276.8,305.5,278.3,307.9z"/>
	<path class="st0" d="M270.8,273.5c15.3-2.2,27.3-14.3,29.4-29.6c0.3-2.5-1.6-4.7-4.1-4.7h-23c-1.8,0-3.4,1.2-3.9,2.8
		c-0.1,0.1-0.1,0.3-0.1,0.5c-2,7.1-3.1,14.5-3.1,22.2c0,2,0.1,3.9,0.2,5.8C266.7,272.5,268.7,273.8,270.8,273.5z"/>
	<path class="st0" d="M280.9,158.8c9,2.2,17.3,6.2,24.4,11.7c2.1,1.6,5.2,0.9,6.3-1.5c3.5-7.9,7.8-15.4,12.8-22.4
		c1.3-1.8,0.9-4.4-0.9-5.7c-6.3-4.5-13.1-8.3-20.3-11.2c-1.3-0.5-2.9-0.4-4,0.5c-8.3,6.1-15.4,13.7-20.8,22.5
		C276.9,155,278.2,158.1,280.9,158.8z"/>
	<path class="st0" d="M269.2,218.4c0.5,1.7,2.1,2.9,3.9,2.9h23.1c2.5,0,4.4-2.2,4.1-4.7c-2.1-15.3-14.1-27.4-29.4-29.6
		c-2.4-0.3-4.6,1.4-4.7,3.8v0c0,0,0,0,0,0.1c0,0.4-0.1,0.8-0.1,1.2c0,0.2,0,0.4,0,0.5c0,0.3,0,0.7,0,1.1c0,0.7,0,1.4,0,2.1v0.1
		c0,7.7,1.1,15.1,3.1,22.1C269.1,218.2,269.1,218.3,269.2,218.4z"/>
	<path class="st0" d="M416.7,152.6c-5.5-8.7-12.5-16.4-20.8-22.5c-1.2-0.9-2.7-1-4.1-0.5c-8.5,3.5-16.5,8.1-23.6,13.7
		c-8,6.2-14.9,13.7-20.7,22c-10.2,14.8-16.4,32.5-17.2,51.6c-0.1,2.3,1.8,4.2,4.1,4.2h26.4c2.2,0,4-1.7,4.1-3.8
		c1-17.1,8.7-32.5,20.6-43.4c7.9-7.3,17.7-12.7,28.6-15.3C416.9,158.1,418.2,155,416.7,152.6z"/>
	<path class="st0" d="M424.2,187c-15.3,2.2-27.3,14.3-29.4,29.6c-0.3,2.5,1.6,4.7,4.1,4.7h23c1.8,0,3.4-1.2,3.9-2.8
		c0.1-0.1,0.1-0.3,0.1-0.5c2-7.1,3.1-14.5,3.1-22.2c0-2-0.1-3.9-0.2-5.8C428.3,188,426.3,186.7,424.2,187z"/>
	<path class="st0" d="M486.4,290c-7.1,5.5-15.4,9.6-24.4,11.7c-2.7,0.6-4,3.8-2.6,6.1c5.5,8.7,12.5,16.4,20.8,22.5
		c1.2,0.9,2.7,1,4,0.5c7.2-2.9,14.1-6.7,20.3-11.2c1.8-1.3,2.2-3.9,0.9-5.7c-5-7-9.3-14.5-12.8-22.4
		C491.6,289.1,488.5,288.4,486.4,290z"/>
	<path class="st0" d="M451.9,273.5c15.3-2.2,27.3-14.3,29.4-29.6c0.3-2.5-1.6-4.7-4.1-4.7h-23.1c-1.8,0-3.4,1.2-3.9,2.9
		c-0.1,0.1-0.1,0.3-0.1,0.4c-2,7-3.1,14.5-3.1,22.1v0.1c0,0.7,0,1.4,0,2.1c0,0.3,0,0.7,0,1.1c0,0.2,0,0.4,0,0.5c0,0.4,0,0.8,0.1,1.2
		c0,0,0,0,0,0.1v0C447.3,272.1,449.5,273.8,451.9,273.5z"/>
	<path class="st0" d="M595.2,301.8c-10.9-2.6-20.7-7.9-28.6-15.3c-11.9-10.9-19.6-26.3-20.6-43.4c-0.1-2.2-1.9-3.8-4.1-3.8h-26.4
		c-2.3,0-4.2,1.9-4.1,4.2c0.8,19.1,7,36.8,17.2,51.6c5.7,8.3,12.7,15.8,20.7,22c7.2,5.6,15.1,10.2,23.6,13.7
		c1.3,0.5,2.9,0.4,4.1-0.5c8.3-6.1,15.4-13.7,20.8-22.5C599.2,305.5,597.9,302.4,595.2,301.8z"/>
	<path class="st0" d="M606.8,242.1c-0.5-1.6-2.1-2.8-3.9-2.8h-23c-2.5,0-4.4,2.2-4.1,4.7c2.1,15.3,14.1,27.4,29.4,29.6
		c2.1,0.3,4-1,4.6-3c0.1-1.9,0.2-3.9,0.2-5.8c0-7.7-1.1-15.2-3.1-22.2C606.9,242.4,606.9,242.2,606.8,242.1z"/>
	<path class="st0" d="M597.6,152.6c-5.5-8.7-12.5-16.4-20.8-22.5c-1.2-0.9-2.7-1-4-0.5c-7.2,2.9-14.1,6.7-20.3,11.2
		c-1.8,1.3-2.2,3.9-0.9,5.7c5,7,9.3,14.5,12.8,22.4c1.1,2.4,4.2,3.2,6.3,1.5c7.1-5.5,15.4-9.6,24.4-11.7
		C597.8,158.1,599.1,155,597.6,152.6z"/>
	<path class="st0" d="M610,192.6c0-0.2,0-0.4,0-0.5c0-0.4,0-0.8-0.1-1.2c0,0,0,0,0-0.1v0c-0.2-2.4-2.4-4.1-4.7-3.8
		c-15.3,2.2-27.3,14.3-29.4,29.6c-0.3,2.5,1.6,4.7,4.1,4.7h23.1c1.8,0,3.4-1.2,3.9-2.9c0.1-0.1,0.1-0.3,0.1-0.4
		c2-7,3.1-14.5,3.1-22.1v-0.1c0-0.7,0-1.4,0-2.1C610,193.4,610,193,610,192.6z"/>
	<path class="st0" d="M515.1,221.3h26.4c2.3,0,4.2-1.9,4.1-4.2c-0.8-19.1-7-36.8-17.2-51.6c-5.7-8.3-12.7-15.8-20.7-22
		c-7.2-5.6-15.1-10.2-23.6-13.7c-1.3-0.5-2.9-0.4-4.1,0.5c-8.3,6.1-15.4,13.7-20.8,22.5c-1.5,2.4-0.2,5.5,2.6,6.1
		c10.9,2.6,20.7,7.9,28.6,15.3c11.9,10.9,19.6,26.3,20.6,43.4C511.2,219.6,513,221.3,515.1,221.3z"/>
	<path class="st0" d="M447.2,190c-0.1,1.9-0.2,3.9-0.2,5.8c0,7.7,1.1,15.2,3.1,22.2c0,0.2,0.1,0.3,0.1,0.5c0.5,1.6,2.1,2.8,3.9,2.8
		h23c2.5,0,4.4-2.2,4.1-4.7c-2.1-15.3-14.1-27.4-29.4-29.6C449.7,186.7,447.7,188,447.2,190z"/>
	<path class="st0" d="M776.1,301.8c-9-2.2-17.3-6.2-24.4-11.7c-2.1-1.6-5.2-0.9-6.3,1.5c-3.5,7.9-7.8,15.4-12.8,22.4
		c-1.3,1.8-0.9,4.4,0.9,5.7c6.3,4.5,13.1,8.3,20.3,11.2c1.3,0.5,2.9,0.4,4-0.5c8.3-6.1,15.4-13.7,20.8-22.5
		C780.1,305.5,778.8,302.4,776.1,301.8z"/>
	<path class="st0" d="M787.8,242.1c-0.5-1.7-2.1-2.9-3.9-2.9h-23.1c-2.5,0-4.4,2.2-4.1,4.7c2.1,15.3,14.1,27.4,29.4,29.6
		c2.4,0.3,4.6-1.4,4.7-3.8v0c0,0,0,0,0-0.1c0-0.4,0.1-0.8,0.1-1.2c0-0.2,0-0.4,0-0.5c0-0.3,0-0.7,0-1.1c0-0.7,0-1.4,0-2.1v-0.1
		c0-7.7-1.1-15.1-3.1-22.1C787.9,242.4,787.9,242.2,787.8,242.1z"/>
	<path class="st0" d="M640.3,307.9c5.5,8.7,12.5,16.4,20.8,22.5c1.2,0.9,2.7,1,4.1,0.5c8.5-3.5,16.5-8.1,23.6-13.7
		c8-6.2,14.9-13.7,20.7-22c10.2-14.8,16.4-32.5,17.2-51.6c0.1-2.3-1.8-4.2-4.1-4.2h-26.4c-2.2,0-4,1.7-4.1,3.8
		c-1,17.1-8.7,32.5-20.6,43.4c-7.9,7.3-17.7,12.7-28.6,15.3C640.1,302.4,638.8,305.5,640.3,307.9z"/>
	<path class="st0" d="M632.8,273.5c15.3-2.2,27.3-14.3,29.4-29.6c0.3-2.5-1.6-4.7-4.1-4.7h-23c-1.8,0-3.4,1.2-3.9,2.8
		c-0.1,0.1-0.1,0.3-0.1,0.5c-2,7.1-3.1,14.5-3.1,22.2c0,2,0.1,3.9,0.2,5.8C628.7,272.5,630.7,273.8,632.8,273.5z"/>
	<path class="st0" d="M642.9,158.8c9,2.2,17.3,6.2,24.4,11.7c2.1,1.6,5.2,0.9,6.3-1.5c3.5-7.9,7.8-15.4,12.8-22.4
		c1.3-1.8,0.9-4.4-0.9-5.7c-6.3-4.5-13.1-8.3-20.3-11.2c-1.3-0.5-2.9-0.4-4,0.5c-8.3,6.1-15.4,13.7-20.8,22.5
		C638.9,155,640.2,158.1,642.9,158.8z"/>
	<path class="st0" d="M631.2,218.4c0.5,1.7,2.1,2.9,3.9,2.9h23.1c2.5,0,4.4-2.2,4.1-4.7c-2.1-15.3-14.1-27.4-29.4-29.6
		c-2.4-0.3-4.6,1.4-4.7,3.8v0c0,0,0,0,0,0.1c0,0.4-0.1,0.8-0.1,1.2c0,0.2,0,0.4,0,0.5c0,0.3,0,0.7,0,1.1c0,0.7,0,1.4,0,2.1v0.1
		c0,7.7,1.1,15.1,3.1,22.1C631.1,218.2,631.1,218.3,631.2,218.4z"/>
	<path class="st0" d="M778.7,152.6c-5.5-8.7-12.5-16.4-20.8-22.5c-1.2-0.9-2.7-1-4.1-0.5c-8.5,3.5-16.5,8.1-23.6,13.7
		c-8,6.2-14.9,13.7-20.7,22c-10.2,14.8-16.4,32.5-17.2,51.6c-0.1,2.3,1.8,4.2,4.1,4.2h26.4c2.2,0,4-1.7,4.1-3.8
		c1-17.1,8.7-32.5,20.6-43.4c7.9-7.3,17.7-12.7,28.6-15.3C778.9,158.1,780.2,155,778.7,152.6z"/>
	<path class="st0" d="M786.2,187c-15.3,2.2-27.3,14.3-29.4,29.6c-0.3,2.5,1.6,4.7,4.1,4.7h23c1.8,0,3.4-1.2,3.9-2.8
		c0.1-0.1,0.1-0.3,0.1-0.5c2-7.1,3.1-14.5,3.1-22.2c0-2-0.1-3.9-0.2-5.8C790.3,188,788.3,186.7,786.2,187z"/>
	<path class="st0" d="M848.4,290c-7.1,5.5-15.4,9.6-24.4,11.7c-2.7,0.6-4,3.8-2.6,6.1c5.5,8.7,12.5,16.4,20.8,22.5
		c1.2,0.9,2.7,1,4,0.5c7.2-2.9,14.1-6.7,20.3-11.2c1.8-1.3,2.2-3.9,0.9-5.7c-5-7-9.3-14.5-12.8-22.4
		C853.6,289.1,850.5,288.4,848.4,290z"/>
	<path class="st0" d="M813.9,273.5c15.3-2.2,27.3-14.3,29.4-29.6c0.3-2.5-1.6-4.7-4.1-4.7h-23.1c-1.8,0-3.4,1.2-3.9,2.9
		c-0.1,0.1-0.1,0.3-0.1,0.4c-2,7-3.1,14.5-3.1,22.1v0.1c0,0.7,0,1.4,0,2.1c0,0.3,0,0.7,0,1.1c0,0.2,0,0.4,0,0.5c0,0.4,0,0.8,0.1,1.2
		c0,0,0,0,0,0.1v0C809.3,272.1,811.5,273.8,813.9,273.5z"/>
	<path class="st0" d="M957.2,301.8c-10.9-2.6-20.7-7.9-28.6-15.3c-11.9-10.9-19.6-26.3-20.6-43.4c-0.1-2.2-1.9-3.8-4.1-3.8h-26.4
		c-2.3,0-4.2,1.9-4.1,4.2c0.8,19.1,7,36.8,17.2,51.6c5.7,8.3,12.7,15.8,20.7,22c7.2,5.6,15.1,10.2,23.6,13.7
		c1.3,0.5,2.9,0.4,4.1-0.5c8.3-6.1,15.4-13.7,20.8-22.5C961.2,305.5,959.9,302.4,957.2,301.8z"/>
	<path class="st0" d="M968.8,242.1c-0.5-1.6-2.1-2.8-3.9-2.8h-23c-2.5,0-4.4,2.2-4.1,4.7c2.1,15.3,14.1,27.4,29.4,29.6
		c2.1,0.3,4-1,4.6-3c0.1-1.9,0.2-3.9,0.2-5.8c0-7.7-1.1-15.2-3.1-22.2C968.9,242.4,968.9,242.2,968.8,242.1z"/>
	<path class="st0" d="M959.6,152.6c-5.5-8.7-12.5-16.4-20.8-22.5c-1.2-0.9-2.7-1-4-0.5c-7.2,2.9-14.1,6.7-20.3,11.2
		c-1.8,1.3-2.2,3.9-0.9,5.7c5,7,9.3,14.5,12.8,22.4c1.1,2.4,4.2,3.2,6.3,1.5c7.1-5.5,15.4-9.6,24.4-11.7
		C959.8,158.1,961.1,155,959.6,152.6z"/>
	<path class="st0" d="M972,192.6c0-0.2,0-0.4,0-0.5c0-0.4,0-0.8-0.1-1.2c0,0,0,0,0-0.1v0c-0.2-2.4-2.4-4.1-4.7-3.8
		c-15.3,2.2-27.3,14.3-29.4,29.6c-0.3,2.5,1.6,4.7,4.1,4.7h23.1c1.8,0,3.4-1.2,3.9-2.9c0.1-0.1,0.1-0.3,0.1-0.4
		c2-7,3.1-14.5,3.1-22.1v-0.1c0-0.7,0-1.4,0-2.1C972,193.4,972,193,972,192.6z"/>
	<path class="st0" d="M877.1,221.3h26.4c2.3,0,4.2-1.9,4.1-4.2c-0.8-19.1-7-36.8-17.2-51.6c-5.7-8.3-12.7-15.8-20.7-22
		c-7.2-5.6-15.1-10.2-23.6-13.7c-1.3-0.5-2.9-0.4-4.1,0.5c-8.3,6.1-15.4,13.7-20.8,22.5c-1.5,2.4-0.2,5.5,2.6,6.1
		c10.9,2.6,20.7,7.9,28.6,15.3c11.9,10.9,19.6,26.3,20.6,43.4C873.2,219.6,875,221.3,877.1,221.3z"/>
	<path class="st0" d="M809.2,190c-0.1,1.9-0.2,3.9-0.2,5.8c0,7.7,1.1,15.2,3.1,22.2c0,0.2,0.1,0.3,0.1,0.5c0.5,1.6,2.1,2.8,3.9,2.8
		h23c2.5,0,4.4-2.2,4.1-4.7c-2.1-15.3-14.1-27.4-29.4-29.6C811.7,186.7,809.7,188,809.2,190z"/>
	<path class="st0" d="M1138.1,301.8c-9-2.2-17.3-6.2-24.4-11.7c-2.1-1.6-5.2-0.9-6.3,1.5c-3.5,7.9-7.8,15.4-12.8,22.4
		c-1.3,1.8-0.9,4.4,0.9,5.7c6.3,4.5,13.1,8.3,20.3,11.2c1.3,0.5,2.9,0.4,4-0.5c8.3-6.1,15.4-13.7,20.8-22.5
		C1142.1,305.5,1140.8,302.4,1138.1,301.8z"/>
	<path class="st0" d="M1149.8,242.1c-0.5-1.7-2.1-2.9-3.9-2.9h-23.1c-2.5,0-4.4,2.2-4.1,4.7c2.1,15.3,14.1,27.4,29.4,29.6
		c2.4,0.3,4.6-1.4,4.7-3.8v0c0,0,0,0,0-0.1c0-0.4,0.1-0.8,0.1-1.2c0-0.2,0-0.4,0-0.5c0-0.3,0-0.7,0-1.1c0-0.7,0-1.4,0-2.1v-0.1
		c0-7.7-1.1-15.1-3.1-22.1C1149.9,242.4,1149.9,242.2,1149.8,242.1z"/>
	<path class="st0" d="M1002.3,307.9c5.5,8.7,12.5,16.4,20.8,22.5c1.2,0.9,2.7,1,4.1,0.5c8.5-3.5,16.5-8.1,23.6-13.7
		c8-6.2,14.9-13.7,20.7-22c10.2-14.8,16.4-32.5,17.2-51.6c0.1-2.3-1.8-4.2-4.1-4.2h-26.4c-2.2,0-4,1.7-4.1,3.8
		c-1,17.1-8.7,32.5-20.6,43.4c-7.9,7.3-17.7,12.7-28.6,15.3C1002.1,302.4,1000.8,305.5,1002.3,307.9z"/>
	<path class="st0" d="M994.8,273.5c15.3-2.2,27.3-14.3,29.4-29.6c0.3-2.5-1.6-4.7-4.1-4.7h-23c-1.8,0-3.4,1.2-3.9,2.8
		c-0.1,0.1-0.1,0.3-0.1,0.5c-2,7.1-3.1,14.5-3.1,22.2c0,2,0.1,3.9,0.2,5.8C990.7,272.5,992.7,273.8,994.8,273.5z"/>
	<path class="st0" d="M1004.9,158.8c9,2.2,17.3,6.2,24.4,11.7c2.1,1.6,5.2,0.9,6.3-1.5c3.5-7.9,7.8-15.4,12.8-22.4
		c1.3-1.8,0.9-4.4-0.9-5.7c-6.3-4.5-13.1-8.3-20.3-11.2c-1.3-0.5-2.9-0.4-4,0.5c-8.3,6.1-15.4,13.7-20.8,22.5
		C1000.9,155,1002.2,158.1,1004.9,158.8z"/>
	<path class="st0" d="M993.2,218.4c0.5,1.7,2.1,2.9,3.9,2.9h23.1c2.5,0,4.4-2.2,4.1-4.7c-2.1-15.3-14.1-27.4-29.4-29.6
		c-2.4-0.3-4.6,1.4-4.7,3.8v0c0,0,0,0,0,0.1c0,0.4-0.1,0.8-0.1,1.2c0,0.2,0,0.4,0,0.5c0,0.3,0,0.7,0,1.1c0,0.7,0,1.4,0,2.1v0.1
		c0,7.7,1.1,15.1,3.1,22.1C993.1,218.2,993.1,218.3,993.2,218.4z"/>
	<path class="st0" d="M1140.7,152.6c-5.5-8.7-12.5-16.4-20.8-22.5c-1.2-0.9-2.7-1-4.1-0.5c-8.5,3.5-16.5,8.1-23.6,13.7
		c-8,6.2-14.9,13.7-20.7,22c-10.2,14.8-16.4,32.5-17.2,51.6c-0.1,2.3,1.8,4.2,4.1,4.2h26.4c2.2,0,4-1.7,4.1-3.8
		c1-17.1,8.7-32.5,20.6-43.4c7.9-7.3,17.7-12.7,28.6-15.3C1140.9,158.1,1142.2,155,1140.7,152.6z"/>
	<path class="st0" d="M1148.2,187c-15.3,2.2-27.3,14.3-29.4,29.6c-0.3,2.5,1.6,4.7,4.1,4.7h23c1.8,0,3.4-1.2,3.9-2.8
		c0.1-0.1,0.1-0.3,0.1-0.5c2-7.1,3.1-14.5,3.1-22.2c0-2-0.1-3.9-0.2-5.8C1152.3,188,1150.3,186.7,1148.2,187z"/>
	<path class="st0" d="M1002.4,527.6c5.5,8.7,12.5,16.4,20.8,22.5c1.2,0.9,2.7,1,4,0.5c7.2-2.9,14.1-6.7,20.3-11.2
		c1.8-1.3,2.2-3.9,0.9-5.7c-5-7-9.3-14.5-12.8-22.4c-1.1-2.4-4.2-3.2-6.3-1.5c-7.1,5.5-15.4,9.6-24.4,11.7
		C1002.2,522.1,1000.9,525.3,1002.4,527.6z"/>
	<path class="st0" d="M990,487.6c0,0.2,0,0.4,0,0.5c0,0.4,0,0.8,0.1,1.2c0,0,0,0,0,0.1v0c0.2,2.4,2.4,4.1,4.7,3.8
		c15.3-2.2,27.3-14.3,29.4-29.6c0.3-2.5-1.6-4.7-4.1-4.7h-23.1c-1.8,0-3.4,1.2-3.9,2.9c-0.1,0.1-0.1,0.3-0.1,0.4
		c-2,7-3.1,14.5-3.1,22.1v0.1c0,0.7,0,1.4,0,2.1C990,486.9,990,487.3,990,487.6z"/>
	<path class="st0" d="M1138.2,521.5c-10.9-2.6-20.7-7.9-28.6-15.3c-11.9-10.9-19.6-26.3-20.6-43.4c-0.1-2.2-1.9-3.8-4.1-3.8h-26.4
		c-2.3,0-4.2,1.9-4.1,4.2c0.8,19.1,7,36.8,17.2,51.6c5.7,8.3,12.7,15.8,20.7,22c7.2,5.6,15.1,10.2,23.6,13.7
		c1.3,0.5,2.9,0.4,4.1-0.5c8.3-6.1,15.4-13.7,20.8-22.5C1142.2,525.3,1140.9,522.1,1138.2,521.5z"/>
	<path class="st0" d="M1149.8,461.8c-0.5-1.6-2.1-2.8-3.9-2.8h-23c-2.5,0-4.4,2.2-4.1,4.7c2.1,15.3,14.1,27.4,29.4,29.6
		c2.1,0.3,4-1,4.6-3c0.1-1.9,0.2-3.9,0.2-5.8c0-7.7-1.1-15.2-3.1-22.2C1149.9,462.1,1149.9,462,1149.8,461.8z"/>
	<path class="st0" d="M1140.6,372.4c-5.5-8.7-12.5-16.4-20.8-22.5c-1.2-0.9-2.7-1-4-0.5c-7.2,2.9-14.1,6.7-20.3,11.2
		c-1.8,1.3-2.2,3.9-0.9,5.7c5,7,9.3,14.5,12.8,22.4c1.1,2.4,4.2,3.2,6.3,1.5c7.1-5.5,15.4-9.6,24.4-11.7
		C1140.8,377.9,1142.1,374.7,1140.6,372.4z"/>
	<path class="st0" d="M1152.9,412.4c0-0.2,0-0.4,0-0.5c0-0.4,0-0.8-0.1-1.2c0,0,0,0,0-0.1v0c-0.2-2.4-2.4-4.1-4.7-3.8
		c-15.3,2.2-27.3,14.3-29.4,29.6c-0.3,2.5,1.6,4.7,4.1,4.7h23.1c1.8,0,3.4-1.2,3.9-2.9c0.1-0.1,0.1-0.3,0.1-0.4
		c2-7,3.1-14.5,3.1-22.1v-0.1c0-0.7,0-1.4,0-2.1C1153,413.1,1153,412.7,1152.9,412.4z"/>
	<path class="st0" d="M1004.8,378.5c10.9,2.6,20.7,7.9,28.6,15.3c11.9,10.9,19.6,26.3,20.6,43.4c0.1,2.2,1.9,3.8,4.1,3.8h26.4
		c2.3,0,4.2-1.9,4.1-4.2c-0.8-19.1-7-36.8-17.2-51.6c-5.7-8.3-12.7-15.8-20.7-22c-7.2-5.6-15.1-10.2-23.6-13.7
		c-1.3-0.5-2.9-0.4-4.1,0.5c-8.3,6.1-15.4,13.7-20.8,22.5C1000.8,374.7,1002.1,377.9,1004.8,378.5z"/>
	<path class="st0" d="M993.2,438.2c0.5,1.6,2.1,2.8,3.9,2.8h23c2.5,0,4.4-2.2,4.1-4.7c-2.1-15.3-14.1-27.4-29.4-29.6
		c-2.1-0.3-4,1-4.6,3c-0.1,1.9-0.2,3.9-0.2,5.8c0,7.7,1.1,15.2,3.1,22.2C993.1,437.9,993.1,438,993.2,438.2z"/>
	<path class="st0" d="M926.3,511.3c-3.5,7.9-7.8,15.4-12.8,22.4c-1.3,1.8-0.9,4.4,0.9,5.7c6.3,4.5,13.1,8.3,20.3,11.2
		c1.3,0.5,2.9,0.4,4-0.5c8.3-6.1,15.4-13.7,20.8-22.5c1.5-2.4,0.2-5.5-2.6-6.1c-9-2.2-17.3-6.2-24.4-11.7
		C930.5,508.1,927.4,508.8,926.3,511.3z"/>
	<path class="st0" d="M971.9,489.5L971.9,489.5C971.9,489.4,971.9,489.4,971.9,489.5c0-0.5,0.1-0.9,0.1-1.3c0-0.2,0-0.4,0-0.5
		c0-0.3,0-0.7,0-1.1c0-0.7,0-1.4,0-2.1v-0.1c0-7.7-1.1-15.1-3.1-22.1c0-0.1-0.1-0.3-0.1-0.4c-0.5-1.7-2.1-2.9-3.9-2.9h-23.1
		c-2.5,0-4.4,2.2-4.1,4.7c2.1,15.3,14.1,27.4,29.4,29.6C969.5,493.6,971.7,491.9,971.9,489.5z"/>
	<path class="st0" d="M821.3,527.6c5.5,8.7,12.5,16.4,20.8,22.5c1.2,0.9,2.7,1,4.1,0.5c8.5-3.5,16.5-8.1,23.6-13.7
		c8-6.2,14.9-13.7,20.7-22c10.2-14.8,16.4-32.5,17.2-51.6c0.1-2.3-1.8-4.2-4.1-4.2h-26.4c-2.2,0-4,1.7-4.1,3.8
		c-1,17.1-8.7,32.5-20.6,43.4c-7.9,7.3-17.7,12.7-28.6,15.3C821.1,522.1,819.8,525.3,821.3,527.6z"/>
	<path class="st0" d="M813.8,493.2c15.3-2.2,27.3-14.3,29.4-29.6c0.3-2.5-1.6-4.7-4.1-4.7h-23c-1.8,0-3.4,1.2-3.9,2.8
		c-0.1,0.1-0.1,0.3-0.1,0.5c-2,7.1-3.1,14.5-3.1,22.2c0,2,0.1,3.9,0.2,5.8C809.7,492.2,811.7,493.5,813.8,493.2z"/>
	<path class="st0" d="M823.9,378.5c9,2.2,17.3,6.2,24.4,11.7c2.1,1.6,5.2,0.9,6.3-1.5c3.5-7.9,7.8-15.4,12.8-22.4
		c1.3-1.8,0.9-4.4-0.9-5.7c-6.3-4.5-13.1-8.3-20.3-11.2c-1.3-0.5-2.9-0.4-4,0.5c-8.3,6.1-15.4,13.7-20.8,22.5
		C819.9,374.7,821.2,377.9,823.9,378.5z"/>
	<path class="st0" d="M812.2,438.2c0.5,1.7,2.1,2.9,3.9,2.9h23.1c2.5,0,4.4-2.2,4.1-4.7c-2.1-15.3-14.1-27.4-29.4-29.6
		c-2.4-0.3-4.6,1.4-4.7,3.8v0c0,0,0,0,0,0.1c0,0.4-0.1,0.8-0.1,1.2c0,0.2,0,0.4,0,0.5c0,0.3,0,0.7,0,1.1c0,0.7,0,1.4,0,2.1v0.1
		c0,7.7,1.1,15.1,3.1,22.1C812.1,437.9,812.1,438,812.2,438.2z"/>
	<path class="st0" d="M959.7,372.4c-5.5-8.7-12.5-16.4-20.8-22.5c-1.2-0.9-2.7-1-4.1-0.5c-8.5,3.5-16.5,8.1-23.6,13.7
		c-8,6.2-14.9,13.7-20.7,22c-10.2,14.8-16.4,32.5-17.2,51.6c-0.1,2.3,1.8,4.2,4.1,4.2h26.4c2.2,0,4-1.7,4.1-3.8
		c1-17.1,8.7-32.5,20.6-43.4c7.9-7.3,17.7-12.7,28.6-15.3C959.9,377.9,961.2,374.7,959.7,372.4z"/>
	<path class="st0" d="M971.8,409.7c-0.5-2-2.5-3.3-4.6-3c-15.3,2.2-27.3,14.3-29.4,29.6c-0.3,2.5,1.6,4.7,4.1,4.7h23
		c1.8,0,3.4-1.2,3.9-2.8c0.1-0.1,0.1-0.3,0.1-0.5c2-7.1,3.1-14.5,3.1-22.2C972,413.6,972,411.6,971.8,409.7z"/>
	<path class="st0" d="M640.4,527.6c5.5,8.7,12.5,16.4,20.8,22.5c1.2,0.9,2.7,1,4,0.5c7.2-2.9,14.1-6.7,20.3-11.2
		c1.8-1.3,2.2-3.9,0.9-5.7c-5-7-9.3-14.5-12.8-22.4c-1.1-2.4-4.2-3.2-6.3-1.5c-7.1,5.5-15.4,9.6-24.4,11.7
		C640.2,522.1,638.9,525.3,640.4,527.6z"/>
	<path class="st0" d="M628,487.6c0,0.2,0,0.4,0,0.5c0,0.4,0,0.8,0.1,1.2c0,0,0,0,0,0.1v0c0.2,2.4,2.4,4.1,4.7,3.8
		c15.3-2.2,27.3-14.3,29.4-29.6c0.3-2.5-1.6-4.7-4.1-4.7h-23.1c-1.8,0-3.4,1.2-3.9,2.9c-0.1,0.1-0.1,0.3-0.1,0.4
		c-2,7-3.1,14.5-3.1,22.1v0.1c0,0.7,0,1.4,0,2.1C628,486.9,628,487.3,628,487.6z"/>
	<path class="st0" d="M776.2,521.5c-10.9-2.6-20.7-7.9-28.6-15.3C735.7,495.3,728,480,727,462.8c-0.1-2.2-1.9-3.8-4.1-3.8h-26.4
		c-2.3,0-4.2,1.9-4.1,4.2c0.8,19.1,7,36.8,17.2,51.6c5.7,8.3,12.7,15.8,20.7,22c7.2,5.6,15.1,10.2,23.6,13.7
		c1.3,0.5,2.9,0.4,4.1-0.5c8.3-6.1,15.4-13.7,20.8-22.5C780.2,525.3,778.9,522.1,776.2,521.5z"/>
	<path class="st0" d="M787.8,461.8c-0.5-1.6-2.1-2.8-3.9-2.8h-23c-2.5,0-4.4,2.2-4.1,4.7c2.1,15.3,14.1,27.4,29.4,29.6
		c2.1,0.3,4-1,4.6-3c0.1-1.9,0.2-3.9,0.2-5.8c0-7.7-1.1-15.2-3.1-22.2C787.9,462.1,787.9,462,787.8,461.8z"/>
	<path class="st0" d="M778.6,372.4c-5.5-8.7-12.5-16.4-20.8-22.5c-1.2-0.9-2.7-1-4-0.5c-7.2,2.9-14.1,6.7-20.3,11.2
		c-1.8,1.3-2.2,3.9-0.9,5.7c5,7,9.3,14.5,12.8,22.4c1.1,2.4,4.2,3.2,6.3,1.5c7.1-5.5,15.4-9.6,24.4-11.7
		C778.8,377.9,780.1,374.7,778.6,372.4z"/>
	<path class="st0" d="M791,412.4c0-0.2,0-0.4,0-0.5c0-0.4,0-0.8-0.1-1.2c0,0,0,0,0-0.1v0c-0.2-2.4-2.4-4.1-4.7-3.8
		c-15.3,2.2-27.3,14.3-29.4,29.6c-0.3,2.5,1.6,4.7,4.1,4.7h23.1c1.8,0,3.4-1.2,3.9-2.9c0.1-0.1,0.1-0.3,0.1-0.4
		c2-7,3.1-14.5,3.1-22.1v-0.1c0-0.7,0-1.4,0-2.1C791,413.1,791,412.7,791,412.4z"/>
	<path class="st0" d="M642.8,378.5c10.9,2.6,20.7,7.9,28.6,15.3c11.9,10.9,19.6,26.3,20.6,43.4c0.1,2.2,1.9,3.8,4.1,3.8h26.4
		c2.3,0,4.2-1.9,4.1-4.2c-0.8-19.1-7-36.8-17.2-51.6c-5.7-8.3-12.7-15.8-20.7-22c-7.2-5.6-15.1-10.2-23.6-13.7
		c-1.3-0.5-2.9-0.4-4.1,0.5c-8.3,6.1-15.4,13.7-20.8,22.5C638.8,374.7,640.1,377.9,642.8,378.5z"/>
	<path class="st0" d="M631.2,438.2c0.5,1.6,2.1,2.8,3.9,2.8h23c2.5,0,4.4-2.2,4.1-4.7c-2.1-15.3-14.1-27.4-29.4-29.6
		c-2.1-0.3-4,1-4.6,3c-0.1,1.9-0.2,3.9-0.2,5.8c0,7.7,1.1,15.2,3.1,22.2C631.1,437.9,631.1,438,631.2,438.2z"/>
	<path class="st0" d="M564.3,511.3c-3.5,7.9-7.8,15.4-12.8,22.4c-1.3,1.8-0.9,4.4,0.9,5.7c6.3,4.5,13.1,8.3,20.3,11.2
		c1.3,0.5,2.9,0.4,4-0.5c8.3-6.1,15.4-13.7,20.8-22.5c1.5-2.4,0.2-5.5-2.6-6.1c-9-2.2-17.3-6.2-24.4-11.7
		C568.5,508.1,565.4,508.8,564.3,511.3z"/>
	<path class="st0" d="M609.9,489.5L609.9,489.5C609.9,489.4,609.9,489.4,609.9,489.5c0-0.5,0.1-0.9,0.1-1.3c0-0.2,0-0.4,0-0.5
		c0-0.3,0-0.7,0-1.1c0-0.7,0-1.4,0-2.1v-0.1c0-7.7-1.1-15.1-3.1-22.1c0-0.1-0.1-0.3-0.1-0.4c-0.5-1.7-2.1-2.9-3.9-2.9h-23.1
		c-2.5,0-4.4,2.2-4.1,4.7c2.1,15.3,14.1,27.4,29.4,29.6C607.5,493.6,609.7,491.9,609.9,489.5z"/>
	<path class="st0" d="M459.3,527.6c5.5,8.7,12.5,16.4,20.8,22.5c1.2,0.9,2.7,1,4.1,0.5c8.5-3.5,16.5-8.1,23.6-13.7
		c8-6.2,14.9-13.7,20.7-22c10.2-14.8,16.4-32.5,17.2-51.6c0.1-2.3-1.8-4.2-4.1-4.2h-26.4c-2.2,0-4,1.7-4.1,3.8
		c-1,17.1-8.7,32.5-20.6,43.4c-7.9,7.3-17.7,12.7-28.6,15.3C459.1,522.1,457.8,525.3,459.3,527.6z"/>
	<path class="st0" d="M451.8,493.2c15.3-2.2,27.3-14.3,29.4-29.6c0.3-2.5-1.6-4.7-4.1-4.7h-23c-1.8,0-3.4,1.2-3.9,2.8
		c-0.1,0.1-0.1,0.3-0.1,0.5c-2,7.1-3.1,14.5-3.1,22.2c0,2,0.1,3.9,0.2,5.8C447.7,492.2,449.7,493.5,451.8,493.2z"/>
	<path class="st0" d="M461.9,378.5c9,2.2,17.3,6.2,24.4,11.7c2.1,1.6,5.2,0.9,6.3-1.5c3.5-7.9,7.8-15.4,12.8-22.4
		c1.3-1.8,0.9-4.4-0.9-5.7c-6.3-4.5-13.1-8.3-20.3-11.2c-1.3-0.5-2.9-0.4-4,0.5c-8.3,6.1-15.4,13.7-20.8,22.5
		C457.9,374.7,459.2,377.9,461.9,378.5z"/>
	<path class="st0" d="M450.2,438.2c0.5,1.7,2.1,2.9,3.9,2.9h23.1c2.5,0,4.4-2.2,4.1-4.7c-2.1-15.3-14.1-27.4-29.4-29.6
		c-2.4-0.3-4.6,1.4-4.7,3.8v0c0,0,0,0,0,0.1c0,0.4-0.1,0.8-0.1,1.2c0,0.2,0,0.4,0,0.5c0,0.3,0,0.7,0,1.1c0,0.7,0,1.4,0,2.1v0.1
		c0,7.7,1.1,15.1,3.1,22.1C450.1,437.9,450.1,438,450.2,438.2z"/>
	<path class="st0" d="M597.7,372.4c-5.5-8.7-12.5-16.4-20.8-22.5c-1.2-0.9-2.7-1-4.1-0.5c-8.5,3.5-16.5,8.1-23.6,13.7
		c-8,6.2-14.9,13.7-20.7,22c-10.2,14.8-16.4,32.5-17.2,51.6c-0.1,2.3,1.8,4.2,4.1,4.2h26.4c2.2,0,4-1.7,4.1-3.8
		c1-17.1,8.7-32.5,20.6-43.4c7.9-7.3,17.7-12.7,28.6-15.3C597.9,377.9,599.2,374.7,597.7,372.4z"/>
	<path class="st0" d="M609.8,409.7c-0.5-2-2.5-3.3-4.6-3c-15.3,2.2-27.3,14.3-29.4,29.6c-0.3,2.5,1.6,4.7,4.1,4.7h23
		c1.8,0,3.4-1.2,3.9-2.8c0.1-0.1,0.1-0.3,0.1-0.5c2-7.1,3.1-14.5,3.1-22.2C610,413.6,610,411.6,609.8,409.7z"/>
	<path class="st0" d="M278.4,527.6c5.5,8.7,12.5,16.4,20.8,22.5c1.2,0.9,2.7,1,4,0.5c7.2-2.9,14.1-6.7,20.3-11.2
		c1.8-1.3,2.2-3.9,0.9-5.7c-5-7-9.3-14.5-12.8-22.4c-1.1-2.4-4.2-3.2-6.3-1.5c-7.1,5.5-15.4,9.6-24.4,11.7
		C278.2,522.1,276.9,525.3,278.4,527.6z"/>
	<path class="st0" d="M266.1,487.6c0,0.2,0,0.4,0,0.5c0,0.4,0,0.8,0.1,1.2c0,0,0,0,0,0.1v0c0.2,2.4,2.4,4.1,4.7,3.8
		c15.3-2.2,27.3-14.3,29.4-29.6c0.3-2.5-1.6-4.7-4.1-4.7h-23.1c-1.8,0-3.4,1.2-3.9,2.9c-0.1,0.1-0.1,0.3-0.1,0.4
		c-2,7-3.1,14.5-3.1,22.1v0.1c0,0.7,0,1.4,0,2.1C266,486.9,266,487.3,266.1,487.6z"/>
	<path class="st0" d="M414.2,521.5c-10.9-2.6-20.7-7.9-28.6-15.3C373.7,495.3,366,480,365,462.8c-0.1-2.2-1.9-3.8-4.1-3.8h-26.4
		c-2.3,0-4.2,1.9-4.1,4.2c0.8,19.1,7,36.8,17.2,51.6c5.7,8.3,12.7,15.8,20.7,22c7.2,5.6,15.1,10.2,23.6,13.7
		c1.3,0.5,2.9,0.4,4.1-0.5c8.3-6.1,15.4-13.7,20.8-22.5C418.2,525.3,416.9,522.1,414.2,521.5z"/>
	<path class="st0" d="M425.8,461.8c-0.5-1.6-2.1-2.8-3.9-2.8h-23c-2.5,0-4.4,2.2-4.1,4.7c2.1,15.3,14.1,27.4,29.4,29.6
		c2.1,0.3,4-1,4.6-3c0.1-1.9,0.2-3.9,0.2-5.8c0-7.7-1.1-15.2-3.1-22.2C425.9,462.1,425.9,462,425.8,461.8z"/>
	<path class="st0" d="M416.6,372.4c-5.5-8.7-12.5-16.4-20.8-22.5c-1.2-0.9-2.7-1-4-0.5c-7.2,2.9-14.1,6.7-20.3,11.2
		c-1.8,1.3-2.2,3.9-0.9,5.7c5,7,9.3,14.5,12.8,22.4c1.1,2.4,4.2,3.2,6.3,1.5c7.1-5.5,15.4-9.6,24.4-11.7
		C416.8,377.9,418.1,374.7,416.6,372.4z"/>
	<path class="st0" d="M429,412.4c0-0.2,0-0.4,0-0.5c0-0.4,0-0.8-0.1-1.2c0,0,0,0,0-0.1v0c-0.2-2.4-2.4-4.1-4.7-3.8
		c-15.3,2.2-27.3,14.3-29.4,29.6c-0.3,2.5,1.6,4.7,4.1,4.7h23.1c1.8,0,3.4-1.2,3.9-2.9c0.1-0.1,0.1-0.3,0.1-0.4
		c2-7,3.1-14.5,3.1-22.1v-0.1c0-0.7,0-1.4,0-2.1C429,413.1,429,412.7,429,412.4z"/>
	<path class="st0" d="M280.8,378.5c10.9,2.6,20.7,7.9,28.6,15.3c11.9,10.9,19.6,26.3,20.6,43.4c0.1,2.2,1.9,3.8,4.1,3.8h26.4
		c2.3,0,4.2-1.9,4.1-4.2c-0.8-19.1-7-36.8-17.2-51.6c-5.7-8.3-12.7-15.8-20.7-22c-7.2-5.6-15.1-10.2-23.6-13.7
		c-1.3-0.5-2.9-0.4-4.1,0.5c-8.3,6.1-15.4,13.7-20.8,22.5C276.8,374.7,278.1,377.9,280.8,378.5z"/>
	<path class="st0" d="M269.2,438.2c0.5,1.6,2.1,2.8,3.9,2.8h23c2.5,0,4.4-2.2,4.1-4.7c-2.1-15.3-14.1-27.4-29.4-29.6
		c-2.1-0.3-4,1-4.6,3c-0.1,1.9-0.2,3.9-0.2,5.8c0,7.7,1.1,15.2,3.1,22.2C269.1,437.9,269.1,438,269.2,438.2z"/>
	<path class="st0" d="M202.4,511.3c-3.5,7.9-7.8,15.4-12.8,22.4c-1.3,1.8-0.9,4.4,0.9,5.7c6.3,4.5,13.1,8.3,20.3,11.2
		c1.3,0.5,2.9,0.4,4-0.5c8.3-6.1,15.4-13.7,20.8-22.5c1.5-2.4,0.2-5.5-2.6-6.1c-9-2.2-17.3-6.2-24.4-11.7
		C206.5,508.1,203.4,508.8,202.4,511.3z"/>
	<path class="st0" d="M247.9,489.5L247.9,489.5C247.9,489.4,247.9,489.4,247.9,489.5c0-0.5,0.1-0.9,0.1-1.3c0-0.2,0-0.4,0-0.5
		c0-0.3,0-0.7,0-1.1c0-0.7,0-1.4,0-2.1v-0.1c0-7.7-1.1-15.1-3.1-22.1c0-0.1-0.1-0.3-0.1-0.4c-0.5-1.7-2.1-2.9-3.9-2.9h-23.1
		c-2.5,0-4.4,2.2-4.1,4.7c2.1,15.3,14.1,27.4,29.4,29.6C245.5,493.6,247.7,491.9,247.9,489.5z"/>
	<path class="st0" d="M97.3,527.6c5.5,8.7,12.5,16.4,20.8,22.5c1.2,0.9,2.7,1,4.1,0.5c8.5-3.5,16.5-8.1,23.6-13.7
		c8-6.2,14.9-13.7,20.7-22c10.2-14.8,16.4-32.5,17.2-51.6c0.1-2.3-1.8-4.2-4.1-4.2h-26.4c-2.2,0-4,1.7-4.1,3.8
		c-1,17.1-8.7,32.5-20.6,43.4c-7.9,7.3-17.7,12.7-28.6,15.3C97.1,522.1,95.8,525.3,97.3,527.6z"/>
	<path class="st0" d="M89.8,493.2c15.3-2.2,27.3-14.3,29.4-29.6c0.3-2.5-1.6-4.7-4.1-4.7h-23c-1.8,0-3.4,1.2-3.9,2.8
		c-0.1,0.1-0.1,0.3-0.1,0.5c-2,7.1-3.1,14.5-3.1,22.2c0,2,0.1,3.9,0.2,5.8C85.7,492.2,87.7,493.5,89.8,493.2z"/>
	<path class="st0" d="M99.9,378.5c9,2.2,17.3,6.2,24.4,11.7c2.1,1.6,5.2,0.9,6.3-1.5c3.5-7.9,7.8-15.4,12.8-22.4
		c1.3-1.8,0.9-4.4-0.9-5.7c-6.3-4.5-13.1-8.3-20.3-11.2c-1.3-0.5-2.9-0.4-4,0.5c-8.3,6.1-15.4,13.7-20.8,22.5
		C95.9,374.7,97.2,377.9,99.9,378.5z"/>
	<path class="st0" d="M88.2,438.2c0.5,1.7,2.1,2.9,3.9,2.9h23.1c2.5,0,4.4-2.2,4.1-4.7c-2.1-15.3-14.1-27.4-29.4-29.6
		c-2.4-0.3-4.6,1.4-4.7,3.8v0c0,0,0,0,0,0.1c0,0.4-0.1,0.8-0.1,1.2c0,0.2,0,0.4,0,0.5c0,0.3,0,0.7,0,1.1c0,0.7,0,1.4,0,2.1v0.1
		c0,7.7,1.1,15.1,3.1,22.1C88.1,437.9,88.1,438,88.2,438.2z"/>
	<path class="st0" d="M235.7,372.4c-5.5-8.7-12.5-16.4-20.8-22.5c-1.2-0.9-2.7-1-4.1-0.5c-8.5,3.5-16.5,8.1-23.6,13.7
		c-8,6.2-14.9,13.7-20.7,22c-10.2,14.8-16.4,32.5-17.2,51.6c-0.1,2.3,1.8,4.2,4.1,4.2h26.4c2.2,0,4-1.7,4.1-3.8
		c1-17.1,8.7-32.5,20.6-43.4c7.9-7.3,17.7-12.7,28.6-15.3C235.9,377.9,237.2,374.7,235.7,372.4z"/>
	<path class="st0" d="M247.8,409.7c-0.5-2-2.5-3.3-4.6-3c-15.3,2.2-27.3,14.3-29.4,29.6c-0.3,2.5,1.6,4.7,4.1,4.7h23
		c1.8,0,3.4-1.2,3.9-2.8c0.1-0.1,0.1-0.3,0.1-0.5c2-7.1,3.1-14.5,3.1-22.2C248,413.6,248,411.6,247.8,409.7z"/>
	<path class="st0" d="M124.4,729.5c-7.1,5.5-15.4,9.6-24.4,11.7c-2.7,0.6-4,3.8-2.6,6.1c5.5,8.7,12.5,16.4,20.8,22.5
		c1.2,0.9,2.7,1,4,0.5c7.2-2.9,14.1-6.7,20.3-11.2c1.8-1.3,2.2-3.9,0.9-5.7c-5-7-9.3-14.5-12.8-22.4
		C129.6,728.6,126.5,727.9,124.4,729.5z"/>
	<path class="st0" d="M89.9,713c15.3-2.2,27.3-14.3,29.4-29.6c0.3-2.5-1.6-4.7-4.1-4.7H92.1c-1.8,0-3.4,1.2-3.9,2.9
		c-0.1,0.1-0.1,0.3-0.1,0.4c-2,7-3.1,14.5-3.1,22.1v0.1c0,0.7,0,1.4,0,2.1c0,0.3,0,0.7,0,1.1c0,0.2,0,0.4,0,0.5c0,0.4,0,0.8,0.1,1.2
		c0,0,0,0,0,0.1v0C85.3,711.6,87.5,713.3,89.9,713z"/>
	<path class="st0" d="M233.2,741.2c-10.9-2.6-20.7-7.9-28.6-15.3C192.7,715,185,699.7,184,682.5c-0.1-2.2-1.9-3.8-4.1-3.8h-26.4
		c-2.3,0-4.2,1.9-4.1,4.2c0.8,19.1,7,36.8,17.2,51.6c5.7,8.3,12.7,15.8,20.7,22c7.2,5.6,15.1,10.2,23.6,13.7
		c1.3,0.5,2.9,0.4,4.1-0.5c8.3-6.1,15.4-13.7,20.8-22.5C237.2,745,235.9,741.9,233.2,741.2z"/>
	<path class="st0" d="M244.8,681.5c-0.5-1.6-2.1-2.8-3.9-2.8h-23c-2.5,0-4.4,2.2-4.1,4.7c2.1,15.3,14.1,27.4,29.4,29.6
		c2.1,0.3,4-1,4.6-3c0.1-1.9,0.2-3.9,0.2-5.8c0-7.7-1.1-15.2-3.1-22.2C244.9,681.8,244.9,681.7,244.8,681.5z"/>
	<path class="st0" d="M235.6,592.1c-5.5-8.7-12.5-16.4-20.8-22.5c-1.2-0.9-2.7-1-4-0.5c-7.2,2.9-14.1,6.7-20.3,11.2
		c-1.8,1.3-2.2,3.9-0.9,5.7c5,7,9.3,14.5,12.8,22.4c1.1,2.4,4.2,3.2,6.3,1.5c7.1-5.5,15.4-9.6,24.4-11.7
		C235.8,597.6,237.1,594.5,235.6,592.1z"/>
	<path class="st0" d="M248,632.1c0-0.2,0-0.4,0-0.5c0-0.4,0-0.8-0.1-1.2c0,0,0,0,0-0.1v0c-0.2-2.4-2.4-4.1-4.7-3.8
		c-15.3,2.2-27.3,14.3-29.4,29.6c-0.3,2.5,1.6,4.7,4.1,4.7h23.1c1.8,0,3.4-1.2,3.9-2.9c0.1-0.1,0.1-0.3,0.1-0.4
		c2-7,3.1-14.5,3.1-22.1v-0.1c0-0.7,0-1.4,0-2.1C248,632.8,248,632.5,248,632.1z"/>
	<path class="st0" d="M153.2,660.8h26.4c2.3,0,4.2-1.9,4.1-4.2c-0.8-19.1-7-36.8-17.2-51.6c-5.7-8.3-12.7-15.8-20.7-22
		c-7.2-5.6-15.1-10.2-23.6-13.7c-1.3-0.5-2.9-0.4-4.1,0.5c-8.3,6.1-15.4,13.7-20.8,22.5c-1.5,2.4-0.2,5.5,2.6,6.1
		c10.9,2.6,20.7,7.9,28.6,15.3c11.9,10.9,19.6,26.3,20.6,43.4C149.2,659.1,151,660.8,153.2,660.8z"/>
	<path class="st0" d="M85.2,629.5c-0.1,1.9-0.2,3.9-0.2,5.8c0,7.7,1.1,15.2,3.1,22.2c0,0.2,0.1,0.3,0.1,0.5c0.5,1.6,2.1,2.8,3.9,2.8
		h23c2.5,0,4.4-2.2,4.1-4.7c-2.1-15.3-14.1-27.4-29.4-29.6C87.7,626.2,85.7,627.5,85.2,629.5z"/>
	<path class="st0" d="M414.1,741.2c-9-2.2-17.3-6.2-24.4-11.7c-2.1-1.6-5.2-0.9-6.3,1.5c-3.5,7.9-7.8,15.4-12.8,22.4
		c-1.3,1.8-0.9,4.4,0.9,5.7c6.3,4.5,13.1,8.3,20.3,11.2c1.3,0.5,2.9,0.4,4-0.5c8.3-6.1,15.4-13.7,20.8-22.5
		C418.1,745,416.8,741.9,414.1,741.2z"/>
	<path class="st0" d="M425.8,681.6c-0.5-1.7-2.1-2.9-3.9-2.9h-23.1c-2.5,0-4.4,2.2-4.1,4.7c2.1,15.3,14.1,27.4,29.4,29.6
		c2.4,0.3,4.6-1.4,4.7-3.8v0c0,0,0,0,0-0.1c0-0.4,0.1-0.8,0.1-1.2c0-0.2,0-0.4,0-0.5c0-0.3,0-0.7,0-1.1c0-0.7,0-1.4,0-2.1v-0.1
		c0-7.7-1.1-15.1-3.1-22.1C425.9,681.8,425.9,681.7,425.8,681.6z"/>
	<path class="st0" d="M278.3,747.4c5.5,8.7,12.5,16.4,20.8,22.5c1.2,0.9,2.7,1,4.1,0.5c8.5-3.5,16.5-8.1,23.6-13.7
		c8-6.2,14.9-13.7,20.7-22c10.2-14.8,16.4-32.5,17.2-51.6c0.1-2.3-1.8-4.2-4.1-4.2h-26.4c-2.2,0-4,1.7-4.1,3.8
		c-1,17.1-8.7,32.5-20.6,43.4c-7.9,7.3-17.7,12.7-28.6,15.3C278.1,741.9,276.8,745,278.3,747.4z"/>
	<path class="st0" d="M270.8,713c15.3-2.2,27.3-14.3,29.4-29.6c0.3-2.5-1.6-4.7-4.1-4.7h-23c-1.8,0-3.4,1.2-3.9,2.8
		c-0.1,0.1-0.1,0.3-0.1,0.5c-2,7.1-3.1,14.5-3.1,22.2c0,2,0.1,3.9,0.2,5.8C266.7,712,268.7,713.3,270.8,713z"/>
	<path class="st0" d="M280.9,598.2c9,2.2,17.3,6.2,24.4,11.7c2.1,1.6,5.2,0.9,6.3-1.5c3.5-7.9,7.8-15.4,12.8-22.4
		c1.3-1.8,0.9-4.4-0.9-5.7c-6.3-4.5-13.1-8.3-20.3-11.2c-1.3-0.5-2.9-0.4-4,0.5c-8.3,6.1-15.4,13.7-20.8,22.5
		C276.9,594.5,278.2,597.6,280.9,598.2z"/>
	<path class="st0" d="M269.2,657.9c0.5,1.7,2.1,2.9,3.9,2.9h23.1c2.5,0,4.4-2.2,4.1-4.7c-2.1-15.3-14.1-27.4-29.4-29.6
		c-2.4-0.3-4.6,1.4-4.7,3.8v0c0,0,0,0,0,0.1c0,0.4-0.1,0.8-0.1,1.2c0,0.2,0,0.4,0,0.5c0,0.3,0,0.7,0,1.1c0,0.7,0,1.4,0,2.1v0.1
		c0,7.7,1.1,15.1,3.1,22.1C269.1,657.6,269.1,657.8,269.2,657.9z"/>
	<path class="st0" d="M416.7,592.1c-5.5-8.7-12.5-16.4-20.8-22.5c-1.2-0.9-2.7-1-4.1-0.5c-8.5,3.5-16.5,8.1-23.6,13.7
		c-8,6.2-14.9,13.7-20.7,22c-10.2,14.8-16.4,32.5-17.2,51.6c-0.1,2.3,1.8,4.2,4.1,4.2h26.4c2.2,0,4-1.7,4.1-3.8
		c1-17.1,8.7-32.5,20.6-43.4c7.9-7.3,17.7-12.7,28.6-15.3C416.9,597.6,418.2,594.5,416.7,592.1z"/>
	<path class="st0" d="M424.2,626.5c-15.3,2.2-27.3,14.3-29.4,29.6c-0.3,2.5,1.6,4.7,4.1,4.7h23c1.8,0,3.4-1.2,3.9-2.8
		c0.1-0.1,0.1-0.3,0.1-0.5c2-7.1,3.1-14.5,3.1-22.2c0-2-0.1-3.9-0.2-5.8C428.3,627.5,426.3,626.2,424.2,626.5z"/>
	<path class="st0" d="M486.4,729.5c-7.1,5.5-15.4,9.6-24.4,11.7c-2.7,0.6-4,3.8-2.6,6.1c5.5,8.7,12.5,16.4,20.8,22.5
		c1.2,0.9,2.7,1,4,0.5c7.2-2.9,14.1-6.7,20.3-11.2c1.8-1.3,2.2-3.9,0.9-5.7c-5-7-9.3-14.5-12.8-22.4
		C491.6,728.6,488.5,727.9,486.4,729.5z"/>
	<path class="st0" d="M451.9,713c15.3-2.2,27.3-14.3,29.4-29.6c0.3-2.5-1.6-4.7-4.1-4.7h-23.1c-1.8,0-3.4,1.2-3.9,2.9
		c-0.1,0.1-0.1,0.3-0.1,0.4c-2,7-3.1,14.5-3.1,22.1v0.1c0,0.7,0,1.4,0,2.1c0,0.3,0,0.7,0,1.1c0,0.2,0,0.4,0,0.5c0,0.4,0,0.8,0.1,1.2
		c0,0,0,0,0,0.1v0C447.3,711.6,449.5,713.3,451.9,713z"/>
	<path class="st0" d="M595.2,741.2c-10.9-2.6-20.7-7.9-28.6-15.3C554.7,715,547,699.7,546,682.5c-0.1-2.2-1.9-3.8-4.1-3.8h-26.4
		c-2.3,0-4.2,1.9-4.1,4.2c0.8,19.1,7,36.8,17.2,51.6c5.7,8.3,12.7,15.8,20.7,22c7.2,5.6,15.1,10.2,23.6,13.7
		c1.3,0.5,2.9,0.4,4.1-0.5c8.3-6.1,15.4-13.7,20.8-22.5C599.2,745,597.9,741.9,595.2,741.2z"/>
	<path class="st0" d="M606.8,681.5c-0.5-1.6-2.1-2.8-3.9-2.8h-23c-2.5,0-4.4,2.2-4.1,4.7c2.1,15.3,14.1,27.4,29.4,29.6
		c2.1,0.3,4-1,4.6-3c0.1-1.9,0.2-3.9,0.2-5.8c0-7.7-1.1-15.2-3.1-22.2C606.9,681.8,606.9,681.7,606.8,681.5z"/>
	<path class="st0" d="M597.6,592.1c-5.5-8.7-12.5-16.4-20.8-22.5c-1.2-0.9-2.7-1-4-0.5c-7.2,2.9-14.1,6.7-20.3,11.2
		c-1.8,1.3-2.2,3.9-0.9,5.7c5,7,9.3,14.5,12.8,22.4c1.1,2.4,4.2,3.2,6.3,1.5c7.1-5.5,15.4-9.6,24.4-11.7
		C597.8,597.6,599.1,594.5,597.6,592.1z"/>
	<path class="st0" d="M610,632.1c0-0.2,0-0.4,0-0.5c0-0.4,0-0.8-0.1-1.2c0,0,0,0,0-0.1v0c-0.2-2.4-2.4-4.1-4.7-3.8
		c-15.3,2.2-27.3,14.3-29.4,29.6c-0.3,2.5,1.6,4.7,4.1,4.7h23.1c1.8,0,3.4-1.2,3.9-2.9c0.1-0.1,0.1-0.3,0.1-0.4
		c2-7,3.1-14.5,3.1-22.1v-0.1c0-0.7,0-1.4,0-2.1C610,632.8,610,632.5,610,632.1z"/>
	<path class="st0" d="M515.1,660.8h26.4c2.3,0,4.2-1.9,4.1-4.2c-0.8-19.1-7-36.8-17.2-51.6c-5.7-8.3-12.7-15.8-20.7-22
		c-7.2-5.6-15.1-10.2-23.6-13.7c-1.3-0.5-2.9-0.4-4.1,0.5c-8.3,6.1-15.4,13.7-20.8,22.5c-1.5,2.4-0.2,5.5,2.6,6.1
		c10.9,2.6,20.7,7.9,28.6,15.3c11.9,10.9,19.6,26.3,20.6,43.4C511.2,659.1,513,660.8,515.1,660.8z"/>
	<path class="st0" d="M447.2,629.5c-0.1,1.9-0.2,3.9-0.2,5.8c0,7.7,1.1,15.2,3.1,22.2c0,0.2,0.1,0.3,0.1,0.5
		c0.5,1.6,2.1,2.8,3.9,2.8h23c2.5,0,4.4-2.2,4.1-4.7c-2.1-15.3-14.1-27.4-29.4-29.6C449.7,626.2,447.7,627.5,447.2,629.5z"/>
	<path class="st0" d="M776.1,741.2c-9-2.2-17.3-6.2-24.4-11.7c-2.1-1.6-5.2-0.9-6.3,1.5c-3.5,7.9-7.8,15.4-12.8,22.4
		c-1.3,1.8-0.9,4.4,0.9,5.7c6.3,4.5,13.1,8.3,20.3,11.2c1.3,0.5,2.9,0.4,4-0.5c8.3-6.1,15.4-13.7,20.8-22.5
		C780.1,745,778.8,741.9,776.1,741.2z"/>
	<path class="st0" d="M787.8,681.6c-0.5-1.7-2.1-2.9-3.9-2.9h-23.1c-2.5,0-4.4,2.2-4.1,4.7c2.1,15.3,14.1,27.4,29.4,29.6
		c2.4,0.3,4.6-1.4,4.7-3.8v0c0,0,0,0,0-0.1c0-0.4,0.1-0.8,0.1-1.2c0-0.2,0-0.4,0-0.5c0-0.3,0-0.7,0-1.1c0-0.7,0-1.4,0-2.1v-0.1
		c0-7.7-1.1-15.1-3.1-22.1C787.9,681.8,787.9,681.7,787.8,681.6z"/>
	<path class="st0" d="M640.3,747.4c5.5,8.7,12.5,16.4,20.8,22.5c1.2,0.9,2.7,1,4.1,0.5c8.5-3.5,16.5-8.1,23.6-13.7
		c8-6.2,14.9-13.7,20.7-22c10.2-14.8,16.4-32.5,17.2-51.6c0.1-2.3-1.8-4.2-4.1-4.2h-26.4c-2.2,0-4,1.7-4.1,3.8
		c-1,17.1-8.7,32.5-20.6,43.4c-7.9,7.3-17.7,12.7-28.6,15.3C640.1,741.9,638.8,745,640.3,747.4z"/>
	<path class="st0" d="M632.8,713c15.3-2.2,27.3-14.3,29.4-29.6c0.3-2.5-1.6-4.7-4.1-4.7h-23c-1.8,0-3.4,1.2-3.9,2.8
		c-0.1,0.1-0.1,0.3-0.1,0.5c-2,7.1-3.1,14.5-3.1,22.2c0,2,0.1,3.9,0.2,5.8C628.7,712,630.7,713.3,632.8,713z"/>
	<path class="st0" d="M642.9,598.2c9,2.2,17.3,6.2,24.4,11.7c2.1,1.6,5.2,0.9,6.3-1.5c3.5-7.9,7.8-15.4,12.8-22.4
		c1.3-1.8,0.9-4.4-0.9-5.7c-6.3-4.5-13.1-8.3-20.3-11.2c-1.3-0.5-2.9-0.4-4,0.5c-8.3,6.1-15.4,13.7-20.8,22.5
		C638.9,594.5,640.2,597.6,642.9,598.2z"/>
	<path class="st0" d="M631.2,657.9c0.5,1.7,2.1,2.9,3.9,2.9h23.1c2.5,0,4.4-2.2,4.1-4.7c-2.1-15.3-14.1-27.4-29.4-29.6
		c-2.4-0.3-4.6,1.4-4.7,3.8v0c0,0,0,0,0,0.1c0,0.4-0.1,0.8-0.1,1.2c0,0.2,0,0.4,0,0.5c0,0.3,0,0.7,0,1.1c0,0.7,0,1.4,0,2.1v0.1
		c0,7.7,1.1,15.1,3.1,22.1C631.1,657.6,631.1,657.8,631.2,657.9z"/>
	<path class="st0" d="M778.7,592.1c-5.5-8.7-12.5-16.4-20.8-22.5c-1.2-0.9-2.7-1-4.1-0.5c-8.5,3.5-16.5,8.1-23.6,13.7
		c-8,6.2-14.9,13.7-20.7,22c-10.2,14.8-16.4,32.5-17.2,51.6c-0.1,2.3,1.8,4.2,4.1,4.2h26.4c2.2,0,4-1.7,4.1-3.8
		c1-17.1,8.7-32.5,20.6-43.4c7.9-7.3,17.7-12.7,28.6-15.3C778.9,597.6,780.2,594.5,778.7,592.1z"/>
	<path class="st0" d="M786.2,626.5c-15.3,2.2-27.3,14.3-29.4,29.6c-0.3,2.5,1.6,4.7,4.1,4.7h23c1.8,0,3.4-1.2,3.9-2.8
		c0.1-0.1,0.1-0.3,0.1-0.5c2-7.1,3.1-14.5,3.1-22.2c0-2-0.1-3.9-0.2-5.8C790.3,627.5,788.3,626.2,786.2,626.5z"/>
	<path class="st0" d="M848.4,729.5c-7.1,5.5-15.4,9.6-24.4,11.7c-2.7,0.6-4,3.8-2.6,6.1c5.5,8.7,12.5,16.4,20.8,22.5
		c1.2,0.9,2.7,1,4,0.5c7.2-2.9,14.1-6.7,20.3-11.2c1.8-1.3,2.2-3.9,0.9-5.7c-5-7-9.3-14.5-12.8-22.4
		C853.6,728.6,850.5,727.9,848.4,729.5z"/>
	<path class="st0" d="M813.9,713c15.3-2.2,27.3-14.3,29.4-29.6c0.3-2.5-1.6-4.7-4.1-4.7h-23.1c-1.8,0-3.4,1.2-3.9,2.9
		c-0.1,0.1-0.1,0.3-0.1,0.4c-2,7-3.1,14.5-3.1,22.1v0.1c0,0.7,0,1.4,0,2.1c0,0.3,0,0.7,0,1.1c0,0.2,0,0.4,0,0.5c0,0.4,0,0.8,0.1,1.2
		c0,0,0,0,0,0.1v0C809.3,711.6,811.5,713.3,813.9,713z"/>
	<path class="st0" d="M957.2,741.2c-10.9-2.6-20.7-7.9-28.6-15.3C916.7,715,909,699.7,908,682.5c-0.1-2.2-1.9-3.8-4.1-3.8h-26.4
		c-2.3,0-4.2,1.9-4.1,4.2c0.8,19.1,7,36.8,17.2,51.6c5.7,8.3,12.7,15.8,20.7,22c7.2,5.6,15.1,10.2,23.6,13.7
		c1.3,0.5,2.9,0.4,4.1-0.5c8.3-6.1,15.4-13.7,20.8-22.5C961.2,745,959.9,741.9,957.2,741.2z"/>
	<path class="st0" d="M968.8,681.5c-0.5-1.6-2.1-2.8-3.9-2.8h-23c-2.5,0-4.4,2.2-4.1,4.7c2.1,15.3,14.1,27.4,29.4,29.6
		c2.1,0.3,4-1,4.6-3c0.1-1.9,0.2-3.9,0.2-5.8c0-7.7-1.1-15.2-3.1-22.2C968.9,681.8,968.9,681.7,968.8,681.5z"/>
	<path class="st0" d="M959.6,592.1c-5.5-8.7-12.5-16.4-20.8-22.5c-1.2-0.9-2.7-1-4-0.5c-7.2,2.9-14.1,6.7-20.3,11.2
		c-1.8,1.3-2.2,3.9-0.9,5.7c5,7,9.3,14.5,12.8,22.4c1.1,2.4,4.2,3.2,6.3,1.5c7.1-5.5,15.4-9.6,24.4-11.7
		C959.8,597.6,961.1,594.5,959.6,592.1z"/>
	<path class="st0" d="M972,632.1c0-0.2,0-0.4,0-0.5c0-0.4,0-0.8-0.1-1.2c0,0,0,0,0-0.1v0c-0.2-2.4-2.4-4.1-4.7-3.8
		c-15.3,2.2-27.3,14.3-29.4,29.6c-0.3,2.5,1.6,4.7,4.1,4.7h23.1c1.8,0,3.4-1.2,3.9-2.9c0.1-0.1,0.1-0.3,0.1-0.4
		c2-7,3.1-14.5,3.1-22.1v-0.1c0-0.7,0-1.4,0-2.1C972,632.8,972,632.5,972,632.1z"/>
	<path class="st0" d="M877.1,660.8h26.4c2.3,0,4.2-1.9,4.1-4.2c-0.8-19.1-7-36.8-17.2-51.6c-5.7-8.3-12.7-15.8-20.7-22
		c-7.2-5.6-15.1-10.2-23.6-13.7c-1.3-0.5-2.9-0.4-4.1,0.5c-8.3,6.1-15.4,13.7-20.8,22.5c-1.5,2.4-0.2,5.5,2.6,6.1
		c10.9,2.6,20.7,7.9,28.6,15.3c11.9,10.9,19.6,26.3,20.6,43.4C873.2,659.1,875,660.8,877.1,660.8z"/>
	<path class="st0" d="M809.2,629.5c-0.1,1.9-0.2,3.9-0.2,5.8c0,7.7,1.1,15.2,3.1,22.2c0,0.2,0.1,0.3,0.1,0.5
		c0.5,1.6,2.1,2.8,3.9,2.8h23c2.5,0,4.4-2.2,4.1-4.7c-2.1-15.3-14.1-27.4-29.4-29.6C811.7,626.2,809.7,627.5,809.2,629.5z"/>
	<path class="st0" d="M1138.1,741.2c-9-2.2-17.3-6.2-24.4-11.7c-2.1-1.6-5.2-0.9-6.3,1.5c-3.5,7.9-7.8,15.4-12.8,22.4
		c-1.3,1.8-0.9,4.4,0.9,5.7c6.3,4.5,13.1,8.3,20.3,11.2c1.3,0.5,2.9,0.4,4-0.5c8.3-6.1,15.4-13.7,20.8-22.5
		C1142.1,745,1140.8,741.9,1138.1,741.2z"/>
	<path class="st0" d="M1149.8,681.6c-0.5-1.7-2.1-2.9-3.9-2.9h-23.1c-2.5,0-4.4,2.2-4.1,4.7c2.1,15.3,14.1,27.4,29.4,29.6
		c2.4,0.3,4.6-1.4,4.7-3.8v0c0,0,0,0,0-0.1c0-0.4,0.1-0.8,0.1-1.2c0-0.2,0-0.4,0-0.5c0-0.3,0-0.7,0-1.1c0-0.7,0-1.4,0-2.1v-0.1
		c0-7.7-1.1-15.1-3.1-22.1C1149.9,681.8,1149.9,681.7,1149.8,681.6z"/>
	<path class="st0" d="M1002.3,747.4c5.5,8.7,12.5,16.4,20.8,22.5c1.2,0.9,2.7,1,4.1,0.5c8.5-3.5,16.5-8.1,23.6-13.7
		c8-6.2,14.9-13.7,20.7-22c10.2-14.8,16.4-32.5,17.2-51.6c0.1-2.3-1.8-4.2-4.1-4.2h-26.4c-2.2,0-4,1.7-4.1,3.8
		c-1,17.1-8.7,32.5-20.6,43.4c-7.9,7.3-17.7,12.7-28.6,15.3C1002.1,741.9,1000.8,745,1002.3,747.4z"/>
	<path class="st0" d="M994.8,713c15.3-2.2,27.3-14.3,29.4-29.6c0.3-2.5-1.6-4.7-4.1-4.7h-23c-1.8,0-3.4,1.2-3.9,2.8
		c-0.1,0.1-0.1,0.3-0.1,0.5c-2,7.1-3.1,14.5-3.1,22.2c0,2,0.1,3.9,0.2,5.8C990.7,712,992.7,713.3,994.8,713z"/>
	<path class="st0" d="M1004.9,598.2c9,2.2,17.3,6.2,24.4,11.7c2.1,1.6,5.2,0.9,6.3-1.5c3.5-7.9,7.8-15.4,12.8-22.4
		c1.3-1.8,0.9-4.4-0.9-5.7c-6.3-4.5-13.1-8.3-20.3-11.2c-1.3-0.5-2.9-0.4-4,0.5c-8.3,6.1-15.4,13.7-20.8,22.5
		C1000.9,594.5,1002.2,597.6,1004.9,598.2z"/>
	<path class="st0" d="M993.2,657.9c0.5,1.7,2.1,2.9,3.9,2.9h23.1c2.5,0,4.4-2.2,4.1-4.7c-2.1-15.3-14.1-27.4-29.4-29.6
		c-2.4-0.3-4.6,1.4-4.7,3.8v0c0,0,0,0,0,0.1c0,0.4-0.1,0.8-0.1,1.2c0,0.2,0,0.4,0,0.5c0,0.3,0,0.7,0,1.1c0,0.7,0,1.4,0,2.1v0.1
		c0,7.7,1.1,15.1,3.1,22.1C993.1,657.6,993.1,657.8,993.2,657.9z"/>
	<path class="st0" d="M1140.7,592.1c-5.5-8.7-12.5-16.4-20.8-22.5c-1.2-0.9-2.7-1-4.1-0.5c-8.5,3.5-16.5,8.1-23.6,13.7
		c-8,6.2-14.9,13.7-20.7,22c-10.2,14.8-16.4,32.5-17.2,51.6c-0.1,2.3,1.8,4.2,4.1,4.2h26.4c2.2,0,4-1.7,4.1-3.8
		c1-17.1,8.7-32.5,20.6-43.4c7.9-7.3,17.7-12.7,28.6-15.3C1140.9,597.6,1142.2,594.5,1140.7,592.1z"/>
	<path class="st0" d="M1148.2,626.5c-15.3,2.2-27.3,14.3-29.4,29.6c-0.3,2.5,1.6,4.7,4.1,4.7h23c1.8,0,3.4-1.2,3.9-2.8
		c0.1-0.1,0.1-0.3,0.1-0.5c2-7.1,3.1-14.5,3.1-22.2c0-2-0.1-3.9-0.2-5.8C1152.3,627.5,1150.3,626.2,1148.2,626.5z"/>
	<path class="st0" d="M1140.6,811.8c-5.5-8.7-12.5-16.4-20.8-22.5c-1.2-0.9-2.7-1-4-0.5c-7.2,2.9-14.1,6.7-20.3,11.2
		c-1.8,1.3-2.2,3.9-0.9,5.7c5,7,9.3,14.5,12.8,22.4c1.1,2.4,4.2,3.2,6.3,1.5c7.1-5.5,15.4-9.6,24.4-11.7
		C1140.8,817.3,1142.1,814.2,1140.6,811.8z"/>
	<path class="st0" d="M1152.9,851.8c0-0.2,0-0.4,0-0.5c0-0.4,0-0.8-0.1-1.2c0,0,0,0,0-0.1v0c-0.2-2.4-2.4-4.1-4.7-3.8
		c-15.3,2.2-27.3,14.3-29.4,29.6c-0.3,2.5,1.6,4.7,4.1,4.7h23.1c1.8,0,3.4-1.2,3.9-2.9c0.1-0.1,0.1-0.3,0.1-0.4
		c2-7,3.1-14.5,3.1-22.1v-0.1c0-0.7,0-1.4,0-2.1C1153,852.5,1153,852.2,1152.9,851.8z"/>
	<path class="st0" d="M1058.1,880.5h26.4c2.3,0,4.2-1.9,4.1-4.2c-0.8-19.1-7-36.8-17.2-51.6c-5.7-8.3-12.7-15.8-20.7-22
		c-7.2-5.6-15.1-10.2-23.6-13.7c-1.3-0.5-2.9-0.4-4.1,0.5c-8.3,6.1-15.4,13.7-20.8,22.5c-1.5,2.4-0.2,5.5,2.6,6.1
		c10.9,2.6,20.7,7.9,28.6,15.3c11.9,10.9,19.6,26.3,20.6,43.4C1054.2,878.8,1056,880.5,1058.1,880.5z"/>
	<path class="st0" d="M993.2,877.7c0.5,1.6,2.1,2.8,3.9,2.8h23c2.5,0,4.4-2.2,4.1-4.7c-2.1-15.3-14.1-27.4-29.4-29.6
		c-2.1-0.3-4,1-4.6,3c-0.1,1.9-0.2,3.9-0.2,5.8c0,7.7,1.1,15.2,3.1,22.2C993.1,877.4,993.1,877.5,993.2,877.7z"/>
	<path class="st0" d="M823.9,818c9,2.2,17.3,6.2,24.4,11.7c2.1,1.6,5.2,0.9,6.3-1.5c3.5-7.9,7.8-15.4,12.8-22.4
		c1.3-1.8,0.9-4.4-0.9-5.7c-6.3-4.5-13.1-8.3-20.3-11.2c-1.3-0.5-2.9-0.4-4,0.5c-8.3,6.1-15.4,13.7-20.8,22.5
		C819.9,814.2,821.2,817.3,823.9,818z"/>
	<path class="st0" d="M812.2,877.6c0.5,1.7,2.1,2.9,3.9,2.9h23.1c2.5,0,4.4-2.2,4.1-4.7c-2.1-15.3-14.1-27.4-29.4-29.6
		c-2.4-0.3-4.6,1.4-4.7,3.8v0c0,0,0,0,0,0.1c0,0.4-0.1,0.8-0.1,1.2c0,0.2,0,0.4,0,0.5c0,0.3,0,0.7,0,1.1c0,0.7,0,1.4,0,2.1v0.1
		c0,7.7,1.1,15.1,3.1,22.1C812.1,877.4,812.1,877.5,812.2,877.6z"/>
	<path class="st0" d="M928.6,833.2c7.9-7.3,17.7-12.7,28.6-15.3c2.7-0.6,4-3.8,2.6-6.1c-5.5-8.7-12.5-16.4-20.8-22.5
		c-1.2-0.9-2.7-1-4.1-0.5c-8.5,3.5-16.5,8.1-23.6,13.7c-8,6.2-14.9,13.7-20.7,22c-10.2,14.8-16.4,32.5-17.2,51.6
		c-0.1,2.3,1.8,4.2,4.1,4.2h26.4c2.2,0,4-1.7,4.1-3.8C909,859.5,916.7,844.2,928.6,833.2z"/>
	<path class="st0" d="M971.8,849.2c-0.5-2-2.5-3.3-4.6-3c-15.3,2.2-27.3,14.3-29.4,29.6c-0.3,2.5,1.6,4.7,4.1,4.7h23
		c1.8,0,3.4-1.2,3.9-2.8c0.1-0.1,0.1-0.3,0.1-0.5c2-7.1,3.1-14.5,3.1-22.2C972,853,972,851.1,971.8,849.2z"/>
	<path class="st0" d="M778.6,811.8c-5.5-8.7-12.5-16.4-20.8-22.5c-1.2-0.9-2.7-1-4-0.5c-7.2,2.9-14.1,6.7-20.3,11.2
		c-1.8,1.3-2.2,3.9-0.9,5.7c5,7,9.3,14.5,12.8,22.4c1.1,2.4,4.2,3.2,6.3,1.5c7.1-5.5,15.4-9.6,24.4-11.7
		C778.8,817.3,780.1,814.2,778.6,811.8z"/>
	<path class="st0" d="M791,851.8c0-0.2,0-0.4,0-0.5c0-0.4,0-0.8-0.1-1.2c0,0,0,0,0-0.1v0c-0.2-2.4-2.4-4.1-4.7-3.8
		c-15.3,2.2-27.3,14.3-29.4,29.6c-0.3,2.5,1.6,4.7,4.1,4.7h23.1c1.8,0,3.4-1.2,3.9-2.9c0.1-0.1,0.1-0.3,0.1-0.4
		c2-7,3.1-14.5,3.1-22.1v-0.1c0-0.7,0-1.4,0-2.1C791,852.5,791,852.2,791,851.8z"/>
	<path class="st0" d="M696.1,880.5h26.4c2.3,0,4.2-1.9,4.1-4.2c-0.8-19.1-7-36.8-17.2-51.6c-5.7-8.3-12.7-15.8-20.7-22
		c-7.2-5.6-15.1-10.2-23.6-13.7c-1.3-0.5-2.9-0.4-4.1,0.5c-8.3,6.1-15.4,13.7-20.8,22.5c-1.5,2.4-0.2,5.5,2.6,6.1
		c10.9,2.6,20.7,7.9,28.6,15.3c11.9,10.9,19.6,26.3,20.6,43.4C692.2,878.8,694,880.5,696.1,880.5z"/>
	<path class="st0" d="M631.2,877.7c0.5,1.6,2.1,2.8,3.9,2.8h23c2.5,0,4.4-2.2,4.1-4.7c-2.1-15.3-14.1-27.4-29.4-29.6
		c-2.1-0.3-4,1-4.6,3c-0.1,1.9-0.2,3.9-0.2,5.8c0,7.7,1.1,15.2,3.1,22.2C631.1,877.4,631.1,877.5,631.2,877.7z"/>
	<path class="st0" d="M461.9,818c9,2.2,17.3,6.2,24.4,11.7c2.1,1.6,5.2,0.9,6.3-1.5c3.5-7.9,7.8-15.4,12.8-22.4
		c1.3-1.8,0.9-4.4-0.9-5.7c-6.3-4.5-13.1-8.3-20.3-11.2c-1.3-0.5-2.9-0.4-4,0.5c-8.3,6.1-15.4,13.7-20.8,22.5
		C457.9,814.2,459.2,817.3,461.9,818z"/>
	<path class="st0" d="M450.2,877.6c0.5,1.7,2.1,2.9,3.9,2.9h23.1c2.5,0,4.4-2.2,4.1-4.7c-2.1-15.3-14.1-27.4-29.4-29.6
		c-2.4-0.3-4.6,1.4-4.7,3.8v0c0,0,0,0,0,0.1c0,0.4-0.1,0.8-0.1,1.2c0,0.2,0,0.4,0,0.5c0,0.3,0,0.7,0,1.1c0,0.7,0,1.4,0,2.1v0.1
		c0,7.7,1.1,15.1,3.1,22.1C450.1,877.4,450.1,877.5,450.2,877.6z"/>
	<path class="st0" d="M566.6,833.2c7.9-7.3,17.7-12.7,28.6-15.3c2.7-0.6,4-3.8,2.6-6.1c-5.5-8.7-12.5-16.4-20.8-22.5
		c-1.2-0.9-2.7-1-4.1-0.5c-8.5,3.5-16.5,8.1-23.6,13.7c-8,6.2-14.9,13.7-20.7,22c-10.2,14.8-16.4,32.5-17.2,51.6
		c-0.1,2.3,1.8,4.2,4.1,4.2h26.4c2.2,0,4-1.7,4.1-3.8C547,859.5,554.7,844.2,566.6,833.2z"/>
	<path class="st0" d="M609.8,849.2c-0.5-2-2.5-3.3-4.6-3c-15.3,2.2-27.3,14.3-29.4,29.6c-0.3,2.5,1.6,4.7,4.1,4.7h23
		c1.8,0,3.4-1.2,3.9-2.8c0.1-0.1,0.1-0.3,0.1-0.5c2-7.1,3.1-14.5,3.1-22.2C610,853,610,851.1,609.8,849.2z"/>
	<path class="st0" d="M416.6,811.8c-5.5-8.7-12.5-16.4-20.8-22.5c-1.2-0.9-2.7-1-4-0.5c-7.2,2.9-14.1,6.7-20.3,11.2
		c-1.8,1.3-2.2,3.9-0.9,5.7c5,7,9.3,14.5,12.8,22.4c1.1,2.4,4.2,3.2,6.3,1.5c7.1-5.5,15.4-9.6,24.4-11.7
		C416.8,817.3,418.1,814.2,416.6,811.8z"/>
	<path class="st0" d="M429,851.8c0-0.2,0-0.4,0-0.5c0-0.4,0-0.8-0.1-1.2c0,0,0,0,0-0.1v0c-0.2-2.4-2.4-4.1-4.7-3.8
		c-15.3,2.2-27.3,14.3-29.4,29.6c-0.3,2.5,1.6,4.7,4.1,4.7h23.1c1.8,0,3.4-1.2,3.9-2.9c0.1-0.1,0.1-0.3,0.1-0.4
		c2-7,3.1-14.5,3.1-22.1v-0.1c0-0.7,0-1.4,0-2.1C429,852.5,429,852.2,429,851.8z"/>
	<path class="st0" d="M334.1,880.5h26.4c2.3,0,4.2-1.9,4.1-4.2c-0.8-19.1-7-36.8-17.2-51.6c-5.7-8.3-12.7-15.8-20.7-22
		c-7.2-5.6-15.1-10.2-23.6-13.7c-1.3-0.5-2.9-0.4-4.1,0.5c-8.3,6.1-15.4,13.7-20.8,22.5c-1.5,2.4-0.2,5.5,2.6,6.1
		c10.9,2.6,20.7,7.9,28.6,15.3c11.9,10.9,19.6,26.3,20.6,43.4C330.2,878.8,332,880.5,334.1,880.5z"/>
	<path class="st0" d="M269.2,877.7c0.5,1.6,2.1,2.8,3.9,2.8h23c2.5,0,4.4-2.2,4.1-4.7c-2.1-15.3-14.1-27.4-29.4-29.6
		c-2.1-0.3-4,1-4.6,3c-0.1,1.9-0.2,3.9-0.2,5.8c0,7.7,1.1,15.2,3.1,22.2C269.1,877.4,269.1,877.5,269.2,877.7z"/>
	<path class="st0" d="M99.9,818c9,2.2,17.3,6.2,24.4,11.7c2.1,1.6,5.2,0.9,6.3-1.5c3.5-7.9,7.8-15.4,12.8-22.4
		c1.3-1.8,0.9-4.4-0.9-5.7c-6.3-4.5-13.1-8.3-20.3-11.2c-1.3-0.5-2.9-0.4-4,0.5c-8.3,6.1-15.4,13.7-20.8,22.5
		C95.9,814.2,97.2,817.3,99.9,818z"/>
	<path class="st0" d="M88.2,877.6c0.5,1.7,2.1,2.9,3.9,2.9h23.1c2.5,0,4.4-2.2,4.1-4.7c-2.1-15.3-14.1-27.4-29.4-29.6
		c-2.4-0.3-4.6,1.4-4.7,3.8v0c0,0,0,0,0,0.1c0,0.4-0.1,0.8-0.1,1.2c0,0.2,0,0.4,0,0.5c0,0.3,0,0.7,0,1.1c0,0.7,0,1.4,0,2.1v0.1
		c0,7.7,1.1,15.1,3.1,22.1C88.1,877.4,88.1,877.5,88.2,877.6z"/>
	<path class="st0" d="M204.6,833.2c7.9-7.3,17.7-12.7,28.6-15.3c2.7-0.6,4-3.8,2.6-6.1c-5.5-8.7-12.5-16.4-20.8-22.5
		c-1.2-0.9-2.7-1-4.1-0.5c-8.5,3.5-16.5,8.1-23.6,13.7c-8,6.2-14.9,13.7-20.7,22c-10.2,14.8-16.4,32.5-17.2,51.6
		c-0.1,2.3,1.8,4.2,4.1,4.2h26.4c2.2,0,4-1.7,4.1-3.8C185,859.5,192.7,844.2,204.6,833.2z"/>
	<path class="st0" d="M247.8,849.2c-0.5-2-2.5-3.3-4.6-3c-15.3,2.2-27.3,14.3-29.4,29.6c-0.3,2.5,1.6,4.7,4.1,4.7h23
		c1.8,0,3.4-1.2,3.9-2.8c0.1-0.1,0.1-0.3,0.1-0.5c2-7.1,3.1-14.5,3.1-22.2C248,853,248,851.1,247.8,849.2z"/>
</g>
</svg>