<svg width="426" height="103" viewBox="0 0 426 103" fill="none" xmlns="http://www.w3.org/2000/svg">
<path fill-rule="evenodd" clip-rule="evenodd" d="M407.61 58.16C407.61 52.9 404.51 48.94 399.62 48.94C394.73 48.94 391.63 52.9 391.63 58.16C391.63 63.42 394.73 67.38 399.62 67.38C404.52 67.39 407.61 63.43 407.61 58.16ZM407.37 45.41V31.63C407.37 30.72 407.98 29.93 408.86 29.7L416.17 27.75V74.38H408.06V70.42C406.02 73.39 402.36 75.13 397.78 75.13C388.37 75.13 382.86 67.58 382.86 58.17C382.86 48.76 388.37 41.21 397.78 41.21C402.35 41.2 405.7 43.18 407.37 45.41ZM357.48 41.94V45.9C358.97 43.11 362.31 41.19 367.14 41.19C374.94 41.19 379.09 46.39 379.09 54.13V74.38H370.3V55.13C370.3 51.35 368.69 48.75 364.79 48.75C360.52 48.75 358.17 51.47 358.17 55.81V74.38H349.38V41.94H357.48ZM328.83 75.13C319.36 75.13 314.09 71.04 314.09 60.52V41.94H322.88V60.64C322.88 65.16 324.92 67.26 328.82 67.26C332.72 67.26 334.76 65.15 334.76 60.64V41.94H343.55V60.51C343.57 71.04 338.3 75.13 328.83 75.13ZM285.07 58.16C285.07 63.98 288.66 67.38 293.3 67.38C297.94 67.38 301.53 63.97 301.53 58.16C301.53 52.35 297.94 48.94 293.3 48.94C288.67 48.94 285.07 52.34 285.07 58.16ZM293.31 75.13C282.91 75.13 276.28 67.39 276.28 58.17C276.28 48.95 282.9 41.21 293.31 41.21C303.71 41.21 310.34 48.95 310.34 58.17C310.33 67.39 303.71 75.13 293.31 75.13ZM249.49 58.16C249.49 63.42 252.59 67.38 257.48 67.38C262.37 67.38 265.47 63.42 265.47 58.16C265.47 52.9 262.37 48.94 257.48 48.94C252.59 48.94 249.49 52.9 249.49 58.16ZM249.74 70.92V84.41C249.74 85.32 249.13 86.11 248.25 86.34L240.95 88.26V41.94H249.06V45.9C251.1 42.93 254.76 41.19 259.34 41.19C268.75 41.19 274.26 48.74 274.26 58.15C274.26 67.56 268.75 75.11 259.34 75.11C254.75 75.13 251.41 73.15 249.74 70.92ZM214.84 55.93V74.38H206.05V55.13C206.05 51.54 204.75 48.75 200.85 48.75C196.76 48.75 194.53 51.41 194.53 55.75V74.39H185.74V41.94H193.85V45.9C195.34 43.11 198.56 41.19 203.2 41.19C207.6 41.19 210.75 42.92 212.61 45.77C215.46 42.61 218.74 41.19 223.38 41.19C231.18 41.19 235.14 46.58 235.14 54.13V74.38H226.35V55.13C226.35 51.54 225.05 48.75 221.15 48.75C217 48.75 214.84 51.41 214.84 55.93ZM156.41 58.16C156.41 63.98 160 67.38 164.64 67.38C169.28 67.38 172.87 63.97 172.87 58.16C172.87 52.35 169.28 48.94 164.64 48.94C160 48.94 156.41 52.34 156.41 58.16ZM164.64 75.13C154.24 75.13 147.61 67.39 147.61 58.17C147.61 48.95 154.23 41.21 164.64 41.21C175.05 41.21 181.67 48.95 181.67 58.17C181.67 67.39 175.04 75.13 164.64 75.13ZM102 52.34C102 38.6 111.47 29.49 124.1 29.49C135.06 29.49 143.73 35.99 145.4 46.7H135.74C134.44 41.19 129.98 38.09 124.1 38.09C116.05 38.09 111.53 43.66 111.53 52.33C111.53 61 116.05 66.57 124.1 66.57C129.98 66.57 134.44 63.47 135.74 57.96H145.4C143.73 68.67 135.06 75.17 124.1 75.17C111.47 75.19 102 66.09 102 52.34Z" fill="#243136"/>
<path fill-rule="evenodd" clip-rule="evenodd" d="M12.61 77.1045C10.37 75.7345 9 73.2945 9 70.6745V56.0445C9 55.4845 9.15 54.9445 9.43 54.4645C10.3 52.9645 12.23 52.4545 13.73 53.3345L46.75 72.5845C48.68 73.7145 49.87 75.7745 49.87 78.0145V93.1745C49.87 93.8645 49.68 94.5545 49.32 95.1445C48.23 96.9245 45.91 97.4845 44.13 96.3945L12.61 77.1045ZM61.83 49.3245C63.76 50.4545 64.95 52.5145 64.95 54.7545V85.5145C64.95 86.4245 64.46 87.2645 63.67 87.7045L56.44 91.7745C56.35 91.8245 56.25 91.8645 56.15 91.8945V74.8145C56.15 72.6045 54.99 70.5545 53.09 69.4145L24.09 52.0645V32.7845C24.09 32.2245 24.24 31.6845 24.52 31.2045C25.39 29.7045 27.32 29.1945 28.82 30.0745L61.83 49.3245ZM76.28 26.6045C78.22 27.7245 79.41 29.8045 79.41 32.0445V76.9745C79.41 77.8945 78.9 78.7445 78.09 79.1845L71.24 82.8845V51.6045C71.24 49.3945 70.08 47.3545 68.19 46.2145L38.55 28.4345V10.1445C38.55 9.58447 38.7 9.04447 38.97 8.56447C39.84 7.06447 41.77 6.55447 43.27 7.42447L76.28 26.6045Z" fill="#243136"/>
</svg>
