<svg width="1100" height="200" viewBox="0 0 1100 200" fill="none" xmlns="http://www.w3.org/2000/svg">
<g clip-path="url(#clip0_749_1092)">
<path d="M93.6953 91.1546L85.0044 108.869H126.2L135.405 91.1541L93.6953 91.1546Z" fill="black"/>
<path d="M148.929 123.026L144.156 132.285H58.6822L50 150H135.281L135.298 149.967L170.41 149.936L148.929 123.026Z" fill="black"/>
<path d="M85.3766 50.0001L50.0242 50.0319L71.5046 76.9412L76.246 67.7309H161.175L170.386 50.016H85.3608L85.3766 50.0001Z" fill="black"/>
<path d="M243.473 50.1629H280.006L271.14 100.388C269.51 109.473 266.758 117.181 262.886 123.51C259.115 129.737 254.377 134.841 248.67 138.822C242.963 142.701 236.34 145.56 228.798 147.397C221.257 149.133 213.003 150 204.035 150H186.151L191.501 119.988H212.595C219.627 119.477 224.773 117.589 228.034 114.322C231.397 110.953 233.588 106.309 234.607 100.388L243.473 50.1629Z" fill="black"/>
<path d="M368.611 113.25H316.639L315.568 119.988H371.668L366.318 150H273.991L291.57 50.1629H383.896L378.546 80.1754H322.447L321.377 86.9128H373.349L368.611 113.25Z" fill="black"/>
<path d="M426.409 80.1754H449.796C453.363 80.1754 455.809 80.992 457.134 82.6254C458.56 84.2587 459.274 86.4024 459.274 89.0566C459.274 90.8941 459.121 92.7826 458.815 94.7222L456.828 105.594C456.522 107.534 456.064 109.371 455.452 111.107C454.943 112.842 454.127 114.373 453.006 115.7C451.987 117.027 450.663 118.099 449.032 118.916C447.402 119.631 445.364 119.988 442.918 119.988H419.53L426.409 80.1754ZM377.953 150H457.286C460.242 150 463.503 149.133 467.069 147.397C470.738 145.662 474.203 143.467 477.464 140.813C480.725 138.057 483.527 134.994 485.871 131.625C488.317 128.257 489.845 124.939 490.457 121.672L497.947 78.491C498.049 77.9806 498.1 77.5212 498.1 77.1129C498.202 76.6024 498.253 76.092 498.253 75.5816C498.253 72.5191 497.539 69.5077 496.113 66.5473C494.686 63.4848 492.801 60.7285 490.457 58.2785C488.215 55.8285 485.718 53.8889 482.967 52.4598C480.215 50.9285 477.515 50.1629 474.865 50.1629H395.532L377.953 150Z" fill="black"/>
<path d="M533.219 150L550.798 50.1629H514.57L496.992 150H533.219Z" fill="black"/>
<path d="M544.826 150H617.892C620.745 150 623.446 149.49 625.994 148.469C628.643 147.448 630.987 146.019 633.025 144.182C635.063 142.344 636.796 140.2 638.222 137.75C639.649 135.3 640.617 132.595 641.127 129.635C641.432 127.695 641.585 125.807 641.585 123.969C641.585 119.886 640.821 116.007 639.292 112.332C637.866 108.657 635.98 105.084 633.637 101.613C631.293 98.0399 628.694 94.518 625.841 91.0472C623.089 87.5764 620.389 83.9524 617.739 80.1754H660.998L666.348 50.1629H601.078C598.122 50.1629 595.218 50.7754 592.365 52.0004C589.511 53.1233 586.913 54.7056 584.569 56.7473C582.225 58.7889 580.187 61.2389 578.454 64.0972C576.824 66.8535 575.703 69.865 575.092 73.1316C574.786 74.5608 574.633 75.7858 574.633 76.8066V77.7254C574.939 81.7066 575.958 85.5858 577.69 89.3628C579.525 93.1399 581.665 96.8149 584.11 100.388C586.556 103.859 589.155 107.227 591.906 110.494C594.759 113.761 597.358 116.925 599.702 119.988H550.176L544.826 150Z" fill="black"/>
<path d="M774.158 87.9847L768.349 50.1629H736.249L716.53 87.9847L710.874 50.1629H675.105L688.71 150H724.784L742.363 110.647L746.185 150H782.259L831.021 50.1629H793.724L774.158 87.9847Z" fill="black"/>
<path d="M883.135 134.688H846.144L838.195 150H800.897L849.659 50.1629H907.746L921.35 150H885.581L883.135 134.688ZM858.831 108.044H879.773L874.881 76.5004L858.831 108.044Z" fill="black"/>
<path d="M966.233 150H930.006L947.585 50.1629H1024.78C1028.24 50.1629 1031.5 50.9285 1034.56 52.4598C1037.62 53.991 1040.27 56.0327 1042.51 58.5848C1044.85 61.1368 1046.69 63.9952 1048.01 67.1597C1049.34 70.3243 1050 73.5399 1050 76.8066C1050 77.4191 1049.95 78.0316 1049.85 78.6441C1049.85 79.2566 1049.8 79.8691 1049.69 80.4816L1047.55 92.5785C1046.94 95.9472 1045.41 99.4691 1042.97 103.144C1040.52 106.717 1037.57 109.984 1034.1 112.944C1030.74 115.904 1027.07 118.354 1023.1 120.294C1019.22 122.132 1015.5 123.05 1011.94 123.05H970.972L966.233 150ZM976.169 93.4972H1000.78C1004.55 93.4972 1007.15 92.9358 1008.58 91.8128C1010 90.6899 1010.97 89.0566 1011.48 86.9128L1011.63 85.3816C1011.63 83.7483 1011.07 82.4722 1009.95 81.5535C1008.83 80.6347 1006.54 80.1754 1003.07 80.1754H978.462L976.169 93.4972Z" fill="black"/>
</g>
<defs>
<clipPath id="clip0_749_1092">
<rect width="1100" height="200" fill="white"/>
</clipPath>
</defs>
</svg>
