
        <svg xmlns="http://www.w3.org/2000/svg" xmlns:xlink="http://www.w3.org/1999/xlink" version="1.1" width="3162.1621621621625" 
        height="972.972972972973" viewBox="0 0 3162.1621621621625 972.972972972973">
			
			<g transform="scale(8.108108108108109) translate(10, 10)">
				<defs id="SvgjsDefs1031"></defs>
				<g id="SvgjsG1032" featureKey="symbolFeature-0" transform="matrix(1.25,0,0,1.25,-12.5,-12.5)" fill="#e93281">
					<path xmlns="http://www.w3.org/2000/svg" d="M84.06,50.003C87.751,45.762,90,40.231,90,34.167C90,20.82,79.18,10,65.833,10C59.769,10,54.241,12.249,50,15.938  C45.755,12.249,40.231,10,34.167,10C20.82,10,10,20.82,10,34.167c0,6.064,2.249,11.592,5.938,15.833  C12.249,54.241,10,59.769,10,65.833C10,79.18,20.82,90,34.167,90c6.064,0,11.588-2.249,15.833-5.938  C54.241,87.751,59.769,90,65.833,90C79.18,90,90,79.18,90,65.833c0-6.064-2.249-11.592-5.938-15.833L84.06,50.003z M83.333,34.167  c0,9.648-7.852,17.5-17.5,17.5c-4.388,0-8.355-1.68-11.429-4.362c2.468-3.782,3.929-8.281,3.929-13.138  c0-4.857-1.445-9.369-3.909-13.154c3.069-2.673,7.031-4.346,11.409-4.346C75.481,16.667,83.333,24.519,83.333,34.167z   M34.167,16.667c9.648,0,17.5,7.852,17.5,17.5c0,4.388-1.68,8.355-4.355,11.432c-3.786-2.471-8.288-3.932-13.145-3.932  c-4.857,0-9.369,1.445-13.158,3.912c-2.669-3.072-4.342-7.034-4.342-11.412C16.667,24.519,24.519,16.667,34.167,16.667z   M16.667,65.833c0-9.648,7.852-17.5,17.5-17.5c4.388,0,8.355,1.68,11.432,4.359c-2.471,3.785-3.932,8.284-3.932,13.141  c0,4.857,1.445,9.369,3.912,13.154c-3.072,2.673-7.031,4.346-11.412,4.346C24.519,83.333,16.667,75.481,16.667,65.833z   M65.833,83.333c-9.648,0-17.5-7.852-17.5-17.5c0-4.388,1.68-8.355,4.355-11.432c3.786,2.471,8.288,3.932,13.145,3.932  c4.857,0,9.369-1.445,13.158-3.912c2.669,3.072,4.342,7.034,4.342,11.412C83.333,75.481,75.481,83.333,65.833,83.333z">
					</path>
				</g>
				<g id="SvgjsG1033" featureKey="vMvB0T-0" transform="matrix(3.201024390324912,0,0,3.201024390324912,119.03969283553927,8.281688717668729)" fill="white"><path d="M2.66 18.68 l-2.36 -12.16 q0.96 -0.36 1.7 -0.36 q0.84 0 1.22 0.37 t0.54 1.39 l0.84 5.16 q0.38 2.32 0.48 3.24 t0.13 0.96 t0.13 0.04 l1.66 -10.72 q0.74 -0.14 2.06 -0.14 t2.04 0.14 l1.52 10.46 q0.02 0.18 0.07 0.22 t0.15 0.04 q0.18 -1.88 0.6 -4.26 l1.12 -6.72 q0.58 -0.12 1.34 -0.12 q0.92 0 1.62 0.22 l0.14 0.18 l-2.64 13.36 q-1.3 0.14 -2.44 0.14 t-1.62 -0.28 t-0.62 -1.16 l-0.68 -4.34 q-0.36 -2.36 -0.58 -4.64 l-0.14 0 q-0.22 1.94 -0.66 4.64 l-0.9 5.64 q-1.36 0.14 -2.47 0.14 t-1.59 -0.28 t-0.66 -1.16 z M22.419999999999998 17.14 q-0.54 0 -0.8 -0.02 l-0.86 2.9 q-0.48 0.12 -1.34 0.12 q-0.96 0 -1.56 -0.22 l-0.1 -0.16 l4.4 -13.42 q0.78 -0.12 1.82 -0.12 q1.18 0 1.88 0.14 l4.32 13.44 q-0.7 0.38 -1.58 0.38 q-1.04 0 -1.46 -0.36 t-0.72 -1.38 l-0.38 -1.32 q-0.26 0.02 -0.78 0.02 l-2.84 0 z M22.36 14.620000000000001 l0.8 -0.02 l1.46 0 q0.1 0 0.35 0.01 t0.37 0.01 l-0.34 -1.24 q-0.48 -1.68 -1.1 -4.12 l-0.12 0 q-0.16 0.86 -0.96 3.82 z M36.919999999999995 17.3 l3.46 0 q0 0.8 -0.1 1.37 t-0.64 0.98 t-1.42 0.41 l-4.52 0 q-0.86 0 -1.36 -0.5 t-0.5 -1.36 l0 -11.86 l0.14 -0.14 l1.18 0 q1.88 0 1.88 2.04 l0 9.14 q0.88 -0.08 1.88 -0.08 z M53.059999999999995 6.199999999999999 l0.14 0.14 l0 13.6 q-0.8 0.18 -1.89 0.18 t-1.93 -0.12 l-3.14 -7.16 q-0.56 -1.22 -1.14 -2.82 l-0.06 0.02 q0.24 2.92 0.24 5.98 l0 3.98 q-0.62 0.12 -1.5 0.12 t-1.48 -0.12 l0 -13.6 q0.76 -0.18 1.83 -0.18 t1.91 0.12 l3.1 7.14 q0.84 1.98 1.24 3.04 l0.08 -0.04 q-0.24 -2.78 -0.24 -5.9 l0 -2.44 q0 -1.04 0.42 -1.49 t1.36 -0.45 l1.06 0 z M66.84 6.34 l0 8.62 q0 2.56 -1.4 3.95 t-4 1.39 t-4.01 -1.39 t-1.41 -3.95 l0 -8.62 l0.14 -0.14 l1.18 0 q1.9 0 1.9 2.04 l0 6.76 q0 1.4 0.5 2.08 t1.7 0.68 t1.7 -0.68 t0.5 -2.08 l0 -8.66 q0.62 -0.12 1.6 -0.12 q0.96 0 1.6 0.12 z M74.86 8.98 l0.02 1.48 l0 9.54 q-0.68 0.12 -1.62 0.12 t-1.58 -0.12 l0 -11.02 l-1.28 0.02 l-2.06 0 q-0.12 -0.58 -0.12 -1.33 t0.12 -1.33 l9.9 0 q0.16 0.52 0.16 1.26 t-0.4 1.07 t-1.28 0.33 l-0.58 0 l-1.26 -0.02 l-0.02 0 z"></path></g>
			</g>
		</svg>
	