<?xml version="1.0" encoding="utf-8"?>
<!-- Generator: Adobe Illustrator 27.6.1, SVG Export Plug-In . SVG Version: 6.00 Build 0)  -->
<svg version="1.1" id="Layer_1" xmlns="http://www.w3.org/2000/svg" xmlns:xlink="http://www.w3.org/1999/xlink" x="0px" y="0px"
	 viewBox="0 0 3162.2 973" style="enable-background:new 0 0 3162.2 973;" xml:space="preserve">
<style type="text/css">
	.st0{fill:#0F172A;}
</style>
<g>
	<g>
		<g>
			<g>
				<g>
					<path class="st0" d="M573.3,647.1c29.3,21,61.1,38.7,94.9,52.4c6.3,2.6,13.4,1.7,18.9-2.3c38.6-28.4,71.6-64,97.2-104.8
						c6.9-11,0.7-25.6-11.9-28.6c-42.2-10-80.9-29-114-54.8c-9.9-7.7-24.3-4.3-29.4,7.1c-16.6,36.9-36.7,71.9-60,104.4
						C563,629,564.8,641,573.3,647.1z"/>
					<path class="st0" d="M842.1,390.6v0.6c0,3.2,0,6.4-0.1,9.6c0,1.6-0.1,3.3-0.2,4.9c0,0.8,0,1.7-0.1,2.5
						c-0.1,1.9-0.2,3.9-0.3,5.8c0,0.1,0,0.2,0,0.3l0,0c-0.9,11.1-11,19.1-22.1,17.6c-71.2-10.1-127.5-66.6-137.2-138
						c-1.6-11.6,7.4-21.9,19-21.9h107.8c8.6,0,15.8,5.6,18.3,13.3c0.2,0.7,0.4,1.3,0.6,2C837.1,320.1,842,354.8,842.1,390.6z"/>
					<path class="st0" d="M284,492.5c-37.1,34.2-82.8,59.2-133.6,71.3c-12.7,3-18.8,17.6-11.9,28.6c25.5,40.8,58.6,76.4,97.2,104.8
						c5.5,4,12.6,4.9,18.9,2.3c39.8-16.2,76.9-37.8,110.2-63.9c37.2-29.1,69.7-63.8,96.5-102.8c47.5-69.1,76.6-151.8,80.3-241
						c0.5-10.8-8.3-19.8-19.2-19.8H399.2c-10.1,0-18.5,7.8-19.1,17.9C375.4,369.9,339.3,441.5,284,492.5z"/>
					<path class="st0" d="M240.6,293.9c-9.7,71.3-65.9,127.9-137.2,138c-9.8,1.4-18.9-4.7-21.4-13.8c-0.7-8.9-1-18-1-27.1
						c0-35.9,5-70.7,14.3-103.7c0.2-0.7,0.3-1.4,0.6-2.1c2.5-7.7,9.7-13.2,18.2-13.2h107.4C233.3,272,242.2,282.3,240.6,293.9z"/>
				</g>
			</g>
		</g>
	</g>
	<g>
		<path class="st0" d="M1688.3,376.4c44.9,0,76.3,19.6,92.5,47.7v-43.7h109.9V695h-109.9v-43.7c-16.3,28-48.2,47.7-92.5,47.7
			c-74.6,0-134-61.1-134-161.5S1613.7,376.4,1688.3,376.4z M1723.6,472.3c-31.4,0-57.2,22.4-57.2,65c0,42.1,25.8,65.6,57.2,65.6
			c30.8,0,57.2-23,57.2-65.6C1780.8,495.3,1754.5,472.3,1723.6,472.3z"/>
		<path class="st0" d="M1953.5,272h109.9v422.9h-109.9L1953.5,272L1953.5,272z"/>
		<path class="st0" d="M2126.2,380.3h109.9v44.9c18.5-26.9,51.6-47.7,95.9-47.7c72.9,0,118.3,51.6,118.3,134v183.3h-109.9V526.1
			c0-36.4-20.2-57.8-51.6-57.8c-32.5,0-52.7,21.3-52.7,57.8v168.8h-109.9V380.3z"/>
		<path class="st0" d="M2617.9,549.1c0,36.4,20.7,57.8,52.1,57.8c32,0,52.1-21.3,52.1-57.8V380.3h110.5v314.6h-110.5V650
			c-17.9,26.9-51,47.7-95.3,47.7c-72.9,0-118.3-51.6-118.3-134.6V380.3h109.3L2617.9,549.1L2617.9,549.1z"/>
		<path class="st0" d="M2912.9,471.7h-38.7v-91.4h38.7v-79.1h110.5v79.1h57.2v91.4h-57.2v105.4c0,16.8,7.3,24.1,25.8,24.1h32v93.6
			h-47.7c-69.5,0-120.6-29.2-120.6-119.4V471.7z"/>
		<polygon class="st0" points="1540.7,380.3 1468.2,694.9 1336.1,694.9 1295.6,519.4 1255.1,694.9 1123.1,694.9 1050.6,380.3 
			1147.7,380.3 1189.1,560.1 1230.6,380.3 1360.7,380.3 1402.1,560.1 1443.5,380.3 		"/>
	</g>
</g>
</svg>
