<?xml version="1.0" encoding="utf-8"?>
<!-- Generator: Adobe Illustrator 27.6.1, SVG Export Plug-In . SVG Version: 6.00 Build 0)  -->
<svg version="1.1" id="Layer_1" xmlns="http://www.w3.org/2000/svg" xmlns:xlink="http://www.w3.org/1999/xlink" x="0px" y="0px"
	 viewBox="0 0 339 264.2" style="enable-background:new 0 0 339 264.2;" xml:space="preserve">
<style type="text/css">
	.st0{fill:#3C3FE7;}
	.st1{opacity:0.66;fill:#3C3FE7;}
	.st2{opacity:0.33;fill:#3C3FE7;}
	.st3{fill:#D9D9D9;}
	.st4{fill:#FFFFFF;}
</style>
<g>
	<g>
		<path class="st0" d="M28.7,143.8C28.7,143.8,28.7,143.7,28.7,143.8c-0.3-0.2-0.4-0.3-0.6-0.4c0.2-0.1,0.4-0.2,0.5-0.3
			C28.7,143.3,28.7,143.5,28.7,143.8z"/>
	</g>
	<path class="st1" d="M141,186.1v14.1c0,0,0,0,0,0c-0.9-1.5-1.5-2.5-2.3-4l-0.1-0.2c-1.4,2.8-2,4.7-3.2,6.2
		c-2.4,3.2-5.7,5.3-9.8,3.8c-2.8-1-4.4-2.8-5.4-4.9c-0.4-0.8-0.7-1.7-0.9-2.6c-0.1-0.3-0.2-0.6-0.2-0.9c-0.1-0.6-0.2-1.2-0.3-1.9
		c-0.1-0.6-0.1-1.3-0.2-1.9c-0.4-5.1,0.4-10.2-1.7-15.1c-4.7-11.1-13.2-15.6-25.9-13.5c5.9,6.6,6.4,11.8,1.9,21
		c-4.9,9.8-10.8,14-19.1,13.3c-5.5-0.5-8.4-4.2-9.6-12.3c-8.3,3.8-11.9,10.6-13.5,19c-1.8,9.6,1.4,17.7,6.9,25.3
		c-4.8-1.3-8.3-4.6-12.2-7.5c-4.7-8.6-7.9-17.7-8.2-27.6c-0.2-7.8,0.9-15.4,4.5-22.4c1-1.9,1.8-2.3,3.8-1c7.8,5,16.2,6,24.3,1.1
		c8.7-5.3,14.5-12.8,14.1-23.8c-0.2-5.4-3.2-9-6.7-12.7c-4.8-5-8.1-10.6-6.2-18c18.1,4.9,24.7,1.2,25.8-14.5
		c8.4-0.5,13.9,7.7,12.1,18.4c-1.1,6.4-0.8,12.3,5.9,15.6c6.6,3.2,13.4,1.1,18.3-5c2.9,4.4,3.3,12.4,0.8,17.8
		c-1.8,3.8-4,7.3-5.7,11.1C123.1,174.5,128.8,184.3,141,186.1L141,186.1z"/>
	<path class="st2" d="M141,228.6C141,228.6,141,228.6,141,228.6c-0.2,0.3-0.3,0.5-0.5,0.7c0,0-0.1,0.1-0.1,0.2
		c-0.1,0.1-0.2,0.2-0.3,0.3c-0.3,0.3-0.7,0.6-1,0.8c-4.5,2.3-8.6,5-14.2,6.2c7.1-6.2,10.9-12.7,9.4-22.3c-4.1,5.8-9.2,6.4-14.6,4.3
		c-5.3-2-6-6.9-6.2-11.9c-0.4-6.5-2.2-12.5-6.8-17.4c-0.9-0.9-2.2-2.1-3.3-2.1c-1.6-0.1-1.2,1.9-1.6,3
		c-4.3,13.8-13.3,21.4-25.3,21.1c-5.3-0.2-9.9-2.2-14.1-5.3c-3.5,8.1-1.8,14.1,8.7,31.2c-5.1-1.1-9.7-2.5-13.5-5.8
		c-5.5-7.5-8.7-15.7-6.9-25.3c1.6-8.4,5.2-15.2,13.5-19c1.1,8.1,4.1,11.8,9.6,12.3c8.3,0.7,14.2-3.5,19.1-13.3
		c4.5-9.1,4-14.4-1.9-21c12.7-2,21.2,2.5,25.9,13.5c2.1,4.9,1.3,10,1.7,15.1c0.1,0.6,0.1,1.3,0.2,1.9c0.1,0.6,0.2,1.2,0.3,1.9
		c0.1,0.3,0.1,0.6,0.2,0.9c0.2,0.9,0.5,1.8,0.9,2.6c1,2.2,2.7,3.9,5.4,4.9c4.1,1.5,7.4-0.6,9.8-3.8c1.2-1.5,1.8-3.4,3.2-6.2l0.1,0.2
		c0.9,1.4,1.4,2.5,2.3,4L141,228.6z"/>
	<path class="st3" d="M320.2,200.8c-2.7-19.4-8.2-38.4-8.4-58.1c-0.2-21.8-0.1-43.6-0.1-65.4c0-5.8-2-10.9-5.9-14.9
		c-10.8-11.1-21.8-21.9-32.7-32.8c-3.2-3.2-5.2-0.1-7.2,1.5c-1.9,1.5-4.2,3-1.3,5.9c8.8,8.9,17.9,17.9,14.1,32.3v1.5
		c0,4.1-0.1,8.2,0.1,12.3c0.2,6.3,8.1,14.9,14.3,14.5c5.4-0.4,7.7,1.2,7.7,5.1v0.1c0,0.3,0,0.5,0,0.8v0l-0.5,13.7v0
		c-0.2,5.7-0.4,11.4-0.6,17.1c0,0.8,0,1.5,0,2.2c-0.2,4.6-0.9,9.2-0.5,13.7c2,23.3,7.3,46,11.4,68.9c1.1,6.1-0.3,10.9-5.2,14.4
		c-4.1,3-8.8,3.3-13.4,1.1c-5.4-2.5-7.2-7-7.2-12.8c0.1-30.5,0-61,0.1-91.5c0-6.9-3.3-11.7-8.5-15.7c-6.7-5.3-14.6-4-22-3.4
		c-1.1,0.1-2.1,0.1-2.9,0.1c-3.1-0.1-5.5-2.7-5.5-5.8V56.2h0c0-7.4,0-14.7-0.1-22c0-0.2,0-0.5,0-0.7c0.1-0.6,0.1-1.1,0.1-1.7
		c0-9.9-8-17.9-17.9-17.9h-62.2c-0.1,0-0.2,0-0.3,0c-8.7,0.1-15.9,6.5-17.3,14.8c-0.3,1-0.5,2.1-0.5,3.2c0,21.2,0,42.4,0,63.7h0
		l0.2,146.8l0.1,2.5c0,2,1.5,3.6,3.4,3.8l1.7,0.2c0.2,0,0.5,0,0.8,0c28.9-0.3,57.9-0.2,86.8,0c4.4,0,5.3-1.3,5.2-5.4
		c-0.1-28.8-0.1-57.5-0.1-86.3c0-5.3,0-10.5,0-15.8c0-2.4,0-4.5,0-6.3c0.3-11.7,2.4-11.6,18-11.2c0.5,0,1-0.1,1.5,0.1
		c3.9,0.9,6.6,2.9,6.7,7.3c0.2,11,0.6,21.9,0.6,32.8c0.1,20.4,0,40.9,0,61.3c0,11.2,10.5,22.5,21.7,23.4c13.4,1.1,27.4-8,29.2-19.3
		C325.3,219.6,321.5,210.3,320.2,200.8z M297.1,88.3c-3.9,0.2-6.8-2.5-7.6-6.5c0,0,0-0.1,0-0.1c-0.1-0.2-0.1-0.5-0.1-0.8
		c-0.3-2.6-0.3-7.6-0.3-9.7c0-0.3,0-0.6,0-0.9c0.1-0.9,0.6-1.5,2.1-1.7c4.1-0.5,7.1,1.9,7.8,6.3c0,0.3,0.1,0.6,0.1,0.9
		c0,0,0,0.1,0,0.1c0.1,0.6,0.1,1.2,0,1.8l0.2,8.8C299.2,87.5,298.8,88.3,297.1,88.3z M231.6,82.3c0,4.3-2.4,6.4-6.6,6.4
		c-18.8,0-37.7,0-56.5,0c-4.3,0-6.4-2.2-6.5-6.5c0-11,0-22,0-33c0-4.6,0-9.1,0-13.7c0-4.3,1.9-6.7,6.6-6.7c4.9,0.1,9.9,0.1,14.8,0.1
		c4.5,0,9.1,0,13.6,0c4.4,0,8.9,0,13.3,0c4.9,0,9.8,0,14.7-0.1c4.5,0,6.4,2.3,6.4,6.4c0,4.7,0,9.3,0,14
		C231.6,60.3,231.6,71.3,231.6,82.3z"/>
	<path class="st3" d="M245.9,135.1v22.1h-0.1c0-5.3,0-10.5,0-15.8C245.9,139,245.9,136.9,245.9,135.1z"/>
	<path class="st3" d="M165.8,13.8c-0.1,0-0.2,0-0.3,0v0H165.8z"/>
	<path class="st4" d="M147.8,238.3c0-0.1,0-0.2,0-0.2l0,0L147.8,238.3z"/>
	<path class="st0" d="M141,119.5c0,22.2,0,44.4,0,66.6h0c-12.2-1.8-17.8-11.7-12.9-22.9c1.7-3.8,3.9-7.4,5.7-11.1
		c2.6-5.5,2.2-13.4-0.8-17.8c-4.9,6.2-11.7,8.2-18.3,5c-6.7-3.3-7-9.2-5.9-15.6c1.8-10.7-3.7-18.9-12.1-18.4
		c-1,15.7-7.6,19.4-25.8,14.5c-1.9,7.4,1.3,13,6.2,18c3.5,3.6,6.5,7.3,6.7,12.7c0.5,11-5.4,18.5-14.1,23.8
		c-8.1,4.9-16.4,3.9-24.3-1.1c-2-1.3-2.8-0.8-3.8,1c-3.7,7-4.8,14.6-4.5,22.4c0.3,9.9,3.4,19,8.2,27.6c-23.6-19-32.1-53.2-19.2-77.6
		c0.6-1.1,1.3-2.1,1.9-3.2c0.2,0.1,0.3,0.2,0.5,0.4c0,0,0.1,0,0.1,0.1c-1.1,6.8,1.3,12.2,6.8,16c5.1,3.5,10.7,3.6,15.9,0.3
		c6.4-4,7.8-10.5,7.2-17.5c-0.5-6-3.9-10.7-7.1-15.5c-9.8-14.4-10-28-0.6-39.3c3.5-4.2,7.9-7,13.3-8.9c0.2,2.8,0.1,5.3,0.7,7.6
		c1.3,5.7,4.9,9.4,10.6,10.7c8.1,1.9,15-0.7,20.3-6.8c12-13.7,10.2-28.6-5.3-44.2c11.7-1.6,21.7,1.8,30.2,9.1
		c14,12.1,17.2,28.9,9,45.5c-1.4,3-3,6-3.9,9.2c-1.2,4.1-0.2,7.9,3.4,10.6c3.7,2.6,7.3,1.9,10.6-0.8c0.4-0.1,0.7-0.2,1.1-0.4
		C140.9,119.6,141,119.6,141,119.5z"/>
	<path class="st4" d="M289.5,81.7c-0.1-0.2-0.1-0.5-0.1-0.8C289.4,81.2,289.4,81.5,289.5,81.7z"/>
	<path class="st4" d="M299,75.8v0.1C299,75.9,299,75.8,299,75.8L299,75.8z"/>
</g>
</svg>
