<?xml version="1.0" encoding="utf-8"?>
<!-- Generator: Adobe Illustrator 27.6.1, SVG Export Plug-In . SVG Version: 6.00 Build 0)  -->
<svg version="1.1" id="Layer_1" xmlns="http://www.w3.org/2000/svg" xmlns:xlink="http://www.w3.org/1999/xlink" x="0px" y="0px"
	 viewBox="0 0 610 610" style="enable-background:new 0 0 610 610;" xml:space="preserve">
<style type="text/css">
	.st0{fill:#4B5563;}
</style>
<g id="Interface__x2F__External_x5F_Link">
	<path class="st0" d="M431.8,571.7H178.2c-41.2,0-63.9,0-85.3-10.9c-18.9-9.6-34-24.8-43.7-43.7c-10.9-21.4-10.9-44.1-10.9-85.4
		V178.3c0-41.3,0-64,10.9-85.4C58.9,74,74,58.9,92.9,49.2c21.4-10.9,44.1-10.9,85.4-10.9h60c18.4,0,33.3,14.9,33.3,33.3
		c0,18.4-14.9,33.3-33.3,33.3h-60c-28.9,0-48,0-55.1,3.6c-6.3,3.2-11.3,8.2-14.6,14.6c-3.6,7.1-3.6,26.2-3.6,55.1v253.3
		c0,28.9,0,48,3.6,55.1c3.2,6.3,8.3,11.4,14.6,14.6c7.1,3.6,26.2,3.6,55,3.6h253.5c28.8,0,47.9,0,55-3.6c6.2-3.2,11.4-8.4,14.6-14.6
		c3.6-7.1,3.6-26.2,3.6-55v-60.1c0-18.4,14.9-33.3,33.3-33.3s33.3,14.9,33.3,33.3v60.1c0,41.2,0,63.9-10.9,85.3
		c-9.7,18.9-24.8,34.1-43.7,43.7C495.7,571.7,473,571.7,431.8,571.7z M338.3,305c-8.5,0-17.1-3.3-23.6-9.8c-13-13-13-34.1,0-47.1
		L491.2,71.7H405c-18.4,0-33.3-14.9-33.3-33.3S386.6,5,405,5h166.7c4.6,0,9,0.9,13,2.6c0,0,0,0,0.1,0c0,0,0,0,0,0
		c3.7,1.6,7.2,3.8,10.2,6.8c0,0,0,0,0,0c0,0,0,0,0.1,0.1c0,0,0,0,0,0c0,0,0,0,0,0c0,0,0,0,0,0c0,0,0,0,0,0c0,0,0,0,0.1,0.1
		c0,0,0,0,0,0c0,0,0,0,0,0c0,0,0,0,0.1,0.1c0,0,0,0,0,0c0,0,0,0,0,0c3.3,3.3,5.7,7.2,7.3,11.3c1.2,3.1,2,6.4,2.2,9.8c0,0,0,0,0,0.1
		c0,0,0,0,0,0c0.1,0.8,0.1,1.7,0.1,2.5V205c0,18.4-14.9,33.3-33.3,33.3s-33.3-14.9-33.3-33.3v-86.2L361.9,295.2
		C355.4,301.7,346.9,305,338.3,305z"/>
</g>
</svg>
